<svg xmlns="http://www.w3.org/2000/svg" viewBox="0 0 9.22 8.02"><defs><style>.cls-1{fill:#231815;}</style></defs><title>icon</title><g id="font"><path class="cls-1" d="M7.29,5.63H2.23A.25.25,0,0,1,2,5.41L1.47.58.15,1,0,.51,1.61,0a.25.25,0,0,1,.21,0,.25.25,0,0,1,.11.18l.52,4.91H7.14l1.44-3H3.2v-.5H9A.25.25,0,0,1,9.2,2L7.52,5.49A.25.25,0,0,1,7.29,5.63Z"/><path class="cls-1" d="M2.94,8a1,1,0,1,1,1-1A1,1,0,0,1,2.94,8Zm0-1.43a.46.46,0,1,0,.46.46A.46.46,0,0,0,2.94,6.59Z"/><path class="cls-1" d="M6.54,8a1,1,0,1,1,1-1A1,1,0,0,1,6.54,8Zm0-1.43A.46.46,0,1,0,7,7.06.46.46,0,0,0,6.54,6.59Z"/></g></svg>