<svg xmlns="http://www.w3.org/2000/svg" viewBox="0 0 654.1 177.19">
    <defs>
        <style>.cls-1{fill:#0b2659;}</style>
    </defs>
        <title>double-good-top-logo-10</title>
        <g id="font"><path class="cls-1" d="M652.93,130.82h-6.18v-7.88a.48.48,0,0,0-.48-.48h-.64a.48.48,0,0,0-.48.42c-.46,3.83-5.3,7.24-8.79,7.24q-2.64,0-3.66,0a7.17,7.17,0,0,1-1.7-.25,1.68,1.68,0,0,1-.64-.27,3.92,3.92,0,0,1-.09-1.21v-8.58c5.58,0,7.53.65,8,3.9a.48.48,0,0,0,.48.42h.59a.48.48,0,0,0,.48-.48V112.25a.48.48,0,0,0-.48-.48h-.59a.48.48,0,0,0-.48.42c-.43,3.36-1.19,5.43-8,5.53V107.44a3.92,3.92,0,0,1,.09-1.2.68.68,0,0,1,.33-.23,14.1,14.1,0,0,1,3.25-.38l3.75,0c2.9,0,5.84,2.46,5.84,4.23a.48.48,0,0,0,.48.48h.64a.48.48,0,0,0,.48-.48v-5.07a.48.48,0,0,0-.48-.48H619.37a.48.48,0,0,0-.48.48v.37a.48.48,0,0,0,.48.48h.49a2,2,0,0,0,.75.16,13.32,13.32,0,0,1,2.12.31,1.46,1.46,0,0,1,.38.14,3.4,3.4,0,0,1,.12,1.2v21a3.6,3.6,0,0,1-.1,1.15s-.1.13-.4.23l-.49.18c-.43.17-.64.25-2.88.25a.48.48,0,0,0-.48.48v.14h-3.59V120a.48.48,0,0,0-.48-.48h-.64a.48.48,0,0,0-.48.48c0,7.43-4,10.08-7.79,10.08a27.83,27.83,0,0,1-5.64-.38c-.24-.08-.32-.13-.34-.13a3.48,3.48,0,0,1-.12-1.25V107.43a3.14,3.14,0,0,1,.13-1.17,1.88,1.88,0,0,1,.52-.21,10.53,10.53,0,0,1,2.08-.31,5.43,5.43,0,0,0,.66-.08,7.51,7.51,0,0,1,1.36,0,.48.48,0,0,0,.48-.48v-.37a.48.48,0,0,0-.48-.48H589.49a.48.48,0,0,0-.48.48v.37a.48.48,0,0,0,.48.48,10.05,10.05,0,0,1,2.77.47c.28.08.39.14.4.14h0a3.5,3.5,0,0,1,.11,1.2v21a3.55,3.55,0,0,1-.1,1.15s-.09.13-.48.25a9,9,0,0,1-2.71.4.48.48,0,0,0-.48.48v.14h-8.84a10.79,10.79,0,0,0,3.13-1.68c1.82-1.42,2.75-3,2.75-4.66a6.11,6.11,0,0,0-2.44-5,13.92,13.92,0,0,0-5.88-2.46,11.36,11.36,0,0,0,4.85-2,4.9,4.9,0,0,0,1.7-4c0-1.48-.91-2.92-2.7-4.26a14.32,14.32,0,0,0-8.76-2.46H555.28a.48.48,0,0,0-.48.48v.37a.48.48,0,0,0,.48.48,8.83,8.83,0,0,1,3.86.55,3.16,3.16,0,0,1,.13,1.22v21a3.11,3.11,0,0,1-.12,1.24.79.79,0,0,1-.43.27l-.34.13c-.24.11-.4.17-3.09.17a.48.48,0,0,0-.48.48v.14H542.94c.34-.16.68-.31,1-.5a7.72,7.72,0,0,0,4.13-7.08V111c0-1.89,1.22-5.37,3.22-5.37a.48.48,0,0,0,.48-.48v-.37a.48.48,0,0,0-.48-.48h-9a.48.48,0,0,0-.48.48v.37a.48.48,0,0,0,.48.48c1.93,0,4.17,4.2,4.17,6.95v10.65a6.22,6.22,0,0,1-3.17,5.63,8.81,8.81,0,0,1-4.72,1.44c-2.92,0-4.95-.66-6-2-.9-1.07-1.36-2.93-1.36-5.53V107.42a3.06,3.06,0,0,1,.13-1.17,1.94,1.94,0,0,1,.52-.21,10,10,0,0,1,1.94-.3,1.25,1.25,0,0,0,.5-.12h.14a.48.48,0,0,0,.48-.48v-.37a.48.48,0,0,0-.48-.48H521.29a.48.48,0,0,0-.48.48v.37a.48.48,0,0,0,.48.48,6,6,0,0,1,1.66.11,1.83,1.83,0,0,0,.71.36c.24.08.33.14.34.13a3.34,3.34,0,0,1,.12,1.22v16.23c0,2.69,1.48,4.81,4.4,6.31a15.36,15.36,0,0,0,2,.85H506.47a16.64,16.64,0,0,0,4.45-2.58,13.21,13.21,0,0,0,0-20.79h0a16.34,16.34,0,0,0-10.3-3.49,16.11,16.11,0,0,0-10.3,3.66,13.21,13.21,0,0,0,0,20.79,16.2,16.2,0,0,0,4.28,2.41H470a15.84,15.84,0,0,0,5.57-2.78,12.15,12.15,0,0,0,4.76-10,12.4,12.4,0,0,0-5.36-10.3,16.8,16.8,0,0,0-10.34-3.48h-16.1a.48.48,0,0,0-.48.48v.37a.48.48,0,0,0,.48.48c1.88,0,2,.07,2.07.14a2.07,2.07,0,0,0,.69.33c.26.08.37.14.37.13a3.46,3.46,0,0,1,.12,1.21v21a4.88,4.88,0,0,1-.09,1.22h0a1.57,1.57,0,0,1-.46.19,10.56,10.56,0,0,1-2.06.29,1.41,1.41,0,0,0-.56.12.54.54,0,0,0-.57.48v.14h-4.31c-.64,0-1.16.25-1.16.56s.52.56,1.16.56h209.2c.64,0,1.16-.25,1.16-.56S653.58,130.82,652.93,130.82ZM566.28,107.4a6.08,6.08,0,0,1,.1-1.47c0-.06,0-.15.27-.21a6.25,6.25,0,0,1,1.4-.11h2.35c2.52,0,4.31.43,5.33,1.29s1.5,2.34,1.5,4.48a4.34,4.34,0,0,1-1.84,4,9.55,9.55,0,0,1-5,1h-4.08Zm0,10.34h5.35a7.43,7.43,0,0,1,5.49,1.86,6.7,6.7,0,0,1,1.69,4.9,5.63,5.63,0,0,1-1.44,4.13h0a6.63,6.63,0,0,1-4.9,1.61c-2.28,0-3.67,0-4.26,0a5.19,5.19,0,0,1-1.35-.2c-.34-.11-.44-.23-.46-.28a3.75,3.75,0,0,1-.12-1.33Zm-71.5-9.33a7,7,0,0,1,11.65,0c1.34,2.14,2,5.34,2,9.53s-.69,7.33-2.06,9.5a6.39,6.39,0,0,1-5.8,3.18,6.32,6.32,0,0,1-5.8-3.17c-1.34-2.18-2-5.38-2-9.51S493.45,110.54,494.78,108.4Zm-36-1a3.75,3.75,0,0,1,.11-1.3c0-.05.12-.15.42-.25a7.26,7.26,0,0,1,1.66-.2c.85,0,2.07-.06,3.61-.06A7.1,7.1,0,0,1,471,109c1.39,2.15,2.1,5.21,2.1,9.08,0,4.09-.7,7.18-2.07,9.19h0c-1.35,2-3.46,2.94-6.44,2.94l-3.31,0a7.91,7.91,0,0,1-2-.16c-.3-.1-.36-.24-.39-.29a3.83,3.83,0,0,1-.13-1.35Z"/><path class="cls-1" d="M592.46,166.75H574.61a16,16,0,0,0,5.64-2.83,12.39,12.39,0,0,0,4.82-10.14,12.63,12.63,0,0,0-5.42-10.48,16.93,16.93,0,0,0-10.46-3.55H553.4a.49.49,0,0,0-.49.49v.37a.49.49,0,0,0,.49.49c2.79,0,2.79.1,2.79,1.85v21.33c0,1.09-.43,1.42-.79,1.6a5.16,5.16,0,0,1-2,.25.49.49,0,0,0-.49.49v.14h-12.3a16.85,16.85,0,0,0,4.5-2.63,13.49,13.49,0,0,0,0-21.15,16.47,16.47,0,0,0-10.42-3.55,16.24,16.24,0,0,0-10.42,3.72,13.48,13.48,0,0,0,0,21.15,16.37,16.37,0,0,0,4.33,2.46H505.66a16.85,16.85,0,0,0,4.5-2.63,13.49,13.49,0,0,0,0-21.15,16.46,16.46,0,0,0-10.42-3.55,16.24,16.24,0,0,0-10.42,3.72,13.48,13.48,0,0,0,0,21.15,16.37,16.37,0,0,0,4.33,2.46H477.5v-8.21a3,3,0,0,1,.17-1.24,7.32,7.32,0,0,1,2.07-.56.49.49,0,0,0,.49-.49v-.38a.49.49,0,0,0-.49-.49H468.66a.49.49,0,0,0-.49.49v.38a.49.49,0,0,0,.49.49c.81,0,1.74.2,2,.63a3.91,3.91,0,0,1,.09,1.18v2.62a4.75,4.75,0,0,1-1.7,4,7.78,7.78,0,0,1-4.94,1.39,5.82,5.82,0,0,1-5.25-3.2c-1.32-2.21-2-5.43-2-9.58s.72-7.43,2.14-9.69a6.32,6.32,0,0,1,5.64-3.29,9.48,9.48,0,0,1,6.69,2.68,14.88,14.88,0,0,1,4.09,8.26.49.49,0,0,0,.48.4h.45a.49.49,0,0,0,.49-.49V139.91a.49.49,0,0,0-1-.13,3.45,3.45,0,0,1-1.6,2,2.41,2.41,0,0,1-2.13-.4,14.78,14.78,0,0,0-8.32-2,13.92,13.92,0,0,0-9.41,3,14.93,14.93,0,0,0-5.06,11.77c0,4.78,1.73,8.72,4.87,11.12a10.7,10.7,0,0,0,2.43,1.4H443.75c-.65,0-1.18.26-1.18.57s.53.57,1.18.57H592.46c.65,0,1.18-.26,1.18-.57S593.12,166.75,592.46,166.75Zm-29.17-23.8a3.76,3.76,0,0,1,.11-1.33.75.75,0,0,1,.42-.25,7.34,7.34,0,0,1,1.68-.21c.86,0,2.09-.06,3.65-.06a7.17,7.17,0,0,1,6.49,3.44c1.41,2.19,2.12,5.3,2.12,9.23,0,4.16-.7,7.3-2.09,9.35s-3.5,3-6.52,3l-3.34,0a7.88,7.88,0,0,1-2-.16c-.3-.1-.37-.24-.39-.29a3.91,3.91,0,0,1-.13-1.37Zm-34.51,1a7.07,7.07,0,0,1,11.79,0c1.35,2.18,2,5.44,2,9.69s-.7,7.45-2.09,9.67a6.46,6.46,0,0,1-5.87,3.23,6.38,6.38,0,0,1-5.87-3.23c-1.35-2.22-2-5.47-2-9.67S527.44,146.11,528.79,143.94Zm-34.95,0a7.07,7.07,0,0,1,11.79,0c1.35,2.18,2,5.44,2,9.69s-.7,7.45-2.09,9.67a6.46,6.46,0,0,1-5.87,3.23,6.38,6.38,0,0,1-5.87-3.23c-1.35-2.22-2-5.47-2-9.67S492.49,146.11,493.84,143.94Zm-23.06,21.88c.33-.27.67-.55,1-.81a4.23,4.23,0,0,1,2.55-.74,1.51,1.51,0,0,1,1.24.63,3.27,3.27,0,0,1,.51,1.86h-6.92C469.67,166.49,470.19,166.19,470.78,165.81Z"/><path class="cls-1" d="M519.31,70.55l-.1-.15a15,15,0,0,0-4.68-2.65h-.61l-.3.1a4,4,0,0,0-1.33,2h-8.48l-.31-.2-4.17-1.63h-.61l-.2.21v.25c-.07,1,0,1.4.1,1.07V76.3l-.1,13a1.35,1.35,0,0,0,1.12.87h1.53a4.87,4.87,0,0,0,2.75-1.53c0-.94.14-1.82.82-1.75h7.56l.61.51c-.14,1.8.24,1.91,1.12,1.73h1.73c1.63-.61,2.55-1.34,2.75-2v-.46c0-1.16-.1-14.25-.1-14.25l.92-1.38ZM513,85.16q.1.21-.71.87h-7.56c-.61-.44-.85-.73-.71-.87V71.52a1.21,1.21,0,0,1,.71-.66h7.56a1.8,1.8,0,0,1,.71.66Z"/><path class="cls-1" d="M537.74,67.75l-.3.1a4,4,0,0,0-1.33,2h-8.48l-.31-.2-4.18-1.63h-.61l-.2.21v.25c-.07,1,.1,7.78.1,7.78l-.1,13a1.35,1.35,0,0,0,1.12.87H525a4.87,4.87,0,0,0,2.75-1.53c0-.94.14-1.82.82-1.75h7.56l.61.51c-.14,1.8.24,1.91,1.12,1.73h1.73c1.63-.61,2.55-1.34,2.75-2v-.46c0-1.16-.1-14.25-.1-14.25l.92-1.38v-.51l-.1-.15a15,15,0,0,0-4.68-2.65Zm-.92,17.41q.1.21-.71.87h-7.56c-.61-.44-.85-.73-.71-.87V71.52a1.21,1.21,0,0,1,.71-.66h7.56a1.79,1.79,0,0,1,.71.66Z"/><path class="cls-1" d="M525.59,64.6c.2,1.8.42,1.52,1.17,1.42h1.53q2.85-1,2.85-2v-.25l.05-1.67V50.76a5.51,5.51,0,0,0,1.53-1.63v-.61l-.61-.92a18.79,18.79,0,0,0-4.58-2.24h-.82l-2.13,3.26h-9.36l-.41-.26L510,46.58h-.92l-.2.21.1,9.61-.1,10.06c.07.41.41.68,1,.81h1.73A6.16,6.16,0,0,0,514.19,66c-.13-1.87.13-1.76.82-1.76h10.18Zm-11.29-2V50.3a1.23,1.23,0,0,1,.71-.76h10.18a1.75,1.75,0,0,1,.71.76V62.56q.1.21-.71.76H515Q514.09,62.77,514.29,62.56Z"/><path class="cls-1" d="M449.79,13.66a26.94,26.94,0,0,1,4.46-.19q-1.52,10.21-2.66,15.14c-.38,1.68-.51,2.55-.38,2.61a2.64,2.64,0,0,0,1.14.52l2.18-.1q1.71-.1,2.18-2.47h.38l.57.38,1.9,1.8v.48a20.37,20.37,0,0,1-10.06,11.52v.43l.24.28.81-.09A32.1,32.1,0,0,0,462,35.73h.38l.85,1.61q.38,3.65,1.9,3.85h1.23l.19-.1a3,3,0,0,0,2-2A8.28,8.28,0,0,0,468.3,36a13.9,13.9,0,0,0-3.51-4.37v-.8l.09-.1,1.8-5.36q.48-3.6,1.71-3H476a1.57,1.57,0,0,1,.66.71V37.44c.06.12-.16.38-.66.76a29.67,29.67,0,0,1-5.5-.28l-.19.19v.48q3.23,1.52,3.8,3,.76,3.13,1.52,2.84h1.14l.19-.09a7.41,7.41,0,0,0,5.31-5.27V35.92l-.1-.1-.09-12.76a1.12,1.12,0,0,1,.66-.71h9.87c.44-.3.63-.52.57-.63v-.46q-2.66-3.51-4.27-4H488l-.19.19q-1.66,1.9-1.61,2.18c-.69,1.19-1.14,1.73-1.33,1.61h-2.18c-.57-.35-.79-.6-.66-.76V14A1.78,1.78,0,0,0,483,13v-.9l-.47-.57V11.2a16.3,16.3,0,0,1,6.73-3.89c2.21-.19,3.39-.54,3.51-1V5.51a11.19,11.19,0,0,0-5.6-4.79h-1l-1.85,2.42H481.2q-13,.09-13.09-.19l-.14.19v.27l.62,1.16a10.39,10.39,0,0,0,2.85-.33h12.05l.38.33v.28l-.09.24L482,8.41q-.95,2.33-1.23,2.23h-.38a10.37,10.37,0,0,0-4-.71l-.38.29v.09l.57,3V20.5c.06.16-.16.42-.66.76h-2.37c-3.79.06-5.69,0-5.69-.24v-.29a22.78,22.78,0,0,0,.66-3.36c.19-1.52.38-2.28.57-2.28,1.2-.63,1.74-1,1.61-1.23v-.48l-.38-.42a9.48,9.48,0,0,0-4.74-3.18h-.85l-1.9,2.66h-3.6a77.18,77.18,0,0,0,1.23-7.64q1.9-1.18,1.9-1.66V2.71l-.09-.09c-.06-.41-.63-.81-1.71-1.19A18.38,18.38,0,0,0,456.72.2h-.66l-.19.24V.9l.19.62v.66a53.83,53.83,0,0,1-1.71,10.25l-4.84-.1-.19.24v.28A1,1,0,0,0,449.79,13.66ZM456.91,27l1.24-7.83q.66-5.69.95-5.69H463a1.66,1.66,0,0,1,.66.67Q463,24.63,460.42,29h-.29l-1.8-.81c-1.08-.19-1.55-.38-1.43-.57Z"/><path class="cls-1" d="M498.44,173l.34,0h-.25Z"/><path class="cls-1" d="M498.95,173h0Z"/><path class="cls-1" d="M134.94,45.45A75.77,75.77,0,0,1,175,32.22h0l.66,0,.42,0h.08l161-6c-4.24-15.85-15.62-23.39-35-23.39l-2.55,0-202.4.89A73.67,73.67,0,0,1,134.94,45.45Z"/><path class="cls-1" d="M128.85,50.08A66.11,66.11,0,0,0,66.19,3.75h-.61l-.33,0H65.1A65.91,65.91,0,0,0,19.55,116.51a65.51,65.51,0,0,0,46.36,19.07h.36a67.16,67.16,0,0,0,37-11.68,75,75,0,0,1-1.64-13.71A76.15,76.15,0,0,1,128.85,50.08Z"/><path class="cls-1" d="M380.47,32h-1l-33.52,1.26-1.78.07H344l-1.66.06h-.23l-1.64.06h-.11l-1.75.07L208.13,38.44a75.83,75.83,0,0,1,45.08,58.42c.09.58.23,1.16.3,1.75,0,0,0,.07,0,.11.07.55.1,1.1.15,1.65,0,0,0,.08,0,.12s0,0,0,0c.06.59.08,1.17.13,1.74v.06c0,.59.1,1.18.13,1.77,0,.84.16,1.66.18,2.51a75.62,75.62,0,0,1-16.8,49.49L388.85,87.43c15.07-7.58,22.51-17.63,22.06-29.84C410.55,48,406.12,32,380.47,32Z"/><path class="cls-1" d="M246.59,105.69c0-.6-.09-1.18-.13-1.78,0,0,0,0,0,0,0-.6-.07-1.17-.13-1.74,0,0,0,0,0-.06V102c-.05-.55-.05-1.11-.12-1.66,0,0,0-.08,0-.12-.07-.59-.2-1.16-.28-1.75a68.69,68.69,0,0,0-68-58.82l-1.31,0h-.35l-.24,0-.28,0a68.33,68.33,0,0,0-38.6,13.39c-.51.38-1,.79-1.51,1.18l-.09.07c-.48.38-1,.74-1.43,1.13l-.1.08-.11.09c-.49.41-1,.8-1.45,1.22l-.12.11c-.54.48-1,1-1.56,1.48A68.57,68.57,0,0,0,109.13,110a67.54,67.54,0,0,0,.81,8.57c.11.69.24,1.38.36,2.06l0,.17c.12.63.2,1.27.33,1.9,0,.06,0,.12,0,.17l0,.09c.14.62.3,1.22.45,1.83l0,.07c.15.62.34,1.22.51,1.82l.13.48c.16.57.3,1.15.48,1.71l0,.11c.17.53.33,1.06.51,1.58l0,.11,0,.1c.19.53.42,1,.61,1.57l0,.1c.21.56.43,1.12.65,1.67a69.38,69.38,0,0,0,56.58,42.66l-.24.07-.06,0h0l-.4.18a1.52,1.52,0,0,0-.19.14l.62-.17h0l.08,0,.43-.2a67.51,67.51,0,0,0,6.83.39l1.63,0a69.11,69.11,0,0,0,17.27-2.67l.24-.07a67.82,67.82,0,0,0,18.18-8.28,69.12,69.12,0,0,0,12.48-10.26,68.35,68.35,0,0,0,19-49.11C246.66,106.41,246.61,106.05,246.59,105.69Z"/><path class="cls-1" d="M500,5h15.29c.45-.31.65-.51.58-.6V4.06l-.1-.24A10.09,10.09,0,0,0,511.3.2h-1.07l-.19.2-2.52,3.53H505.4q-7.07.14-7.16-.19l-.19.19v.51l.48.8A3.09,3.09,0,0,0,500,5Z"/><path class="cls-1" d="M508.19,29.38h-.26a10.58,10.58,0,0,1-4.17-.87V43.66a2,2,0,0,0,1.45,1h2.13a3.09,3.09,0,0,0,1.65-1l-.1-5.66q0-1.45-.1-1.07V29.31C508.59,29.32,508.39,29.38,508.19,29.38Z"/><path class="cls-1" d="M497.27,39.49l.68-.82a29,29,0,0,0,4.45-10.86,10.7,10.7,0,0,1-1.82-1.38,10.6,10.6,0,0,1-2.51-3.73,70.73,70.73,0,0,1-1.66,16.51l.39.29Z"/><path class="cls-1" d="M519,5.47c0,.77,0,1.43,0,2.16l5.12-.19v-3a1.16,1.16,0,0,1,.68-.72h8.52a1.66,1.66,0,0,1,.68.72V7.08l.69,0a5.49,5.49,0,0,1,4.44,1.79V6.15a7.33,7.33,0,0,0,1.45-1.69V3.54A12,12,0,0,0,535.6.39h-.87L533,2.77h-8.23a20.81,20.81,0,0,0-5.13-1.65H519l-.39.29A11.91,11.91,0,0,1,519,5.47Z"/><path class="cls-1" d="M540,35.84h-.58l-.29.49a3.78,3.78,0,0,1-2.82,2.34h-.68c-.52-.26-.77-.55-.77-.87V27.4l.77.34h1.74a2.57,2.57,0,0,0,1.93-1.16l-.1-5.91q0-1.45-.1-1.07V15.37a7.91,7.91,0,0,1-2.64,2L534,18.51v6.22c.06.16-.16.42-.68.77h-8.52c-.58-.36-.81-.61-.68-.77V23l-5.19,2.35a10.44,10.44,0,0,1-.14,2.11,1.26,1.26,0,0,0,1,.58h1.55l1.36-.48a22.48,22.48,0,0,1-1.07,6.29q-2.52,7.36-10.84,10v.63l.19.19h1.26a20,20,0,0,0,7.16-2.23q7.26-3.29,8.23-12.87-.19-3.29.77-3.1h.77a1.65,1.65,0,0,1,.68.73V41.29q1,2.71,3.39,2.71h4.16q4.26-.44,4.55-3.29v-.48A30.88,30.88,0,0,0,540.17,36Z"/><path class="cls-1" d="M513.38,27.84a10.5,10.5,0,0,1-2.15,1l-.24.11a1.07,1.07,0,0,1-.17,0v6.61a1.69,1.69,0,0,0,1.26,1h1.55l.19-.1q.19.19,1.84-1.11a38.63,38.63,0,0,0-.19-5.47v-3Z"/><path class="cls-1" d="M518.94,22.9l5.14-2.33L534,16.09l1.54-.7c1.74-.88,2.6-2,2.55-3.35,0-1-.54-2.78-3.4-2.78h-.19l-.5,0-9.87.37L519,9.84,515,10l-1,0a11,11,0,0,1,1.25,1,10.53,10.53,0,0,1,2.06,12.61Z"/><path class="cls-1" d="M510.28,10.63a8.41,8.41,0,0,0-2.33-.37h-.22a8.39,8.39,0,0,0-5.35,2.13c-.19.16-.39.3-.57.49l-.06.08a8.35,8.35,0,0,0-2.19,4.9,8.54,8.54,0,0,0-.08,1.05,8.37,8.37,0,0,0,2.62,5.92c.16.15.34.27.51.4a8.6,8.6,0,0,0,1.15.81,8,8,0,0,0,4.38,1.12c.22,0,.43-.06.65-.08a8.48,8.48,0,0,0,1.57-.31h0l.43-.14a8.27,8.27,0,0,0,1.63-.79,8.43,8.43,0,0,0,1.61-1.28,8.41,8.41,0,0,0,1.41-2.08,8.3,8.3,0,0,0,.8-2.35,8.73,8.73,0,0,0,.09-1.24c0-.13,0-.25,0-.37a8.34,8.34,0,0,0-1.83-5,8.61,8.61,0,0,0-.78-.9A8.38,8.38,0,0,0,510.28,10.63Z"/><path class="cls-1" d="M452,90.07l1.72-.91q11.65-4.4,19.78-7h.67l2,2.11a37,37,0,0,0,8.5,5.64h1.05a13.49,13.49,0,0,1,5.35-4.78v-.67q-8.89-1.76-14-6v-.09a41.52,41.52,0,0,0,9.74-4.21l2.1.1a1.16,1.16,0,0,0,.76-.77v-.28l-.19-.43q-2.58-3.59-4.49-4.54h-.76l-.09.14-1.43,2q-5,5.88-6.88,6.84h-.1A18.88,18.88,0,0,1,470.53,69v-.33h5.73c.45.8.89,1.19,1.34,1.19h2.87l.09-.09c.25.13.89-.16,1.91-.86V67.14c0-1.08-.1-11.28-.1-11.28a2.42,2.42,0,0,0,1.15-1.24V53.57a8.3,8.3,0,0,0-5.11-2.77h-1l-.29.19a6.22,6.22,0,0,0-1.63,2.48h-3.73c-.57-.38-.8-.63-.67-.76V49a3,3,0,0,0,1.34-1.34v-.57a1.19,1.19,0,0,0-.57-.57,22.63,22.63,0,0,0-5.45-1.05h-1.34a1.2,1.2,0,0,0-.57.62l.38,1.67v5c.06.13-.16.38-.67.76h-3.44l-.1-.09a37.64,37.64,0,0,0-5.73-2h-.58l-.43.38v.33l.62,3V82l-.19.2a23.23,23.23,0,0,1-4.59.19c-1.31-.13-1.88,0-1.72.43v.62a21.67,21.67,0,0,0,3.44,6.59Zm24.75-23.31c.06.13-.16.38-.67.76H460.88l-.16-.13,16-8.2ZM460.21,55.25a1.18,1.18,0,0,1,.67-.67h15.19c.09,0,.15.17.24.24l-16.1,8.24Zm0,14.09a1,1,0,0,1,.67-.62H469l.38,3.3q1.53,5.83,3.44,8.22v.52l-.19.19-2.77.33q-9.27,1-9.36.76l-.29-.28Z"/></g></svg>