<svg xmlns="http://www.w3.org/2000/svg" viewBox="0 0 332.83 80.13"><defs><style>.cls-1{fill:#00256a;}</style></defs><title>footer-logo</title><g id="font"><path class="cls-1" d="M262.64,35h0Z"/><path class="cls-1" d="M262.64,35l-.14.06-.07,0,.22-.06Z"/><path class="cls-1" d="M262.66,35h0V35h0l.33-.15Z"/><path class="cls-1" d="M262.65,35.05h0Z"/><path class="cls-1" d="M66.63,65v-.4l-.08-.12a11.87,11.87,0,0,0-3.72-2.1h-.49l-.24.08A3.2,3.2,0,0,0,61.05,64H54.32l-.24-.16-3.31-1.3h-.48l-.16.16v.2c-.05.83,0,1.12.08.85v5.33l-.08,10.31a1.07,1.07,0,0,0,.89.69h1.21a3.87,3.87,0,0,0,2.18-1.21c0-.75.11-1.44.65-1.39h6l.49.4c-.11,1.43.19,1.51.89,1.38H63.8c1.29-.49,2-1.07,2.18-1.57v-.36c0-.92-.08-11.31-.08-11.31Zm-5,11.19q.08.16-.57.69h-6c-.48-.35-.68-.58-.57-.69V65.33a1,1,0,0,1,.57-.52h6a1.43,1.43,0,0,1,.57.52Z"/><path class="cls-1" d="M85.53,65v-.4l-.08-.12a11.87,11.87,0,0,0-3.72-2.1h-.49l-.24.08A3.2,3.2,0,0,0,80,64H73.23L73,63.87l-3.31-1.3h-.48l-.16.16v.2c-.05.83.08,6.18.08,6.18L69,79.44a1.07,1.07,0,0,0,.89.69h1.21a3.87,3.87,0,0,0,2.18-1.21c0-.75.11-1.44.65-1.39h6l.49.4c-.11,1.43.19,1.51.89,1.38H82.7c1.29-.49,2-1.07,2.18-1.57v-.36c0-.92-.08-11.31-.08-11.31Zm-5,11.19q.08.16-.57.69H74c-.48-.35-.68-.58-.57-.69V65.33A1,1,0,0,1,74,64.8h6a1.43,1.43,0,0,1,.57.52Z"/><path class="cls-1" d="M59.17,62h1.37a4.89,4.89,0,0,0,2-1c-.11-1.48.11-1.4.65-1.4h8.08l.32.28c.16,1.43.33,1.21.93,1.13h1.21Q76,60.2,76,59.39v-.2l0-1.33v-9a4.36,4.36,0,0,0,1.21-1.29v-.49l-.48-.73a14.89,14.89,0,0,0-3.64-1.78H72.5L70.8,47.16H63.37L63,47l-3.8-1.42h-.73l-.16.16.08,7.63-.08,8C58.42,61.64,58.68,61.85,59.17,62Zm3.47-13.47a1,1,0,0,1,.57-.61h8.08a1.4,1.4,0,0,1,.57.61v9.73q.08.16-.57.61H63.21q-.73-.44-.57-.61Z"/><path class="cls-1" d="M5.34-.16h.53a14.61,14.61,0,0,1,3,1c.85.3,1.3.62,1.36.94l.07.07v.34q0,.37-1.51,1.31a61.37,61.37,0,0,1-1,6.06h2.86L12.2,7.45h.68A7.53,7.53,0,0,1,16.64,10l.3.34v.38c.1.15-.33.48-1.28,1-.15,0-.3.6-.45,1.81a18,18,0,0,1-.53,2.67v.23c0,.17,1.51.24,4.52.19h1.88c.4-.28.58-.48.53-.61V10.22l-.45-2.34V7.8l.3-.23a8.23,8.23,0,0,1,3.16.57h.3q.23.08,1-1.77l1.43-2.64.07-.19V3.31L27.11,3H17.54a8.24,8.24,0,0,1-2.26.26l-.49-.92V2.18L14.91,2q.07.22,10.39.15h2.48L29.25.26H30a8.88,8.88,0,0,1,4.44,3.8v.61c-.1.4-1,.68-2.79.83a12.93,12.93,0,0,0-5.34,3.09v.3l.37.45V10a1.41,1.41,0,0,1-.75.72V16c-.1.12.07.33.53.6h1.73c.15.1.5-.33,1.05-1.28q0-.23,1.28-1.73l.15-.15h.68q1.28.37,3.39,3.16v.36c.05.09-.1.26-.45.5H26.51A.89.89,0,0,0,26,18l.07,10.12.08.08v2.52a5.88,5.88,0,0,1-4.22,4.18l-.15.07h-.9q-.6.23-1.2-2.26c-.3-.8-1.31-1.6-3-2.41v-.38l.15-.15a23.55,23.55,0,0,0,4.37.22c.4-.3.58-.5.53-.6V18a1.25,1.25,0,0,0-.53-.57h-6q-1-.45-1.36,2.41l-1.43,4.25-.07.08v.64a11,11,0,0,1,2.79,3.46,6.56,6.56,0,0,1,.22,2.45,2.38,2.38,0,0,1-1.58,1.58l-.15.08h-1q-1.2-.15-1.51-3.05L10.39,28h-.3A25.47,25.47,0,0,1,1,34.6l-.64.07-.19-.22V34.1a16.17,16.17,0,0,0,8-9.15v-.38L6.63,23.15l-.45-.3h-.3q-.37,1.88-1.73,2l-1.73.08a2.1,2.1,0,0,1-.9-.41c-.1-.05,0-.74.3-2.07q.91-3.91,2.11-12a21.34,21.34,0,0,0-3.54.15A.77.77,0,0,1,0,9.89V9.67l.15-.19L4,9.56A42.7,42.7,0,0,0,5.34,1.42V.9L5.19.41V0ZM7.75,10.42q-.23,0-.75,4.52L6,21.15v.49c-.1.15.28.31,1.13.45l1.43.64h.23q2-3.5,2.56-11.78a1.31,1.31,0,0,0-.53-.53Z"/><path class="cls-1" d="M52.94,3.69H65.07q.54-.37.46-.48V2.91l-.08-.19A8,8,0,0,0,61.92-.16h-.85L60.93,0l-2,2.8H57.24q-5.61.11-5.68-.15l-.15.15v.4l.38.63A2.46,2.46,0,0,0,52.94,3.69Z"/><path class="cls-1" d="M59.24,23a8.4,8.4,0,0,1-3.31-.69v12a1.57,1.57,0,0,0,1.15.81h1.69a2.45,2.45,0,0,0,1.31-.81L60,29.84q0-1.15-.08-.85v-6c-.16,0-.32.05-.48.06Z"/><path class="cls-1" d="M51.41,17.7a56.14,56.14,0,0,1-1.32,13.1l.31.23h.38l.54-.65a23,23,0,0,0,3.53-8.62,8.17,8.17,0,0,1-3.44-4.06Z"/><path class="cls-1" d="M72.07,3.23a.92.92,0,0,1,.54-.58h6.76a1.32,1.32,0,0,1,.54.58V5.3l.55,0A4.36,4.36,0,0,1,84,6.7V4.57a5.82,5.82,0,0,0,1.15-1.34V2.5A9.52,9.52,0,0,0,81.21,0h-.69L79.13,1.88H72.6A16.53,16.53,0,0,0,68.53.58H68l-.31.23A9.45,9.45,0,0,1,68,4c0,.61,0,1.14,0,1.71l4.07-.15Z"/><path class="cls-1" d="M84.83,28.29l-.15-.16h-.46l-.23.39a3,3,0,0,1-2.24,1.86h-.54c-.41-.21-.61-.44-.61-.69V21.43l.61.27h1.38a2,2,0,0,0,1.54-.92L84,16.09q0-1.15-.08-.85V11.89a6.28,6.28,0,0,1-2.1,1.59l-2,.9v4.94c.05.13-.13.33-.54.61H72.6q-.69-.42-.54-.61V17.93L68,19.8a8.28,8.28,0,0,1-.11,1.67,1,1,0,0,0,.77.46h1.23l1.08-.38a17.84,17.84,0,0,1-.85,5q-2,5.84-8.6,8V35l.15.15h1a15.84,15.84,0,0,0,5.69-1.77q5.76-2.61,6.53-10.22-.15-2.61.61-2.46h.61a1.31,1.31,0,0,1,.54.58V32.46a2.76,2.76,0,0,0,2.69,2.15h3.3Q86,34.26,86.2,32v-.38A24.5,24.5,0,0,0,84.83,28.29Z"/><path class="cls-1" d="M61.87,22.56l-.19.09-.14,0v5.25a1.34,1.34,0,0,0,1,.77h1.23l.15-.08q.15.15,1.46-.88a30.69,30.69,0,0,0-.15-4.34V21l-1.65.75A8.3,8.3,0,0,1,61.87,22.56Z"/><path class="cls-1" d="M79.9,12.46l1.22-.55c1.38-.7,2.06-1.59,2-2.66,0-.82-.43-2.2-2.7-2.2H79.9l-7.83.29L68,7.5l-3.14.12-.77,0a8.76,8.76,0,0,1,1,.78,8.35,8.35,0,0,1,1.64,10L68,17.86,72.07,16Z"/><path class="cls-1" d="M63.88,9.69a7.11,7.11,0,0,0-4.62-1.85h-.17a6.66,6.66,0,0,0-4.24,1.69c-.15.13-.31.24-.45.39l-.05.07a6.63,6.63,0,0,0-1.74,3.89,6.9,6.9,0,0,0-.06.83,6.65,6.65,0,0,0,2.08,4.7c.13.12.27.21.41.32a6.8,6.8,0,0,0,.91.64,6.31,6.31,0,0,0,3.48.89c.18,0,.35,0,.52-.06a6.69,6.69,0,0,0,1.24-.24h0l.34-.15,1.29-.58a6.71,6.71,0,0,0,1.28-1,6.69,6.69,0,0,0,1.12-1.65,6.6,6.6,0,0,0,.64-1.86,6.84,6.84,0,0,0,.07-1c0-.1,0-.2,0-.3a6.62,6.62,0,0,0-1.46-4A6.74,6.74,0,0,0,63.88,9.69Z"/><path class="cls-1" d="M61.2,20.94l.34-.11v0Z"/><path class="cls-1" d="M61.54,20.82a6.6,6.6,0,0,0,1.29-.63l-1.29.58Z"/><path class="cls-1" d="M23.73,70.8v-.08a33,33,0,0,0,7.73-3.34l1.67.08a.92.92,0,0,0,.61-.61v-.23l-.15-.34A11.49,11.49,0,0,0,30,62.69h-.61l-.08.11L28.2,64.39q-3.94,4.67-5.46,5.43h-.08a15,15,0,0,1-4.17-6.45v-.26H23c.35.63.71.95,1.06.95h2.28l.08-.07c.2.1.71-.12,1.52-.68V61.86c0-.86-.08-9-.08-9a1.92,1.92,0,0,0,.91-1v-.83a6.59,6.59,0,0,0-4.06-2.2H24l-.23.15a4.94,4.94,0,0,0-1.29,2h-3c-.45-.3-.63-.5-.53-.6v-3A2.38,2.38,0,0,0,20,46.39v-.45a.94.94,0,0,0-.45-.45,18,18,0,0,0-4.32-.83H14.17a1,1,0,0,0-.45.49l.3,1.33V50.4c.05.1-.13.3-.53.6H10.76l-.08-.08a29.92,29.92,0,0,0-4.55-1.59H5.68l-.34.3v.26l.49,2.39V73.68l-.15.15A18.37,18.37,0,0,1,2,74c-1-.1-1.49,0-1.37.34v.49A17.21,17.21,0,0,0,3.4,80.06h.38l1.37-.72q9.25-3.49,15.7-5.58h.53L23,75.43a29.41,29.41,0,0,0,6.75,4.47h.83a10.7,10.7,0,0,1,4.25-3.79v-.53Q27.74,74.18,23.73,70.8Zm-.84-8.65H10.83l-.12-.1,12.71-6.51v6C23.47,61.65,23.29,61.86,22.89,62.16ZM10.83,51.88H22.89c.07,0,.12.13.19.19L10.3,58.61V52.42A.93.93,0,0,1,10.83,51.88Zm9.48,20.78-.15.15-2.2.26a67.39,67.39,0,0,1-7.43.6l-.23-.22V63.6a.8.8,0,0,1,.53-.49h6.45l.3,2.62a18.38,18.38,0,0,0,2.73,6.53Z"/><path class="cls-1" d="M331.08,35H122.2c-.64,0-1.16-.25-1.16-.56s.52-.56,1.16-.56H331.08c.64,0,1.16.25,1.16.56S331.73,35,331.08,35Z"/><path class="cls-1" d="M331.66,70.57H122.2c-.64,0-1.16-.25-1.16-.56s.52-.56,1.16-.56H331.66c.64,0,1.16.25,1.16.56S332.31,70.57,331.66,70.57Z"/><path class="cls-1" d="M158.57,58.3H147.69a.48.48,0,0,0-.48.48v.37a.48.48,0,0,0,.48.48c.8,0,1.71.19,2,.61a3.79,3.79,0,0,1,.08,1.15V64a4.67,4.67,0,0,1-1.67,3.92,7.64,7.64,0,0,1-4.85,1.37,5.71,5.71,0,0,1-5.15-3.14c-1.29-2.17-1.95-5.33-1.95-9.4s.71-7.29,2.1-9.51A6.21,6.21,0,0,1,143.76,44a9.31,9.31,0,0,1,6.57,2.63,14.6,14.6,0,0,1,4,8.1.48.48,0,0,0,.47.39h.44a.48.48,0,0,0,.48-.48V43.12a.48.48,0,0,0-.41-.47.48.48,0,0,0-.53.34,3.39,3.39,0,0,1-1.57,2,2.36,2.36,0,0,1-2.09-.4A14.51,14.51,0,0,0,143,42.64a13.66,13.66,0,0,0-9.24,3,14.65,14.65,0,0,0-5,11.55c0,4.69,1.7,8.56,4.78,10.91,2.84,2.19,6.26,2.49,9.52,2.49a12.45,12.45,0,0,0,3.49-.39,14.06,14.06,0,0,0,3.22-1.64c.32-.27.66-.54,1-.8a4.15,4.15,0,0,1,2.5-.73,1.48,1.48,0,0,1,1.22.62,3.37,3.37,0,0,1,.53,2.09.48.48,0,0,0,.48.48h.39a.48.48,0,0,0,.48-.48V61.39a2.93,2.93,0,0,1,.17-1.21,7.19,7.19,0,0,1,2-.55.48.48,0,0,0,.48-.48v-.37A.48.48,0,0,0,158.57,58.3Z"/><path class="cls-1" d="M188.41,46.12a16.16,16.16,0,0,0-10.22-3.48A15.94,15.94,0,0,0,168,46.29,13.23,13.23,0,0,0,168,67a16,16,0,0,0,10.22,3.53,15.83,15.83,0,0,0,10.23-3.7,13.24,13.24,0,0,0,0-20.76Zm-16,20c-1.33-2.18-2-5.37-2-9.49s.67-7.38,2-9.51a6.94,6.94,0,0,1,11.57,0c1.33,2.14,2,5.34,2,9.51s-.69,7.31-2,9.49a6.34,6.34,0,0,1-5.76,3.17A6.27,6.27,0,0,1,172.4,66.08Z"/><path class="cls-1" d="M222.71,46.12a16.16,16.16,0,0,0-10.22-3.48,15.94,15.94,0,0,0-10.23,3.65,13.23,13.23,0,0,0,0,20.75,16,16,0,0,0,10.22,3.53,15.83,15.83,0,0,0,10.23-3.7,13.24,13.24,0,0,0,0-20.76Zm-16,20c-1.33-2.18-2-5.37-2-9.49s.67-7.38,2-9.51a6.94,6.94,0,0,1,11.57,0c1.33,2.14,2,5.34,2,9.51s-.69,7.31-2,9.49a6.34,6.34,0,0,1-5.76,3.17A6.27,6.27,0,0,1,206.7,66.08Z"/><path class="cls-1" d="M256.61,46.44A16.62,16.62,0,0,0,246.35,43H230.85a.48.48,0,0,0-.48.48v.36a.48.48,0,0,0,.48.48c2.74,0,2.74.1,2.74,1.81V67c0,1.07-.42,1.4-.78,1.57a5.07,5.07,0,0,1-2,.24.48.48,0,0,0-.48.48v.41a.48.48,0,0,0,.48.48H246.3a17.05,17.05,0,0,0,10.91-3.53,12.15,12.15,0,0,0,4.73-10A12.4,12.4,0,0,0,256.61,46.44ZM240.69,68.38a3.85,3.85,0,0,1-.13-1.34V46.1a3.71,3.71,0,0,1,.11-1.3.74.74,0,0,1,.41-.25,7.21,7.21,0,0,1,1.65-.2c.85,0,2.05-.06,3.58-.06a7,7,0,0,1,6.37,3.38c1.38,2.15,2.08,5.2,2.08,9.06,0,4.08-.69,7.17-2.05,9.17s-3.43,2.94-6.4,2.94l-3.28,0a7.74,7.74,0,0,1-2-.16C240.78,68.56,240.72,68.43,240.69,68.38Z"/><path class="cls-1" d="M153.24,10.85A16.62,16.62,0,0,0,143,7.37H127a.48.48,0,0,0-.48.48v.36a.48.48,0,0,0,.48.48c1.86,0,2,.07,2.06.14a2,2,0,0,0,.68.33c.26.08.37.14.37.13a3.46,3.46,0,0,1,.12,1.21V31.44a5,5,0,0,1-.09,1.22h0a1.58,1.58,0,0,1-.45.19,10.39,10.39,0,0,1-2,.29,1.39,1.39,0,0,0-.55.12.54.54,0,0,0-.57.48v.41a.48.48,0,0,0,.48.48h15.94a17.05,17.05,0,0,0,10.91-3.53,12.15,12.15,0,0,0,4.73-10A12.4,12.4,0,0,0,153.24,10.85ZM137.31,32.78a3.87,3.87,0,0,1-.13-1.35V10.5a3.75,3.75,0,0,1,.11-1.3c0-.05.12-.15.41-.25a7.18,7.18,0,0,1,1.65-.2c.85,0,2.05-.06,3.58-.06a7,7,0,0,1,6.37,3.38c1.38,2.15,2.08,5.2,2.08,9.06,0,4.08-.69,7.17-2.05,9.17h0c-1.34,2-3.43,2.94-6.4,2.94l-3.28,0a7.81,7.81,0,0,1-2-.16C137.4,33,137.34,32.83,137.31,32.78Z"/><path class="cls-1" d="M188.92,10.53h0A16.16,16.16,0,0,0,178.69,7a15.94,15.94,0,0,0-10.23,3.65,12.71,12.71,0,0,0-5,10.27,12.83,12.83,0,0,0,5,10.48A16,16,0,0,0,178.69,35a15.83,15.83,0,0,0,10.23-3.7,12.82,12.82,0,0,0,5-10.32A12.73,12.73,0,0,0,188.92,10.53Zm-16,20c-1.33-2.18-2-5.37-2-9.49s.67-7.38,2-9.51a6.94,6.94,0,0,1,11.57,0c1.33,2.14,2,5.34,2,9.51s-.69,7.31-2,9.49a6.34,6.34,0,0,1-5.76,3.17A6.27,6.27,0,0,1,172.91,30.49Z"/><path class="cls-1" d="M229,7.37h-9a.48.48,0,0,0-.48.48v.36a.48.48,0,0,0,.48.48c1.92,0,4.14,4.2,4.14,6.94V26.27A6.22,6.22,0,0,1,221,31.89a8.71,8.71,0,0,1-4.68,1.44c-2.9,0-4.91-.66-6-2-.9-1.07-1.35-2.93-1.35-5.52V10.5a3.07,3.07,0,0,1,.13-1.17,1.9,1.9,0,0,1,.51-.21,9.9,9.9,0,0,1,1.93-.3,1.23,1.23,0,0,0,.5-.12h.13a.48.48,0,0,0,.48-.48V7.85a.48.48,0,0,0-.48-.48h-13a.48.48,0,0,0-.48.48v.36a.48.48,0,0,0,.48.48,5.89,5.89,0,0,1,1.64.11,1.83,1.83,0,0,0,.7.36c.24.08.33.14.33.13A3.34,3.34,0,0,1,202,10.5V26.7c0,2.68,1.47,4.8,4.37,6.3a20.56,20.56,0,0,0,9.46,2,11.6,11.6,0,0,0,5.86-1.62,7.71,7.71,0,0,0,4.1-7.07V14.05c0-1.89,1.21-5.36,3.2-5.36a.48.48,0,0,0,.48-.48V7.85A.48.48,0,0,0,229,7.37Z"/><path class="cls-1" d="M261.08,22.55a13.77,13.77,0,0,0-5.84-2.46,11.25,11.25,0,0,0,4.81-2,4.9,4.9,0,0,0,1.69-4c0-1.48-.9-2.91-2.68-4.25a14.15,14.15,0,0,0-8.7-2.46H233a.48.48,0,0,0-.48.48v.36a.48.48,0,0,0,.48.48,8.72,8.72,0,0,1,3.83.55,3.18,3.18,0,0,1,.13,1.22v21a3.13,3.13,0,0,1-.12,1.24.79.79,0,0,1-.42.27l-.34.13c-.24.1-.4.17-3.07.17a.48.48,0,0,0-.48.48v.41a.48.48,0,0,0,.48.48h20.18a12,12,0,0,0,7.63-2.43c1.81-1.42,2.73-3,2.73-4.65A6.12,6.12,0,0,0,261.08,22.55Zm-8.14-4.11a9.44,9.44,0,0,1-5,1H243.9v-9A6.07,6.07,0,0,1,244,9c0-.06,0-.15.27-.21a6.12,6.12,0,0,1,1.39-.11H248c2.5,0,4.28.43,5.29,1.29s1.49,2.34,1.49,4.48A4.34,4.34,0,0,1,252.94,18.44ZM244.47,33c-.34-.11-.44-.23-.46-.27a3.79,3.79,0,0,1-.12-1.33V20.8h5.31a7.35,7.35,0,0,1,5.45,1.86,6.71,6.71,0,0,1,1.68,4.9,5.64,5.64,0,0,1-1.43,4.12h0A6.56,6.56,0,0,1,250,33.29c-2.26,0-3.64,0-4.23,0A5.11,5.11,0,0,1,244.47,33Z"/><path class="cls-1" d="M292.08,22.62h-.64a.48.48,0,0,0-.48.48c0,7.42-4,10.07-7.73,10.07a27.53,27.53,0,0,1-5.6-.38c-.24-.08-.32-.13-.33-.13a3.49,3.49,0,0,1-.12-1.25V10.5a3.14,3.14,0,0,1,.13-1.17,1.84,1.84,0,0,1,.51-.21,10.43,10.43,0,0,1,2.07-.31,5.46,5.46,0,0,0,.66-.08,7.38,7.38,0,0,1,1.35,0,.48.48,0,0,0,.48-.48V7.85a.48.48,0,0,0-.48-.48h-15a.48.48,0,0,0-.48.48v.36a.48.48,0,0,0,.48.48,9.91,9.91,0,0,1,2.75.47c.27.08.38.14.4.14h0a3.5,3.5,0,0,1,.11,1.2V31.44a3.54,3.54,0,0,1-.1,1.15s-.09.13-.48.25a8.82,8.82,0,0,1-2.69.4.48.48,0,0,0-.48.48v.41a.48.48,0,0,0,.48.48h25.14a.48.48,0,0,0,.48-.48v-11A.48.48,0,0,0,292.08,22.62Z"/><path class="cls-1" d="M323.31,25.51h-.64a.48.48,0,0,0-.48.42c-.46,3.83-5.26,7.23-8.73,7.23q-2.62,0-3.64,0a7.05,7.05,0,0,1-1.69-.25,1.65,1.65,0,0,1-.63-.27,3.88,3.88,0,0,1-.09-1.21V22.83c5.54,0,7.47.65,7.9,3.89a.48.48,0,0,0,.48.42h.59a.48.48,0,0,0,.48-.48V15.32a.48.48,0,0,0-.48-.48h-.59a.48.48,0,0,0-.48.42c-.43,3.36-1.19,5.43-7.9,5.52V10.51a3.9,3.9,0,0,1,.09-1.2.67.67,0,0,1,.32-.22,13.91,13.91,0,0,1,3.23-.38l3.72,0c2.88,0,5.8,2.45,5.8,4.22a.48.48,0,0,0,.48.48h.64a.48.48,0,0,0,.48-.48V7.85a.48.48,0,0,0-.48-.48H296.6a.48.48,0,0,0-.48.48v.36a.48.48,0,0,0,.48.48h.49a1.94,1.94,0,0,0,.75.16,13.07,13.07,0,0,1,2.11.31,1.45,1.45,0,0,1,.38.14,3.43,3.43,0,0,1,.11,1.2V31.44a3.6,3.6,0,0,1-.1,1.15.76.76,0,0,1-.4.23l-.49.18c-.42.17-.64.25-2.86.25a.48.48,0,0,0-.48.48v.41a.48.48,0,0,0,.48.48h26.71a.48.48,0,0,0,.48-.48V26A.48.48,0,0,0,323.31,25.51Z"/><path class="cls-1" d="M177,75.62l-.08,0,.33,0Z"/><path class="cls-1" d="M177.57,75.61h0Z"/></g></svg>