<svg xmlns="http://www.w3.org/2000/svg" viewBox="0 0 153.18 153.18"><title>goodgoods</title><g id="font"><path d="M49.26,0h54.26c2.18.18,4.36.44,6.55.54,24,1.17,39.39,15.47,42.21,39.25.39,3.28.6,6.57.9,9.86v54.26c-.18,2.11-.39,4.21-.54,6.32-.73,10.8-3.49,20.82-11,29.07-8.45,9.31-19.38,13.39-31.51,13.6-22.49.39-45,.35-67.5,0C31.93,152.75,22,149.46,13.84,142,4.54,133.57.48,122.64.27,110.51-.11,88-.06,65.5.26,43,.42,32.66,3.53,23,10.49,15,17.79,6.53,27.27,2.39,38.12,1,41.82.56,45.55.34,49.26,0Zm90.35,76.95h-.28c0-1.19,0-2.39,0-3.58C139,62.2,139.18,51,138.22,39.9c-1.18-13.67-9.46-22.46-23-24.6A151.41,151.41,0,0,0,92.28,14c-16-.07-32.06,0-48.07.48-17.27.55-27.64,9.33-29.6,24.9A175.37,175.37,0,0,0,13.54,61c0,16,0,32.06.51,48.07.62,18.16,9.69,28.81,27.56,29.64,23.21,1.08,46.55,1,69.76,0,17.18-.79,25.58-10,27.12-27.27C139.52,100,139.28,88.45,139.61,76.95Z"/><path d="M76.37,116.21a39.42,39.42,0,1,1,39.45-39.27A39.32,39.32,0,0,1,76.37,116.21ZM102,76.82a25.58,25.58,0,1,0-25.56,25.54A25.67,25.67,0,0,0,102,76.82Z"/><path d="M117.5,26.59A9.22,9.22,0,0,1,117.39,45a9.22,9.22,0,1,1,.11-18.45Z"/></g></svg>