<?xml version="1.0" encoding="utf-8"?>
<!-- Generator: Adobe Illustrator 21.1.0, SVG Export Plug-In . SVG Version: 6.00 Build 0)  -->
<svg version="1.0" xmlns="http://www.w3.org/2000/svg" xmlns:xlink="http://www.w3.org/1999/xlink" x="0px" y="0px"
	 viewBox="0 0 967.3 115.6" enable-background="new 0 0 967.3 115.6" xml:space="preserve">
<g id="ref">
</g>
<g id="font">
	<g id="非洲菊">
	</g>
	<g>
		<path fill="#0B2659" d="M0,0h95.7v24.7H35.8V43h55.6v23.6H35.8v22.8h61.6v26.2H0V0z"/>
		<path fill="#0B2659" d="M108.8,0h39.3l20.5,35.6L188.5,0h38.9l-36,56l39.4,59.6h-40.1l-22.8-37.1L145,115.6h-39.9L145,55.3
			L108.8,0z"/>
		<path fill="#0B2659" d="M344.9,98.7c4.5,3.1,7.4,5,8.7,5.8c2,1.2,17.2,11,17.2,11l-20,0c0,0-41.6,0-53.5,0
			c-17.6,0-31.4-2.6-41.5-11.7c-12-10.8-18-26-18-45.6c0-19,5.2-33.8,15.7-44.3C263.9,3.3,278.6-2,297.4-2c19.2,0,34,5.2,44.4,15.4
			c10.4,10.3,15.6,25,15.6,44.2C357.5,74.8,353.3,88.4,344.9,98.7z M317.5,80.4c2.8-5.1,4.3-12.7,4.3-22.9c0-11.7-2.2-20-6.5-25
			c-4.3-5-10.3-7.5-17.9-7.5c-7.1,0-12.8,2.5-17.3,7.6c-4.4,5.1-6.6,13.1-6.6,23.9c0,12.6,2.2,21.5,6.5,26.6
			c4.3,5.1,10.2,7.6,17.7,7.6c2.4,0,4.7-0.2,6.9-0.7c-3-2.9-7.7-5.6-14.2-8.2l5.6-12.8c3.2,0.6,5.6,1.3,7.4,2.1
			c1.8,0.8,5.2,3,10.3,6.6C314.8,78.6,316.1,79.5,317.5,80.4z"/>
		<path fill="#0B2659" d="M451.9,0h35.6v68.8c0,6.8-1.1,13.3-3.2,19.3c-2.1,6.1-5.5,11.4-10,15.9c-4.5,4.5-9.3,7.7-14.3,9.6
			c-6.9,2.6-15.3,3.9-25,3.9c-5.6,0-11.8-0.4-18.4-1.2c-6.6-0.8-12.2-2.4-16.7-4.7c-4.5-2.3-8.6-5.7-12.3-10
			c-3.7-4.3-6.2-8.7-7.6-13.3c-2.2-7.4-3.3-13.9-3.3-19.5V0h35.6v70.5c0,6.3,1.7,11.2,5.2,14.8c3.5,3.5,8.3,5.3,14.5,5.3
			c6.1,0,11-1.7,14.5-5.2c3.5-3.5,5.2-8.4,5.2-14.8V0z"/>
		<path fill="#0B2659" d="M512.6,0h35.8v115.6h-35.8V0z"/>
		<path fill="#0B2659" d="M567.8,77.3l34-2.1c0.7,5.5,2.2,9.7,4.5,12.6c3.7,4.7,8.9,7,15.8,7c5.1,0,9-1.2,11.8-3.6
			c2.8-2.4,4.1-5.2,4.1-8.3c0-3-1.3-5.7-3.9-8c-2.6-2.4-8.7-4.6-18.3-6.7c-15.7-3.5-26.8-8.2-33.5-14c-6.7-5.8-10.1-13.3-10.1-22.3
			c0-5.9,1.7-11.5,5.2-16.8c3.4-5.3,8.6-9.4,15.5-12.5c6.9-3,16.4-2.6,28.4-2.6c14.8,0,26,0.8,33.8,6.3c7.8,5.5,12.4,14.2,13.8,26.2
			l-33.7,2c-0.9-5.2-2.8-9-5.6-11.4c-2.9-2.4-6.8-3.5-11.9-3.5c-4.2,0-7.3,0.9-9.4,2.6c-2.1,1.8-3.2,3.9-3.2,6.4
			c0,1.8,0.9,3.5,2.6,5c1.7,1.5,5.7,2.9,12,4.3c15.6,3.4,26.8,6.8,33.5,10.2c6.8,3.4,11.7,7.7,14.7,12.8c3.1,5.1,4.6,10.8,4.6,17.1
			c0,7.4-2,14.2-6.1,20.5c-4.1,6.3-9.8,11-17.2,14.2c-7.4,3.2-16.6,2.9-27.8,2.9c-19.7,0-33.3-1.8-40.8-9.4
			C573.1,98.6,568.8,89,567.8,77.3z"/>
		<path fill="#0B2659" d="M692,0h35.8v115.6H692V0z"/>
		<path fill="#0B2659" d="M745.3,0h108.5v28.5h-36.4v87h-35.7v-87h-36.4V0z"/>
		<path fill="#0B2659" d="M869.9,0h97.4v24.7h-61.6V43h55.6v23.6h-55.6v22.8h61.6v26.2h-97.4V0z"/>
	</g>
</g>
</svg>
