<?xml version="1.0" encoding="utf-8"?>
<!-- Generator: Adobe Illustrator 21.1.0, SVG Export Plug-In . SVG Version: 6.00 Build 0)  -->
<svg version="1.0" xmlns="http://www.w3.org/2000/svg" xmlns:xlink="http://www.w3.org/1999/xlink" x="0px" y="0px"
	 viewBox="0 0 641.7 48.6" enable-background="new 0 0 641.7 48.6" xml:space="preserve">
<g id="ref">
</g>
<g id="font">
	<g id="非洲菊">
	</g>
	<g>
		<path fill="#FFFFFF" d="M639.7,46.6h-28.5c3.5-1,6.7-2.6,9.5-4.8c5.5-4.3,8.2-10.2,8.2-17.3c0-7.2-3.1-13.2-9.3-17.9
			c-5.3-4-11.3-6-17.8-6h-26.9c-0.5,0-0.8,0.4-0.8,0.8V2c0,0.5,0.4,0.8,0.8,0.8c4.8,0,4.8,0.2,4.8,3.1v36.4c0,1.9-0.7,2.4-1.4,2.7
			c-0.9,0.4-2.2,0.4-3.4,0.4c-0.5,0-0.8,0.4-0.8,0.8v0.2h-20.9c2.7-1.1,5.2-2.5,7.6-4.5c5.8-4.7,8.7-10.8,8.7-17.9
			c0-7.5-2.9-13.6-8.7-18.2C555.6,2,549.6,0,543,0c-6.6,0-12.5,2.1-17.8,6.4c-5.8,4.7-8.7,10.7-8.7,17.9c0,7.5,2.9,13.6,8.7,18.2
			c2.3,1.8,4.7,3.2,7.3,4.2h-38.9c2.7-1.1,5.2-2.5,7.6-4.5c5.8-4.7,8.7-10.8,8.7-17.9c0-7.5-2.9-13.6-8.7-18.2C496,2,490,0,483.3,0
			c-6.6,0-12.5,2.1-17.8,6.4c-5.8,4.7-8.7,10.7-8.7,17.9c0,7.5,2.9,13.6,8.7,18.2c2.3,1.8,4.7,3.2,7.3,4.2h-27.4v-14
			c0-1.3,0.2-1.9,0.3-2.1c0.5-0.3,2.6-1,3.5-1c0.5,0,0.8-0.4,0.8-0.8v-0.6c0-0.5-0.4-0.8-0.8-0.8h-18.9c-0.5,0-0.8,0.4-0.8,0.8v0.6
			c0,0.5,0.4,0.8,0.8,0.8c1.4,0,3,0.3,3.4,1.1c0,0.1,0.1,0.4,0.1,2v4.5c0,3-0.9,5.3-2.9,6.8c-2,1.6-4.8,2.4-8.4,2.4
			c-3.8,0-6.8-1.8-9-5.5c-2.2-3.8-3.4-9.3-3.4-16.3c0-7.1,1.2-12.7,3.7-16.5c2.4-3.8,5.5-5.6,9.6-5.6c4.3,0,8.2,1.5,11.4,4.6
			c3.5,3.3,5.8,8,7,14.1c0.1,0.4,0.4,0.7,0.8,0.7h0.8c0.5,0,0.8-0.4,0.8-0.8v-20c0-0.4-0.3-0.8-0.7-0.8c-0.4-0.1-0.8,0.2-0.9,0.6
			c0,0-0.8,2.7-2.7,3.5c-1,0.4-2.2,0.2-3.6-0.7C430.8,0,425.6,0,422.1,0c-4.6,0-10.5,0.6-16.1,5.2c-5.6,4.6-8.6,11.8-8.6,20.1
			c0,8.1,3,14.9,8.3,19c1.3,1,2.7,1.8,4.1,2.4h-40.7c-1.1,0-2,0.4-2,1c0,0.5,0.9,1,2,1h270.6c1.1,0,2-0.4,2-1
			C641.7,47.1,640.8,46.6,639.7,46.6z M431.2,46.6c0.8-0.4,1.7-1,2.7-1.6c0.6-0.5,1.1-0.9,1.7-1.4c1.1-0.8,2.6-1.3,4.3-1.3
			c0.9,0,1.5,0.4,2.1,1.1c0.5,0.7,0.8,1.8,0.9,3.2H431.2z M483.3,46.3c-4.5,0-7.7-1.8-10-5.5c-2.3-3.8-3.5-9.3-3.5-16.5
			c0-7.3,1.2-12.8,3.5-16.5c2.3-3.6,5.5-5.4,10-5.4c4.5,0,7.8,1.8,10.1,5.4c2.3,3.7,3.5,9.3,3.5,16.5c0,7.2-1.2,12.7-3.6,16.5
			C491,44.4,487.7,46.3,483.3,46.3z M542.9,46.3c-4.5,0-7.7-1.8-10-5.5c-2.3-3.8-3.5-9.3-3.5-16.5c0-7.3,1.2-12.8,3.5-16.5
			c2.3-3.6,5.5-5.4,10-5.4c4.5,0,7.8,1.8,10.1,5.4c2.3,3.7,3.5,9.3,3.5,16.5c0,7.2-1.2,12.7-3.6,16.5
			C550.6,44.4,547.3,46.3,542.9,46.3z M596.1,45.5c-2.3,0-3.1-0.2-3.4-0.3c-0.5-0.2-0.6-0.4-0.7-0.5c-0.1-0.1-0.2-0.6-0.2-2.3V6
			c0-1.8,0.2-2.2,0.2-2.3c0.1-0.2,0.3-0.3,0.7-0.4c0.4-0.1,1.2-0.3,2.9-0.4c1.5-0.1,3.6-0.1,6.2-0.1c4.9,0,8.5,1.9,11.1,5.9
			c2.4,3.7,3.6,9,3.6,15.8c0,7.1-1.2,12.5-3.6,15.9c-2.3,3.4-6,5.1-11.1,5.1C599.8,45.5,597.9,45.5,596.1,45.5z"/>
		<path fill="#FFFFFF" d="M365.1,46.6h-12.7V32.9c0-0.5-0.4-0.8-0.8-0.8h-1.1c-0.4,0-0.8,0.3-0.8,0.7c-0.8,6.6-9.1,12.6-15.2,12.6
			c-3,0-5.1,0-6.3-0.1c-1.1,0-2.1-0.2-2.9-0.4c-0.9-0.3-1.1-0.5-1.1-0.5c0,0-0.2-0.4-0.2-2.1V27.4c9.6,0.1,13,1.1,13.7,6.8
			c0.1,0.4,0.4,0.7,0.8,0.7h1c0.5,0,0.8-0.4,0.8-0.8V14.4c0-0.5-0.4-0.8-0.8-0.8h-1c-0.4,0-0.8,0.3-0.8,0.7
			c-0.7,5.8-2.1,9.4-13.7,9.6V6c0-1.7,0.2-2.1,0.2-2.1c0.1-0.1,0.2-0.3,0.6-0.4c1.6-0.4,3.5-0.6,5.6-0.7c2.2,0,4.3,0,6.5,0
			c5,0,10.1,4.3,10.1,7.3c0,0.5,0.4,0.8,0.8,0.8h1.1c0.5,0,0.8-0.4,0.8-0.8V1.4c0-0.5-0.4-0.8-0.8-0.8h-43.6c-0.5,0-0.8,0.4-0.8,0.8
			V2c0,0.5,0.4,0.8,0.8,0.8c0.4,0,0.7,0,0.9,0c0.3,0.1,0.6,0.2,1.3,0.3c2.3,0.2,3.3,0.4,3.7,0.5c0.5,0.1,0.7,0.2,0.7,0.2
			c0,0.1,0.2,0.5,0.2,2.1v36.4c0,1.6-0.2,2-0.2,2c0,0-0.2,0.2-0.7,0.4c-0.4,0.1-0.6,0.2-0.8,0.3c-0.7,0.3-1.1,0.4-5,0.4
			c-0.5,0-0.8,0.4-0.8,0.8v0.2h-6.2V27.9c0-0.5-0.4-0.8-0.8-0.8h-1.1c-0.5,0-0.8,0.4-0.8,0.8c0,12.9-6.9,17.5-13.4,17.5
			c-4.7,0-8-0.2-9.7-0.7c-0.4-0.1-0.6-0.2-0.6-0.2c0-0.1-0.2-0.5-0.2-2.2V6c0-1.5,0.2-2,0.2-2c0,0,0.2-0.1,0.9-0.4
			c0.7-0.2,1.9-0.4,3.6-0.5c0.7-0.1,0.9-0.1,1.1-0.1c0.3,0,0.4-0.1,2.3-0.1c0.5,0,0.8-0.4,0.8-0.8V1.4c0-0.5-0.4-0.8-0.8-0.8h-26
			c-0.5,0-0.8,0.4-0.8,0.8V2c0,0.5,0.4,0.8,0.8,0.8c2,0,3.9,0.6,4.8,0.8c0.5,0.1,0.7,0.2,0.7,0.2h0c0,0.1,0.2,0.5,0.2,2.1v36.4
			c0,1.6-0.2,2-0.2,2c0,0-0.2,0.2-0.8,0.4c-1.4,0.5-3,0.7-4.7,0.7c-0.5,0-0.8,0.4-0.8,0.8v0.2h-15.2c1.9-0.7,3.7-1.7,5.3-2.9
			c3.1-2.5,4.7-5.2,4.7-8.1c0-3.5-1.4-6.4-4.2-8.7c-2.4-1.9-5.8-3.4-10.1-4.3c3.9-0.8,6.6-2,8.4-3.4c1.9-1.6,2.9-3.9,2.9-7
			c0-2.6-1.6-5.1-4.7-7.4c-3.8-2.8-8.8-4.3-15.1-4.3h-30.2c-0.5,0-0.8,0.4-0.8,0.8V2c0,0.5,0.4,0.8,0.8,0.8c5.2,0,6.7,1,6.7,1
			c0,0.1,0.2,0.5,0.2,2.1v36.5c0,1.7-0.2,2.1-0.2,2.1c-0.1,0.2-0.4,0.3-0.7,0.5c-0.3,0.1-0.4,0.2-0.6,0.2c-0.4,0.2-0.7,0.3-5.3,0.3
			c-0.5,0-0.8,0.4-0.8,0.8v0.2h-20.4c0.6-0.3,1.1-0.5,1.7-0.9c4.7-2.7,7.1-6.9,7.1-12.3V12.2c0-3.3,2.1-9.3,5.6-9.3
			c0.5,0,0.8-0.4,0.8-0.8V1.4c0-0.5-0.4-0.8-0.8-0.8h-15.6c-0.5,0-0.8,0.4-0.8,0.8V2c0,0.5,0.4,0.8,0.8,0.8c3.3,0,7.2,7.3,7.2,12.1
			v18.5c0,4.3-1.8,7.5-5.5,9.8c-2.6,1.7-5.4,2.5-8.1,2.5c-5,0-8.5-1.1-10.4-3.4c-1.6-1.9-2.4-5.1-2.4-9.6V6c0-1.5,0.2-2,0.2-2
			c0,0,0.2-0.1,0.9-0.4c0.7-0.2,1.8-0.4,3.4-0.5c0.2,0,0.6-0.1,0.9-0.2c0.1,0,0.1,0,0.2,0c0.5,0,0.8-0.4,0.8-0.8V1.4
			c0-0.5-0.4-0.8-0.8-0.8h-22.6c-0.5,0-0.8,0.4-0.8,0.8V2c0,0.5,0.4,0.8,0.8,0.8c1.7,0,2.6,0,2.9,0.2c0.2,0.2,0.5,0.4,1.2,0.6
			c0.4,0.1,0.6,0.2,0.6,0.2c0,0.1,0.2,0.6,0.2,2.1v28.2c0,4.7,2.6,8.4,7.6,11c1.1,0.6,2.3,1.1,3.5,1.5h-41.4
			c2.7-1.1,5.2-2.5,7.6-4.5c5.8-4.7,8.7-10.8,8.7-17.9c0-7.5-2.9-13.6-8.7-18.1l0,0C112.9,2,106.9,0,100.2,0
			c-6.6,0-12.5,2.1-17.8,6.4C76.7,11,73.7,17,73.7,24.2c0,7.5,2.9,13.6,8.7,18.2c2.3,1.8,4.7,3.2,7.3,4.2H47.6
			c3.5-1,6.7-2.6,9.5-4.8c5.5-4.3,8.2-10.2,8.2-17.3c0-7.2-3.1-13.2-9.3-17.9c-5.3-4-11.3-6-17.8-6H10.3c-0.5,0-0.8,0.4-0.8,0.8V2
			c0,0.5,0.4,0.8,0.8,0.8c3.2,0,3.4,0.1,3.6,0.2c0.3,0.2,0.5,0.4,1.2,0.6c0.5,0.1,0.6,0.2,0.6,0.2C15.8,4,16,4.5,16,6v36.4
			c0,1.7-0.2,2.1-0.2,2.1h0c0,0-0.2,0.1-0.8,0.3c-0.4,0.1-1.4,0.3-3.6,0.5c-0.3,0-0.7,0.1-1,0.2c-0.5,0-1,0.3-1,0.8v0.2H2
			c-1.1,0-2,0.4-2,1c0,0.5,0.9,1,2,1h363.1c1.1,0,2-0.4,2-1C367.1,47.1,366.2,46.6,365.1,46.6z M32.4,45.5c-2.3,0-3.1-0.2-3.4-0.3
			c-0.5-0.2-0.6-0.4-0.7-0.5c-0.1-0.1-0.2-0.6-0.2-2.3V6c0-1.8,0.2-2.2,0.2-2.3c0.1-0.1,0.2-0.3,0.7-0.4c0.4-0.1,1.2-0.3,2.9-0.4
			c1.5-0.1,3.6-0.1,6.2-0.1c4.9,0,8.5,1.9,11.1,5.9c2.4,3.7,3.6,9,3.6,15.8c0,7.1-1.2,12.5-3.6,15.9h0c-2.3,3.4-6,5.1-11.1,5.1
			C36.1,45.5,34.2,45.5,32.4,45.5z M100.2,46.3c-4.5,0-7.7-1.8-10-5.5c-2.3-3.8-3.5-9.3-3.5-16.5c0-7.3,1.2-12.8,3.5-16.5
			c2.3-3.6,5.5-5.4,10-5.4c4.5,0,7.8,1.8,10.1,5.4c2.3,3.7,3.5,9.3,3.5,16.5c0,7.2-1.2,12.7-3.6,16.5
			C107.9,44.4,104.6,46.3,100.2,46.3z M213.5,6c0-1.7,0.1-2.3,0.2-2.5c0-0.1,0.1-0.3,0.5-0.4c0.4-0.1,1.1-0.2,2.4-0.2h4.1
			c4.3,0,7.4,0.8,9.2,2.2c1.7,1.4,2.6,4.1,2.6,7.8c0,3.3-1,5.6-3.2,6.9c-1.8,1.2-4.7,1.8-8.7,1.8h-7V6z M232.7,42.8
			C232.7,42.8,232.7,42.8,232.7,42.8c-1.8,1.9-4.7,2.8-8.5,2.8c-3.9,0-6.3,0-7.3-0.1c-1,0-1.8-0.2-2.3-0.3c-0.6-0.2-0.8-0.4-0.8-0.5
			c0,0-0.2-0.4-0.2-2.3V23.9h9.2c4.2,0,7.4,1.1,9.5,3.2c1.9,2,2.9,4.8,2.9,8.5C235.2,38.7,234.3,41.1,232.7,42.8z"/>
	</g>
</g>
</svg>
