<svg xmlns="http://www.w3.org/2000/svg" viewBox="0 0 1920 573.71"><defs><style>.cls-1{fill:none;}.cls-2{fill:#fff;}.cls-3,.cls-4{fill:#00256a;}.cls-4{font-size:128.09px;font-family:BellMTBold, Bell MT;font-weight:700;}.cls-5{letter-spacing:-0.03em;}.cls-6{letter-spacing:0.01em;}.cls-7{letter-spacing:-0.05em;}</style></defs><title>about</title><g id="font"><rect class="cls-1" x="845.53" y="336.8" width="346.51" height="97.01"/><rect class="cls-1" x="458.01" y="437.65" width="557.4" height="95.98"/><path class="cls-1" d="M1870.74,159.62h-120a101,101,0,0,0,10.57-45.15c0-54.91-43.45-99.42-97.06-99.42-32.68,0-61.59,16.55-79.18,41.91-17.59-25.36-46.5-41.91-79.18-41.91-53.6,0-97.06,44.51-97.06,99.42a101,101,0,0,0,10.57,45.15H61.73c-4.65,0-8.41.56-8.41,1.25s3.76,1.26,8.41,1.26h1359c16.48,30.84,48.45,51.75,85.19,51.75,32.68,0,61.59-16.55,79.18-41.91,17.59,25.36,46.5,41.91,79.18,41.91,36.74,0,68.71-20.91,85.19-51.75h121.27c4.65,0,8.41-.56,8.41-1.26S1875.39,159.62,1870.74,159.62Z"/><path class="cls-2" d="M0,0V573.76H1920V0ZM186.72,497.25a60,60,0,0,1-6.95,12.18,58.86,58.86,0,0,1-12.18,12.34l-.18.13a60,60,0,0,1-13.18,7.51l-1.31.52c-23.14,8.83-48.79,2-64.93-15.23-.35-.38-.7-.76-1-1.15l-.06-.07c-.33-.37-.67-.71-1-1.09l-.06-.07-.07-.07c-.31-.37-.6-.75-.9-1.13l-.06-.08c-.32-.4-.61-.83-.92-1.24l-.26-.35c-.33-.44-.67-.87-1-1.32l0,0c-.31-.45-.63-.88-.93-1.34l0-.07-.08-.13c-.3-.46-.57-1-.86-1.43l-.08-.13c-.31-.52-.63-1-.93-1.56a58.6,58.6,0,0,1-3.31-6.7A59.52,59.52,0,0,1,78,448.2c.27-.56.52-1.13.8-1.69l.06-.13c.25-.49.53-1,.8-1.44l.06-.1.05-.09c.26-.46.54-.9.81-1.36l.05-.09c.29-.48.56-1,.86-1.43a59.31,59.31,0,0,1,27.16-22.8l.22-.1.19-.09.28-.11,1.06-.42A59.62,59.62,0,0,1,183.73,445c.25.45.53.88.77,1.33l0,.09c.22.42.4.88.61,1.31l0,.09,0,0c.22.45.43.9.64,1.37l0,0c.21.47.45.92.65,1.4.13.29.28.57.4.86A59.33,59.33,0,0,1,186.72,497.25ZM427,253.81,194.62,494.44a65.64,65.64,0,0,0-1.69-45.34c-.28-.68-.63-1.31-.92-2-.21-.47-.43-.93-.65-1.4l0,0c-.21-.45-.41-.91-.64-1.37v0l0-.1c-.22-.43-.41-.87-.64-1.29l-.05-.09c-.24-.45-.53-.88-.78-1.32a65.81,65.81,0,0,0-54.64-33.42L399.44,231.13c16.7-9.91,25.58-4.28,29.2-.16C433.25,236.23,436.14,244.09,427,253.81Zm588.39,279.82H458v-96h557.4ZM1192,433.8H845.53v-97H1192Zm678.7-271.67H1749.47C1733,193,1701,213.88,1664.28,213.88c-32.68,0-61.59-16.55-79.18-41.91-17.59,25.36-46.5,41.91-79.18,41.91-36.74,0-68.71-20.91-85.19-51.75H61.73c-4.65,0-8.41-.56-8.41-1.26s3.76-1.25,8.41-1.25h1357.7a101,101,0,0,1-10.57-45.15c0-54.91,43.45-99.42,97.06-99.42,32.68,0,61.59,16.55,79.18,41.91,17.59-25.36,46.5-41.91,79.18-41.91,53.6,0,97.06,44.51,97.06,99.42a101,101,0,0,1-10.57,45.15h120c4.65,0,8.41.56,8.41,1.25S1875.39,162.13,1870.74,162.13Z"/><path class="cls-3" d="M61.73,159.62c-4.65,0-8.41.56-8.41,1.25s3.76,1.26,8.41,1.26h1359q-.67-1.25-1.3-2.51Z"/><path class="cls-3" d="M1870.74,159.62h-120q-.63,1.27-1.3,2.51h121.27c4.65,0,8.41-.56,8.41-1.26S1875.39,159.62,1870.74,159.62Z"/><path class="cls-3" d="M636.23,156.67h0l0,0Z"/><path class="cls-3" d="M636.23,156.68l-.3.14a1.13,1.13,0,0,0-.14.1l.46-.13Z"/><path class="cls-3" d="M636.28,156.66l0,0,0,.11.06,0,.7-.32Z"/><path class="cls-3" d="M636.25,156.8l.06,0-.06,0Z"/><path class="cls-3" d="M150.66,335.51V335l-.11-.16a15.37,15.37,0,0,0-4.81-2.72h-.63l-.31.11a4.15,4.15,0,0,0-1.36,2.09h-8.71l-.31-.21-4.29-1.68h-.63l-.21.21v.26c-.07,1.08,0,1.44.1,1.1v6.9l-.1,13.35a1.39,1.39,0,0,0,1.15.89H132a5,5,0,0,0,2.82-1.57c0-1,.14-1.87.84-1.8h7.77l.63.52c-.14,1.85.24,2,1.15,1.78H147c1.67-.63,2.62-1.38,2.83-2v-.47c0-1.19-.11-14.65-.11-14.65ZM144.17,350q.11.21-.73.89h-7.77c-.63-.45-.87-.75-.73-.89V336a1.24,1.24,0,0,1,.73-.68h7.77a1.85,1.85,0,0,1,.73.68Z"/><path class="cls-3" d="M175.13,335.51V335l-.11-.16a15.37,15.37,0,0,0-4.81-2.72h-.63l-.31.11a4.15,4.15,0,0,0-1.36,2.09H159.2l-.31-.21-4.29-1.68H154l-.21.21v.26c-.07,1.08.1,8,.1,8l-.1,13.35a1.39,1.39,0,0,0,1.15.89h1.57a5,5,0,0,0,2.82-1.57c0-1,.14-1.87.84-1.8h7.77l.63.52c-.14,1.85.24,2,1.15,1.78h1.78c1.67-.63,2.62-1.38,2.83-2v-.47c0-1.19-.11-14.65-.11-14.65ZM168.65,350q.11.21-.73.89h-7.77c-.63-.45-.87-.75-.73-.89V336a1.24,1.24,0,0,1,.73-.68h7.77a1.85,1.85,0,0,1,.73.68Z"/><path class="cls-3" d="M141,331.62h1.78a6.33,6.33,0,0,0,2.62-1.3c-.14-1.92.14-1.81.84-1.81h10.45l.42.37c.21,1.85.43,1.56,1.2,1.46h1.57q2.93-1,2.93-2V328l.06-1.72V314.65a5.65,5.65,0,0,0,1.57-1.67v-.63l-.63-.94a19.28,19.28,0,0,0-4.71-2.3h-.84l-2.19,3.35h-9.62l-.42-.26-4.92-1.83h-.94l-.21.21.11,9.88L140,330.79C140,331.2,140.37,331.49,141,331.62Zm4.5-17.43a1.26,1.26,0,0,1,.73-.79h10.45a1.81,1.81,0,0,1,.73.79v12.59q.1.21-.73.79H146.23q-.94-.57-.73-.79Z"/><path class="cls-3" d="M75.24,248.59h.7a19.31,19.31,0,0,1,4,1.29c1.13.4,1.72.81,1.79,1.25l.1.09v.45q0,.49-2,1.74a81.1,81.1,0,0,1-1.29,8h3.78l2-2.79h.9a10,10,0,0,1,5,3.34l.4.44v.5c.13.2-.43.63-1.69,1.29-.2,0-.4.79-.6,2.39a23.8,23.8,0,0,1-.7,3.53v.3c0,.23,2,.32,6,.25H96c.53-.36.76-.63.7-.8v-7.58l-.6-3.1v-.09l.4-.3a10.88,10.88,0,0,1,4.18.75h.4q.3.1,1.29-2.34l1.89-3.49.1-.25v-.3l-.4-.35H91.36a10.89,10.89,0,0,1-3,.35L87.73,252v-.28l.15-.2q.1.29,13.73.2h3.28l1.94-2.54h1a11.74,11.74,0,0,1,5.87,5v.8c-.13.53-1.36.9-3.68,1.09a17.08,17.08,0,0,0-7.06,4.08v.4l.49.6v.94a1.87,1.87,0,0,1-1,.95v6.87c-.13.16.1.43.7.79h2.29c.2.13.66-.44,1.39-1.69q0-.3,1.69-2.29l.2-.2h.9q1.69.49,4.48,4.18v.48c.07.12-.13.35-.6.67H103.21a1.17,1.17,0,0,0-.7.75l.1,13.38.1.1v3.33a7.77,7.77,0,0,1-5.57,5.53l-.2.09H95.74q-.8.3-1.59-3c-.4-1.06-1.73-2.12-4-3.18v-.5l.2-.2a31.12,31.12,0,0,0,5.77.3c.53-.4.76-.67.7-.79V272.57a1.65,1.65,0,0,0-.7-.75h-8q-1.29-.6-1.79,3.18l-1.89,5.62-.1.1v.84a14.58,14.58,0,0,1,3.68,4.58,8.67,8.67,0,0,1,.3,3.23,3.14,3.14,0,0,1-2.09,2.09l-.2.1H84.8q-1.59-.2-2-4l-.9-1.69h-.4a33.65,33.65,0,0,1-12,8.66l-.84.09-.25-.3v-.45a21.37,21.37,0,0,0,10.55-12.08v-.5l-2-1.89-.6-.4h-.4q-.49,2.48-2.29,2.59l-2.29.1a2.78,2.78,0,0,1-1.19-.55c-.13-.07,0-1,.4-2.74q1.2-5.17,2.79-15.87a28.2,28.2,0,0,0-4.68.2,1,1,0,0,1-.49-.84v-.3l.2-.25,5.07.1a56.43,56.43,0,0,0,1.79-10.74V250l-.2-.65v-.49Zm3.18,14q-.3,0-1,6l-1.3,8.21v.65c-.13.2.37.4,1.49.6l1.89.85h.3q2.69-4.63,3.38-15.57a1.74,1.74,0,0,0-.7-.7Z"/><path class="cls-3" d="M129.85,252.21h16q.71-.48.61-.63v-.39l-.1-.25a10.58,10.58,0,0,0-4.67-3.81h-1.12l-.2.2-2.64,3.7h-2.23q-7.41.15-7.51-.2l-.2.2v.53l.51.84A3.25,3.25,0,0,0,129.85,252.21Z"/><path class="cls-3" d="M138.18,277.74a11.09,11.09,0,0,1-4.37-.91v15.88a2.07,2.07,0,0,0,1.52,1.07h2.23a3.24,3.24,0,0,0,1.73-1.07l-.1-5.94q0-1.52-.1-1.12v-8c-.21,0-.42.07-.63.08Z"/><path class="cls-3" d="M127.84,270.73A74.18,74.18,0,0,1,126.1,288l.41.3H127l.71-.86a30.45,30.45,0,0,0,4.66-11.39,10.79,10.79,0,0,1-4.54-5.36Z"/><path class="cls-3" d="M155.13,251.6a1.22,1.22,0,0,1,.71-.76h8.93a1.74,1.74,0,0,1,.71.76v2.75l.72,0a5.76,5.76,0,0,1,4.66,1.88v-2.82a7.69,7.69,0,0,0,1.52-1.78v-1a12.59,12.59,0,0,0-5.18-3.3h-.91l-1.83,2.49h-8.63a21.84,21.84,0,0,0-5.38-1.73h-.71l-.41.3a12.49,12.49,0,0,1,.41,4.26c0,.8,0,1.5,0,2.26l5.37-.2Z"/><path class="cls-3" d="M172,284.72l-.2-.2h-.61l-.31.51a4,4,0,0,1-3,2.46h-.71c-.54-.27-.81-.57-.81-.91V275.66l.81.35H169a2.7,2.7,0,0,0,2-1.22l-.1-6.19q0-1.52-.1-1.12V263a8.29,8.29,0,0,1-2.77,2.11l-2.61,1.18v6.53c.07.17-.17.44-.71.81h-8.93q-.91-.56-.71-.81V271l-5.44,2.46a10.94,10.94,0,0,1-.15,2.21,1.32,1.32,0,0,0,1,.61h1.62l1.42-.51a23.57,23.57,0,0,1-1.12,6.6q-2.64,7.71-11.37,10.51v.66l.2.2h1.32a20.93,20.93,0,0,0,7.51-2.33q7.61-3.45,8.63-13.5-.2-3.45.81-3.25h.81a1.73,1.73,0,0,1,.71.76v14.77q1,2.84,3.55,2.84H169q4.46-.46,4.77-3.45v-.51A32.37,32.37,0,0,0,172,284.72Z"/><path class="cls-3" d="M141.66,277.14l-.26.12a1.19,1.19,0,0,1-.18,0v6.93a1.77,1.77,0,0,0,1.32,1h1.62l.2-.1q.2.2,1.93-1.17a40.55,40.55,0,0,0-.2-5.73v-3.11l-2.19,1A11,11,0,0,1,141.66,277.14Z"/><path class="cls-3" d="M165.48,263.8l1.61-.73c1.82-.92,2.73-2.11,2.67-3.51,0-1.09-.56-2.91-3.56-2.91H166l-.52,0-10.35.38-5.36.2-4.14.15-1,0a11.58,11.58,0,0,1,1.31,1,11,11,0,0,1,2.16,13.22l1.66-.75,5.39-2.44Z"/><path class="cls-3" d="M144.32,260.14a9.4,9.4,0,0,0-6.11-2.45H138a8.8,8.8,0,0,0-5.61,2.23c-.2.17-.41.32-.59.51l-.07.09a8.76,8.76,0,0,0-2.3,5.14,9.11,9.11,0,0,0-.08,1.1,8.78,8.78,0,0,0,2.74,6.21c.17.16.36.28.54.42a9,9,0,0,0,1.2.85,8.34,8.34,0,0,0,4.59,1.17c.23,0,.46-.06.69-.08a8.84,8.84,0,0,0,1.64-.32h0l.45-.2,1.7-.77a8,8,0,0,0,3.17-3.52,8.72,8.72,0,0,0,.84-2.46,9,9,0,0,0,.09-1.3c0-.13,0-.26,0-.39a8.75,8.75,0,0,0-1.92-5.26A8.91,8.91,0,0,0,144.32,260.14Z"/><path class="cls-3" d="M140.77,275l.45-.15v-.06Z"/><path class="cls-3" d="M141.22,274.86a8.72,8.72,0,0,0,1.7-.83l-1.7.77Z"/><path class="cls-3" d="M100.06,343.08V343a42.66,42.66,0,0,0,10-4.32l2.16.1A1.19,1.19,0,0,0,113,338v-.29l-.2-.45q-2.65-3.68-4.62-4.66h-.78l-.1.14-1.47,2.06q-5.11,6-7.07,7h-.1a19.4,19.4,0,0,1-5.4-8.35v-.34h5.89c.46.82.92,1.23,1.37,1.23h2.95l.1-.1c.26.13.92-.16,2-.89v-1.86c0-1.11-.1-11.59-.1-11.59a2.49,2.49,0,0,0,1.18-1.27v-1.08a8.54,8.54,0,0,0-5.25-2.85h-1l-.29.2a6.39,6.39,0,0,0-1.67,2.55H94.56c-.59-.39-.82-.65-.69-.78v-3.83a3.08,3.08,0,0,0,1.37-1.38v-.59a1.22,1.22,0,0,0-.59-.59,23.25,23.25,0,0,0-5.6-1.08H87.69a1.24,1.24,0,0,0-.59.63l.39,1.72v5.11c.07.13-.17.39-.69.78H83.27l-.1-.1a38.74,38.74,0,0,0-5.89-2.06h-.59l-.44.39V316l.64,3.1V346.8l-.2.2a23.78,23.78,0,0,1-4.71.19c-1.34-.13-1.93,0-1.77.44v.64a22.28,22.28,0,0,0,3.54,6.77h.49l1.77-.93q12-4.52,20.32-7.22H97l2.06,2.17a38.07,38.07,0,0,0,8.74,5.79h1.08a13.86,13.86,0,0,1,5.5-4.91v-.69Q105.26,347.45,100.06,343.08ZM99,331.88H83.36c-.08-.05-.1-.08-.16-.13l16.46-8.42v7.78C99.73,331.23,99.5,331.49,99,331.88Zm-15.61-13.3H99c.09,0,.16.17.24.24l-16.54,8.47v-8A1.21,1.21,0,0,1,83.36,318.58Zm12.27,26.9-.2.2-2.85.34q-9.52,1-9.62.78l-.3-.29V333.75a1,1,0,0,1,.69-.64h8.35l.39,3.39q1.57,6,3.54,8.45Z"/><path class="cls-3" d="M1396.79,119.6h-36.44a1.61,1.61,0,0,0-1.61,1.61v1.23a1.61,1.61,0,0,0,1.61,1.61c2.67,0,5.73.65,6.57,2.06.07.14.28.85.28,3.86v8.61c0,5.84-1.83,10.13-5.58,13.12s-9.28,4.58-16.25,4.58c-7.38,0-13-3.44-17.25-10.53-4.33-7.26-6.53-17.85-6.53-31.49s2.37-24.43,7-31.87,10.65-10.83,18.55-10.83a31.19,31.19,0,0,1,22,8.81c6.71,6.35,11.24,15.49,13.45,27.15a1.61,1.61,0,0,0,1.58,1.31h1.47a1.61,1.61,0,0,0,1.61-1.61V68.72a1.61,1.61,0,0,0-1.38-1.59,1.62,1.62,0,0,0-1.77,1.15c0,.05-1.6,5.25-5.26,6.68-2,.76-4.33.32-7-1.33-10.59-6.52-20.68-6.52-27.36-6.52-8.83,0-20.33,1.14-31,10s-16.63,22.69-16.63,38.71c0,15.7,5.69,28.68,16,36.55,9.52,7.33,21,8.34,31.91,8.34a41.73,41.73,0,0,0,11.69-1.31,47.09,47.09,0,0,0,10.78-5.5c1.08-.9,2.2-1.8,3.36-2.68a13.91,13.91,0,0,1,8.38-2.43,5,5,0,0,1,4.07,2.07c1.17,1.48,1.77,3.84,1.77,7a1.61,1.61,0,0,0,1.61,1.61h1.31a1.61,1.61,0,0,0,1.61-1.61V130a9.81,9.81,0,0,1,.56-4.07,24.11,24.11,0,0,1,6.81-1.86,1.61,1.61,0,0,0,1.61-1.61V121.2A1.61,1.61,0,0,0,1396.79,119.6Z"/><path class="cls-3" d="M1861.31,79.87a55.67,55.67,0,0,0-34.4-11.66H1775a1.61,1.61,0,0,0-1.61,1.61V71a1.61,1.61,0,0,0,1.61,1.61c9.18,0,9.18.34,9.18,6.07v70.13c0,3.58-1.4,4.69-2.61,5.25-1.76.81-4.31.81-6.57.81a1.61,1.61,0,0,0-1.61,1.61v1.37a1.61,1.61,0,0,0,1.61,1.61h51.75c14.39,0,26.69-4,36.55-11.82,10.51-8.38,15.84-19.6,15.84-33.34C1879.15,100.39,1873.15,88.79,1861.31,79.87ZM1808,153.36c-.1-.21-.42-1.14-.42-4.51V78.71c0-3.52.33-4.27.38-4.36a2.48,2.48,0,0,1,1.38-.82,24.15,24.15,0,0,1,5.52-.68c2.83-.13,6.87-.21,12-.21,9.47,0,16.45,3.7,21.34,11.32,4.63,7.2,7,17.41,7,30.37,0,13.67-2.31,24-6.87,30.73s-11.5,9.84-21.43,9.84q-5.58,0-11-.06c-4.49-.05-6-.36-6.58-.54C1808.25,154,1808,153.52,1808,153.36Z"/><path class="cls-3" d="M161.21,79.87a55.68,55.68,0,0,0-34.4-11.66H73.26a1.61,1.61,0,0,0-1.61,1.61V71a1.61,1.61,0,0,0,1.61,1.61c6.25,0,6.58.24,6.9.48a6.86,6.86,0,0,0,2.28,1.11c.88.27,1.23.47,1.24.43.1.22.4,1.13.4,4.05v70.13a16.63,16.63,0,0,1-.3,4.08h0a5.28,5.28,0,0,1-1.52.62,34.8,34.8,0,0,1-6.86,1,4.67,4.67,0,0,0-1.86.4,1.8,1.8,0,0,0-1.89,1.61v1.37a1.61,1.61,0,0,0,1.61,1.61h53.39c14.39,0,26.69-4,36.56-11.82,10.51-8.38,15.84-19.6,15.84-33.34C179,100.39,173,88.79,161.21,79.87Zm-53.34,73.49c-.1-.21-.42-1.15-.42-4.51V78.71c0-3.51.33-4.27.37-4.35s.41-.52,1.38-.83a24.06,24.06,0,0,1,5.51-.68c2.84-.13,6.87-.21,12-.21,9.47,0,16.44,3.7,21.33,11.32,4.63,7.2,7,17.41,7,30.37,0,13.67-2.31,24-6.87,30.73h0c-4.49,6.62-11.5,9.84-21.43,9.84-3.72,0-7.39,0-11-.06-4.49-.05-6-.36-6.58-.53C108.15,154,107.94,153.52,107.87,153.36Z"/><path class="cls-3" d="M280.76,78.79h0a54.14,54.14,0,0,0-34.25-11.68,53.41,53.41,0,0,0-34.27,12.24c-11.16,9-16.82,20.6-16.82,34.42,0,14.38,5.66,26.19,16.83,35.12a53.66,53.66,0,0,0,34.26,11.83,53,53,0,0,0,34.27-12.38c11.15-9.1,16.81-20.73,16.81-34.56C297.59,99.41,291.93,87.64,280.76,78.79Zm-53.63,66.87c-4.45-7.29-6.71-18-6.71-31.81,0-14,2.26-24.72,6.7-31.87s10.66-10.42,19.3-10.42S261.54,75,265.89,82s6.7,17.88,6.7,31.87c0,13.81-2.31,24.51-6.86,31.8s-10.78,10.63-19.3,10.63S231.49,152.8,227.13,145.66Z"/><path class="cls-3" d="M415.11,68.21H385a1.61,1.61,0,0,0-1.61,1.61V71A1.61,1.61,0,0,0,385,72.65c6.43,0,13.86,14.07,13.86,23.24v35.64c0,8.23-3.45,14.4-10.56,18.85a29.19,29.19,0,0,1-15.69,4.81c-9.71,0-16.46-2.2-20.07-6.53-3-3.59-4.54-9.81-4.54-18.49V78.69a10.29,10.29,0,0,1,.45-3.91,6.35,6.35,0,0,1,1.71-.71,33.17,33.17,0,0,1,6.46-1,4.13,4.13,0,0,0,1.67-.41h.45A1.61,1.61,0,0,0,360.38,71V69.82a1.61,1.61,0,0,0-1.61-1.61H315.29a1.61,1.61,0,0,0-1.61,1.61V71a1.61,1.61,0,0,0,1.61,1.61c3.22,0,5,.09,5.51.36a6.11,6.11,0,0,0,2.35,1.2c.79.27,1.1.46,1.11.43.09.19.41,1.07.41,4.07V133c0,9,4.92,16.1,14.63,21.12,8.49,4.39,19.16,6.61,31.71,6.61a38.87,38.87,0,0,0,19.64-5.42c9.12-5.29,13.75-13.26,13.75-23.68v-41c0-6.33,4.06-18,10.71-18A1.61,1.61,0,0,0,416.72,71V69.82A1.61,1.61,0,0,0,415.11,68.21Z"/><path class="cls-3" d="M522.56,119.08c-4.62-3.72-11.17-6.48-19.56-8.24,7.44-1.6,12.75-3.79,16.12-6.6,3.76-3,5.66-7.58,5.66-13.53,0-5-3-9.76-9-14.25-7.24-5.47-17-8.24-29.15-8.24H428.35a1.61,1.61,0,0,0-1.61,1.61V71a1.61,1.61,0,0,0,1.61,1.61c10,0,12.82,1.94,12.84,1.84.07.13.42,1,.42,4.09v70.27c0,3.34-.37,4.07-.41,4.14a2.64,2.64,0,0,1-1.42.9,10.34,10.34,0,0,0-1.13.43c-.81.35-1.34.58-10.29.58a1.61,1.61,0,0,0-1.61,1.61v1.37a1.61,1.61,0,0,0,1.61,1.61H496c10.16,0,18.76-2.74,25.57-8.13,6.06-4.75,9.13-10,9.13-15.6A20.5,20.5,0,0,0,522.56,119.08Zm-27.27-13.77c-3.52,2.29-9.15,3.45-16.74,3.45H465V78.61a20.34,20.34,0,0,1,.34-4.91c.06-.19.15-.5.89-.69a20.52,20.52,0,0,1,4.67-.37h7.83c8.38,0,14.34,1.45,17.73,4.31s5,7.82,5,15C501.41,98.29,499.41,102.66,495.28,105.31ZM466.9,154.23c-1.14-.37-1.46-.78-1.54-.92s-.39-.86-.39-4.46V113.2h17.8c8.05,0,14.19,2.1,18.26,6.23,3.73,3.78,5.62,9.3,5.62,16.41,0,5.93-1.62,10.57-4.8,13.8h0c-3.5,3.58-9,5.4-16.29,5.4-7.58,0-12.21,0-14.16-.14A17.11,17.11,0,0,1,466.9,154.23Z"/><path class="cls-3" d="M626.39,119.3h-2.14a1.61,1.61,0,0,0-1.61,1.61c0,24.87-13.38,33.73-25.91,33.73-9,0-15.36-.44-18.77-1.29-.81-.27-1.06-.44-1.11-.44-.08-.17-.41-1-.41-4.2v-70a10.51,10.51,0,0,1,.44-3.92,6.15,6.15,0,0,1,1.72-.71,34.93,34.93,0,0,1,6.92-1,18.31,18.31,0,0,0,2.2-.27,24.73,24.73,0,0,1,4.53-.15A1.61,1.61,0,0,0,593.87,71V69.82a1.61,1.61,0,0,0-1.61-1.61H542.16a1.61,1.61,0,0,0-1.61,1.61V71a1.61,1.61,0,0,0,1.61,1.61,33.21,33.21,0,0,1,9.21,1.59c.92.27,1.28.46,1.34.46h0c.08.18.38,1,.38,4v70.13c0,3.12-.3,3.82-.32,3.86s-.3.42-1.6.84a29.57,29.57,0,0,1-9,1.35,1.61,1.61,0,0,0-1.61,1.61v1.37a1.61,1.61,0,0,0,1.61,1.61h84.23a1.61,1.61,0,0,0,1.61-1.61v-37A1.61,1.61,0,0,0,626.39,119.3Z"/><path class="cls-3" d="M731,129h-2.13a1.61,1.61,0,0,0-1.6,1.41c-1.53,12.82-17.63,24.22-29.24,24.22q-8.77,0-12.19-.14a23.62,23.62,0,0,1-5.66-.83,5.52,5.52,0,0,1-2.12-.9c0-.07-.32-.79-.32-4.06V120c18.55.11,25,2.19,26.46,13a1.6,1.6,0,0,0,1.59,1.4h2a1.61,1.61,0,0,0,1.61-1.61v-38a1.61,1.61,0,0,0-1.61-1.61h-2a1.61,1.61,0,0,0-1.59,1.4c-1.44,11.25-4,18.18-26.46,18.49V78.75c0-3.26.3-4,.32-4a2.24,2.24,0,0,1,1.08-.75A46.62,46.62,0,0,1,690,72.72c4.18,0,8.35-.07,12.48-.07,9.64,0,19.42,8.22,19.42,14.14a1.61,1.61,0,0,0,1.61,1.61h2.13a1.61,1.61,0,0,0,1.61-1.61v-17a1.61,1.61,0,0,0-1.61-1.61H641.56A1.61,1.61,0,0,0,640,69.82V71a1.61,1.61,0,0,0,1.61,1.61c.85,0,1.35,0,1.64,0a6.51,6.51,0,0,0,2.51.53,43.78,43.78,0,0,1,7.06,1,4.86,4.86,0,0,1,1.27.46c.08.17.38,1,.38,4v70.13c0,3.12-.3,3.82-.32,3.85a2.54,2.54,0,0,1-1.35.77c-.69.22-1.19.41-1.63.59-1.42.56-2.13.84-9.57.84a1.61,1.61,0,0,0-1.61,1.61v1.37a1.61,1.61,0,0,0,1.61,1.61H731a1.61,1.61,0,0,0,1.61-1.61V130.61A1.61,1.61,0,0,0,731,129Z"/><text class="cls-4" transform="translate(1383.32 329.29)"><tspan class="cls-5">Y</tspan><tspan x="88.75" y="0">OU&apos;LL </tspan></text><text class="cls-4" transform="translate(458.01 329.28)">FIND THINGS </text><text class="cls-4" transform="translate(1001.37 523.74)"> <tspan class="cls-5" x="34.02" y="0">Y</tspan><tspan x="122.78" y="0">OUR STYLE </tspan></text><text class="cls-4" transform="translate(1212.73 426.62)">FIND</text><text class="cls-4" transform="translate(458.01 426.62)"><tspan class="cls-6">L</tspan><tspan class="cls-7" x="81.62" y="0">O</tspan><tspan x="174" y="0">VE.</tspan></text><text class="cls-4" transform="translate(1583.66 426.62)">OUT</text></g></svg>