<svg xmlns="http://www.w3.org/2000/svg" viewBox="0 0 78.56 153.39"><title>goodgoods</title><g id="font"><path d="M41.95,0H73.57c0,.16,0,.31,0,.47q0,13.93,0,27.87c0,.2,0,.4-.06.65H70.62c-4.36,0-8.72,0-13.07,0a5.82,5.82,0,0,0-6.12,4.84A9.73,9.73,0,0,0,51.19,36q0,9.9,0,19.81v.87h28c0,.26,0,.46-.08.66q-2.61,13.47-5.2,26.94c-.13.68-.35.88-1,.88-7,0-14,0-21,0h-1v68.25H17.53V84.74H0V55.84H17.41c0-.41,0-.74,0-1.07,0-9.21,0-18.42,0-27.63a20.36,20.36,0,0,1,.82-6C21.39,11.5,28,5.11,37.21,1.26A34.92,34.92,0,0,1,41.95,0Z"/></g></svg>