<svg xmlns="http://www.w3.org/2000/svg" viewBox="0 0 600.96 57.47"><defs><style>.cls-1{fill:#0b2659;}</style></defs><title>horizontal-logo</title><g id="font"><path class="cls-1" d="M44.45,14.08a25,25,0,0,1,13.2-4.36H58l53.05-2C109.7,2.49,106,0,99.56,0h-.84L32,.29A24.27,24.27,0,0,1,44.45,14.08Z"/><path class="cls-1" d="M42.45,15.6A21.78,21.78,0,0,0,21.8.34h-.36a21.71,21.71,0,0,0-15,37.14,21.58,21.58,0,0,0,15.27,6.28h.12A22.13,22.13,0,0,0,34,39.92a24.69,24.69,0,0,1-.54-4.52A25.09,25.09,0,0,1,42.45,15.6Z"/><path class="cls-1" d="M125.34,9.65H125l-11,.41-.58,0h0l-.55,0h-.08l-.54,0h0l-.58,0-43,1.61A25,25,0,0,1,83.42,31c0,.19.07.38.1.58v0c0,.18,0,.36.05.54v0h0c0,.19,0,.39,0,.57v0c0,.19,0,.39,0,.58s.05.55.06.83a24.91,24.91,0,0,1-5.54,16.31L128.1,27.91c5-2.5,7.42-5.81,7.27-9.83C135.25,14.93,133.79,9.65,125.34,9.65Z"/><path class="cls-1" d="M81.24,33.92c0-.2,0-.39,0-.58h0c0-.2,0-.39,0-.57v-.06c0-.18,0-.37,0-.55,0,0,0,0,0,0,0-.19-.06-.38-.09-.58A22.63,22.63,0,0,0,58.62,12.15h-.72a22.51,22.51,0,0,0-12.72,4.41l-.5.39,0,0-.47.37,0,0,0,0-.48.4,0,0c-.18.16-.34.33-.51.49a22.59,22.59,0,0,0-7.14,17,22.23,22.23,0,0,0,.27,2.82c0,.23.08.45.12.68v.05c0,.21.07.42.11.63v.09c0,.2.1.4.15.6v0c.05.2.11.4.17.6l0,.16c.05.19.1.38.16.56v0c.06.17.11.35.17.52v.07c.06.18.14.34.2.52v0l.21.55a22.8,22.8,0,0,0,21,14.19h.54a22.76,22.76,0,0,0,5.69-.88l.08,0a22.33,22.33,0,0,0,6-2.73A22.78,22.78,0,0,0,75,50.46a22.52,22.52,0,0,0,6.26-16.18C81.26,34.16,81.24,34,81.24,33.92Z"/><path class="cls-1" d="M599.56,42.88H582.1a19.12,19.12,0,0,0,6.54-3.29,14.37,14.37,0,0,0,5.73-11.84c0-5-2.17-9.07-6.45-12.24a20.39,20.39,0,0,0-12.45-4.14H556.68a.58.58,0,0,0-.58.57v.43a.58.58,0,0,0,.58.57c3.32,0,3.32.12,3.32,2.16V40c0,1.27-.51,1.66-.95,1.86a6.26,6.26,0,0,1-2.38.29.58.58,0,0,0-.58.57v.15H541.56a20.21,20.21,0,0,0,5.25-3.05,15.16,15.16,0,0,0,6.08-12.28,15.06,15.06,0,0,0-6.09-12.43A19.84,19.84,0,0,0,534.41,11,19.55,19.55,0,0,0,522,15.32a15,15,0,0,0-6.09,12.23A15.17,15.17,0,0,0,522,40a19.62,19.62,0,0,0,5,2.85H500a20.2,20.2,0,0,0,5.25-3.05,15.16,15.16,0,0,0,6.08-12.28,15.06,15.06,0,0,0-6.09-12.43A19.83,19.83,0,0,0,492.81,11a19.56,19.56,0,0,0-12.4,4.35,15,15,0,0,0-6.09,12.23A15.18,15.18,0,0,0,480.41,40a19.62,19.62,0,0,0,5,2.85h-19.1V33.3a3.43,3.43,0,0,1,.2-1.44,8.84,8.84,0,0,1,2.47-.66.58.58,0,0,0,.58-.57v-.44a.58.58,0,0,0-.58-.57H455.83a.58.58,0,0,0-.58.57v.44a.58.58,0,0,0,.58.57c1,0,2.07.23,2.38.73a4.44,4.44,0,0,1,.1,1.37v3.06a5.51,5.51,0,0,1-2,4.66,9.39,9.39,0,0,1-5.88,1.63,6.94,6.94,0,0,1-6.24-3.74c-1.57-2.58-2.36-6.34-2.36-11.19s.86-8.68,2.55-11.32a7.55,7.55,0,0,1,6.71-3.85,11.4,11.4,0,0,1,8,3.13,17.26,17.26,0,0,1,4.87,9.65.58.58,0,0,0,.57.46H465a.58.58,0,0,0,.58-.57V11.54a.57.57,0,0,0-.5-.56.59.59,0,0,0-.64.41,4,4,0,0,1-1.91,2.37,2.91,2.91,0,0,1-2.54-.47A17.86,17.86,0,0,0,450.1,11a16.78,16.78,0,0,0-11.2,3.55c-3.88,3.18-6,8.06-6,13.75s2.06,10.19,5.8,13a12.81,12.81,0,0,0,2.85,1.62H398.21V33.4a.58.58,0,0,0-.58-.58h-.77a.58.58,0,0,0-.58.51c-.55,4.61-6.37,8.71-10.57,8.71q-3.17,0-4.41,0a8.59,8.59,0,0,1-2-.3,2,2,0,0,1-.77-.32,4.66,4.66,0,0,1-.11-1.46V29.58c6.71,0,9.05.79,9.57,4.69a.58.58,0,0,0,.58.5h.71a.58.58,0,0,0,.58-.58V20.55a.58.58,0,0,0-.58-.58h-.71a.58.58,0,0,0-.58.5c-.52,4-1.44,6.54-9.57,6.65V14.75a4.67,4.67,0,0,1,.11-1.44.81.81,0,0,1,.39-.27,16.94,16.94,0,0,1,3.91-.45l4.51,0c3.48,0,7,3,7,5.08a.58.58,0,0,0,.58.58h.77a.58.58,0,0,0,.58-.58v-6.1a.58.58,0,0,0-.58-.58h-30.4a.58.58,0,0,0-.58.58V12a.58.58,0,0,0,.58.58h.59a2.37,2.37,0,0,0,.91.19,15.91,15.91,0,0,1,2.55.37,1.77,1.77,0,0,1,.46.17,4.11,4.11,0,0,1,.14,1.45V40a4.32,4.32,0,0,1-.12,1.39.92.92,0,0,1-.49.28c-.25.08-.43.15-.59.21-.51.2-.77.3-3.46.3a.58.58,0,0,0-.58.58v.17h-4.32v-13a.58.58,0,0,0-.58-.58H359a.58.58,0,0,0-.58.58c0,8.94-4.84,12.13-9.37,12.13a33.54,33.54,0,0,1-6.79-.46c-.29-.1-.38-.16-.4-.16a4.19,4.19,0,0,1-.15-1.51V14.74a3.75,3.75,0,0,1,.16-1.41,2.23,2.23,0,0,1,.62-.26,12.68,12.68,0,0,1,2.5-.37,6.68,6.68,0,0,0,.8-.1,9,9,0,0,1,1.64-.05A.58.58,0,0,0,348,12v-.44a.58.58,0,0,0-.58-.58H329.34a.58.58,0,0,0-.58.58V12a.58.58,0,0,0,.58.58,12.06,12.06,0,0,1,3.33.57c.33.1.46.17.48.17h0a4.19,4.19,0,0,1,.14,1.44V40a4.23,4.23,0,0,1-.12,1.39s-.11.15-.58.3a10.75,10.75,0,0,1-3.25.49.58.58,0,0,0-.58.58v.17H318.18a13,13,0,0,0,3.7-2c2.19-1.71,3.3-3.6,3.3-5.61a7.35,7.35,0,0,0-2.93-6,16.73,16.73,0,0,0-7.07-3A13.67,13.67,0,0,0,321,23.92a5.89,5.89,0,0,0,2-4.87c0-1.78-1.09-3.51-3.25-5.12-2.62-2-6.16-3-10.54-3H288.19a.58.58,0,0,0-.58.58V12a.58.58,0,0,0,.58.58c3.61,0,4.64.7,4.64.66a3.8,3.8,0,0,1,.15,1.47V40a3.75,3.75,0,0,1-.15,1.49,1,1,0,0,1-.51.32,3.68,3.68,0,0,0-.41.16c-.29.13-.48.21-3.72.21a.58.58,0,0,0-.58.58v.17H273.39c.39-.18.78-.38,1.17-.6a9.28,9.28,0,0,0,5-8.51V19c0-2.28,1.47-6.45,3.87-6.45A.58.58,0,0,0,284,12v-.44a.58.58,0,0,0-.58-.58H272.53a.58.58,0,0,0-.58.58V12a.58.58,0,0,0,.58.58c2.32,0,5,5.06,5,8.36V33.73a7.49,7.49,0,0,1-3.82,6.78,10.6,10.6,0,0,1-5.67,1.73c-3.51,0-6-.79-7.26-2.35-1.09-1.29-1.64-3.53-1.64-6.65V14.73a3.68,3.68,0,0,1,.16-1.4,2.3,2.3,0,0,1,.62-.25,12,12,0,0,1,2.33-.37,1.5,1.5,0,0,0,.6-.15H263a.58.58,0,0,0,.58-.58v-.44A.58.58,0,0,0,263,11H247.31a.58.58,0,0,0-.58.58V12a.58.58,0,0,0,.58.58,7.17,7.17,0,0,1,2,.13,2.22,2.22,0,0,0,.85.43c.28.1.4.17.4.16a4,4,0,0,1,.15,1.46V34.25c0,3.23,1.78,5.79,5.29,7.59a18.49,18.49,0,0,0,2.43,1H229.55a20.11,20.11,0,0,0,5.29-3.1,15.41,15.41,0,0,0,6.08-12.42,15.3,15.3,0,0,0-6.08-12.58h0a19.65,19.65,0,0,0-12.38-4.2A19.38,19.38,0,0,0,210.06,15,15.27,15.27,0,0,0,204,27.35,15.43,15.43,0,0,0,210.06,40a19.54,19.54,0,0,0,5.07,2.9H185.74a19,19,0,0,0,6.59-3.35,14.61,14.61,0,0,0,5.73-12,14.91,14.91,0,0,0-6.45-12.39A20.21,20.21,0,0,0,179.17,11H159.81a.58.58,0,0,0-.58.58V12a.58.58,0,0,0,.58.58c2.26,0,2.38.09,2.49.17a2.49,2.49,0,0,0,.83.4c.32.1.45.17.45.15a4.14,4.14,0,0,1,.15,1.46V40a6,6,0,0,1-.11,1.47h0a1.93,1.93,0,0,1-.55.22,12.65,12.65,0,0,1-2.48.34,1.69,1.69,0,0,0-.67.14.65.65,0,0,0-.69.58v.17H154c-.77,0-1.4.3-1.4.67s.63.67,1.4.67H599.56c.77,0,1.4-.3,1.4-.67S600.33,42.88,599.56,42.88Zm-31.1-27.79a4.34,4.34,0,0,1,.14-1.55.9.9,0,0,1,.5-.29,8.9,8.9,0,0,1,2-.24c1,0,2.49-.07,4.34-.07a8.57,8.57,0,0,1,7.72,4c1.67,2.56,2.52,6.19,2.52,10.79,0,4.86-.84,8.53-2.49,10.92s-4.16,3.5-7.76,3.5l-4,0a9.55,9.55,0,0,1-2.38-.19c-.36-.12-.44-.28-.46-.34a4.5,4.5,0,0,1-.15-1.6Zm-41.07,1.16a8.5,8.5,0,0,1,14,0c1.61,2.54,2.43,6.35,2.43,11.32s-.84,8.71-2.48,11.3a7.72,7.72,0,0,1-7,3.78,7.63,7.63,0,0,1-7-3.77c-1.61-2.59-2.43-6.39-2.43-11.3S525.78,18.79,527.39,16.25Zm-41.59,0a8.5,8.5,0,0,1,14,0c1.61,2.54,2.43,6.35,2.43,11.32s-.84,8.71-2.48,11.3a7.72,7.72,0,0,1-7,3.78,7.63,7.63,0,0,1-7-3.77c-1.61-2.59-2.43-6.39-2.43-11.3S484.19,18.79,485.8,16.25ZM301.43,14.7a7.28,7.28,0,0,1,.12-1.76c0-.07.05-.18.32-.25a7.46,7.46,0,0,1,1.69-.13h2.83c3,0,5.18.52,6.41,1.55s1.8,2.81,1.8,5.39c0,2.28-.72,3.85-2.21,4.8-1.27.82-3.31,1.24-6.05,1.24h-4.91Zm0,12.43h6.44c2.91,0,5.13.75,6.6,2.24a8.06,8.06,0,0,1,2,5.9,6.77,6.77,0,0,1-1.74,5h0c-1.27,1.29-3.25,1.94-5.89,1.94s-4.41,0-5.12,0a6.21,6.21,0,0,1-1.63-.24c-.41-.13-.53-.28-.56-.33a4.55,4.55,0,0,1-.14-1.6Zm-86-11.22a8.43,8.43,0,0,1,14,0c1.61,2.57,2.42,6.43,2.42,11.46S231,36.18,229.4,38.8a7.69,7.69,0,0,1-7,3.82,7.6,7.6,0,0,1-7-3.82c-1.61-2.62-2.42-6.47-2.42-11.44S213.83,18.49,215.44,15.91Zm-43.27-1.17a4.5,4.5,0,0,1,.13-1.56c0-.06.15-.19.5-.3a8.74,8.74,0,0,1,2-.25c1,0,2.49-.07,4.34-.07a8.53,8.53,0,0,1,7.71,4.07c1.67,2.59,2.52,6.26,2.52,10.92,0,4.91-.84,8.63-2.49,11h0c-1.62,2.38-4.16,3.54-7.75,3.54l-4,0a9.52,9.52,0,0,1-2.38-.19c-.36-.12-.44-.29-.46-.34a4.64,4.64,0,0,1-.15-1.62ZM458.35,41.8c.39-.32.8-.64,1.21-1a5.1,5.1,0,0,1,3-.86,1.81,1.81,0,0,1,1.47.74,3.68,3.68,0,0,1,.62,2.15h-8.2C457.06,42.58,457.68,42.23,458.35,41.8Z"/></g></svg>