<svg xmlns="http://www.w3.org/2000/svg" viewBox="0 0 46.48 106.5"><defs><style>.cls-1{fill:#fff;}</style></defs><title>scroll</title><g id="font"><path class="cls-1" d="M0,0V83l23.24,23.84L46.41,83.09l.07-.07V0ZM46,82.82,23.24,106.14.5,82.82V.5H46Z"/><path class="cls-1" d="M19.2,19.63a4.06,4.06,0,0,0,2.27.68,3.61,3.61,0,0,0,1.9-.51,3.91,3.91,0,0,0,1.42-1.64,16.64,16.64,0,0,0,1.13-3.72,3.24,3.24,0,0,1,.47-1.33.71.71,0,0,1,.55-.29.9.9,0,0,1,.71.35,1.59,1.59,0,0,1,.29,1,2,2,0,0,1-.39,1.32,2,2,0,0,1-1.26.63l.22,3.74a4,4,0,0,0,2.91-1.54,6.45,6.45,0,0,0,.91-3.75,8,8,0,0,0-.5-3.15,3.8,3.8,0,0,0-1.38-1.72,3.36,3.36,0,0,0-1.87-.57,3.13,3.13,0,0,0-2.48,1.12A8.63,8.63,0,0,0,22.56,14a5.06,5.06,0,0,1-.74,2,1.18,1.18,0,0,1-.89.44A1.19,1.19,0,0,1,20,16a1.94,1.94,0,0,1-.4-1.31,2.1,2.1,0,0,1,.78-1.75,2.88,2.88,0,0,1,1.4-.5l-.24-3.77a5,5,0,0,0-3.2,1.43q-1.26,1.26-1.26,4.53a7.7,7.7,0,0,0,.54,3.09A4.27,4.27,0,0,0,19.2,19.63Z"/><path class="cls-1" d="M19.06,33.22a6.4,6.4,0,0,0,2.44,1.1l1-3.47A4,4,0,0,1,20.7,30a2.56,2.56,0,0,1,.15-3.54,4.8,4.8,0,0,1,2.92-.65,4.59,4.59,0,0,1,2.52.54,2.5,2.5,0,0,1,.84,3.14,2.29,2.29,0,0,1-.7.81,3,3,0,0,1-.86.38l.78,3.5a5.76,5.76,0,0,0,3-2.06,6.5,6.5,0,0,0,1-3.81,6.44,6.44,0,0,0-1.71-4.79,6.66,6.66,0,0,0-4.89-1.69,7.25,7.25,0,0,0-3.92,1,5.42,5.42,0,0,0-2.14,2.29,8.25,8.25,0,0,0-.61,3.42,7,7,0,0,0,.5,2.84A4.79,4.79,0,0,0,19.06,33.22Z"/><path class="cls-1" d="M22.21,41.6a3,3,0,0,1-1,.72L17.3,44.43v4.48L21,47a5,5,0,0,0,.8-.56,4,4,0,0,0,.67-.63,4,4,0,0,0,.47-1,4.79,4.79,0,0,0,.51,1.39,3.75,3.75,0,0,0,5.17,1.11,3,3,0,0,0,1.17-1.57,9.59,9.59,0,0,0,.31-2.81V36.3H17.3v4h5.21v.35A1.66,1.66,0,0,1,22.21,41.6Zm2.72-1.32h2.61V42a2.38,2.38,0,0,1-.33,1.48,1.3,1.3,0,0,1-1.7.14,1,1,0,0,1-.4-.64,6,6,0,0,1-.17-1Z"/><path class="cls-1" d="M20.12,62.21a7.89,7.89,0,0,0,3.69.76,6.48,6.48,0,0,0,4.82-1.73,6.7,6.7,0,0,0,1.72-4.93,6.59,6.59,0,0,0-1.75-4.87,6.61,6.61,0,0,0-4.89-1.75,7.26,7.26,0,0,0-3.74.88,5.4,5.4,0,0,0-2.19,2.31,8.2,8.2,0,0,0-.69,3.59,7.23,7.23,0,0,0,.8,3.57A5.39,5.39,0,0,0,20.12,62.21Zm.77-7.85a4.3,4.3,0,0,1,2.79-.72,4.31,4.31,0,0,1,2.81.73,2.41,2.41,0,0,1,.85,1.92,2.5,2.5,0,0,1-.84,2,4,4,0,0,1-2.65.73,4.74,4.74,0,0,1-3-.7,2.73,2.73,0,0,1,0-3.94Z"/><polygon class="cls-1" points="17.3 75.25 20.46 75.25 20.46 69.07 30.13 69.07 30.13 65.11 17.3 65.11 17.3 75.25"/><polygon class="cls-1" points="17.3 87.2 20.46 87.2 20.46 81.02 30.13 81.02 30.13 77.06 17.3 77.06 17.3 87.2"/></g></svg>