<svg xmlns="http://www.w3.org/2000/svg" viewBox="0 0 227.65 19.07"><defs>
<style>
.cls-1{
  fill: #0b2659;
  }
</style>
</defs><title>goodgoods</title><g id="font"><path class="cls-1" d="M0,0H17.92V4.71h-6V19.07H6V4.71H0Z"/><path class="cls-1" d="M32.31,15.93H25.62l-.93,3.15h-6L25.84,0h6.43l7.17,19.07H33.26ZM31.09,11.8,29,4.94,26.9,11.8Z"/><path class="cls-1" d="M40.28,12.66l5.61-.34a4.05,4.05,0,0,0,.74,2,3.16,3.16,0,0,0,2.6,1.12,3,3,0,0,0,1.94-.57,1.7,1.7,0,0,0,.68-1.33,1.67,1.67,0,0,0-.65-1.28,7.7,7.7,0,0,0-3-1.07A13.05,13.05,0,0,1,42.66,9,4.44,4.44,0,0,1,41,5.4a4.72,4.72,0,0,1,.85-2.69,5.62,5.62,0,0,1,2.56-2A12.35,12.35,0,0,1,49.1,0a9.85,9.85,0,0,1,5.58,1.31A5.63,5.63,0,0,1,57,5.5l-5.56.31A2.86,2.86,0,0,0,50.48,4a3.06,3.06,0,0,0-2-.57A2.42,2.42,0,0,0,47,3.86a1.27,1.27,0,0,0-.52,1,1,1,0,0,0,.43.79,4.92,4.92,0,0,0,2,.68A25.37,25.37,0,0,1,54.39,8a5.76,5.76,0,0,1,2.43,2,5.05,5.05,0,0,1,.76,2.73,5.71,5.71,0,0,1-1,3.27,6.31,6.31,0,0,1-2.84,2.27,11.81,11.81,0,0,1-4.59.77q-4.87,0-6.74-1.81A7,7,0,0,1,40.28,12.66Z"/><path class="cls-1" d="M59.21,0H77.13V4.71h-6V19.07H65.22V4.71h-6Z"/><path class="cls-1" d="M79.78,0h15.8V4.07H85.69v3h9.17V11H85.69v3.76H95.86v4.32H79.78Z"/><path class="cls-1" d="M99.07,0h14.57V4.1H105V7.43h7.39v3.85H105v7.79H99.07Z"/><path class="cls-1" d="M129.23,0h5.88V11.17a9.28,9.28,0,0,1-.53,3.14,6.77,6.77,0,0,1-1.65,2.58,6.61,6.61,0,0,1-2.36,1.55,12.07,12.07,0,0,1-4.12.63,26.42,26.42,0,0,1-3-.19,8,8,0,0,1-2.75-.76,6.87,6.87,0,0,1-2-1.62,5.91,5.91,0,0,1-1.26-2.16,11,11,0,0,1-.55-3.17V0h5.88V11.44a3.23,3.23,0,0,0,.87,2.4,3.77,3.77,0,0,0,4.79,0,3.22,3.22,0,0,0,.87-2.41Z"/><path class="cls-1" d="M139,0h5.89V14.38h9.2v4.7H139Z"/><path class="cls-1" d="M165.67,0h5.89V14.38h9.2v4.7H165.67Z"/><path class="cls-1" d="M183.68,0h5.91V19.07h-5.91Z"/><path class="cls-1" d="M193.84,0h14.57V4.1h-8.65V7.43h7.39v3.85h-7.39v7.79h-5.92Z"/><path class="cls-1" d="M211.57,0h15.8V4.07h-9.89v3h9.17V11h-9.17v3.76h10.17v4.32H211.57Z"/></g></svg>