<?xml version="1.0" encoding="utf-8"?>
<!-- Generator: Adobe Illustrator 21.1.0, SVG Export Plug-In . SVG Version: 6.00 Build 0)  -->
<svg version="1.2" baseProfile="tiny" xmlns="http://www.w3.org/2000/svg" xmlns:xlink="http://www.w3.org/1999/xlink" x="0px"
	 y="0px" viewBox="0 0 618.3 597.5" xml:space="preserve">
<g id="ref">
</g>
<g id="font">
	<g id="非洲菊">
	</g>
	<g>
		<g>
			<path fill="none" d="M461.5,369.9c-0.3,0.5-0.4,3.4-0.5,8.8l11.2-9.3c-1.6-0.3-3.5-0.5-5.7-0.5
				C463.6,369,461.9,369.3,461.5,369.9z"/>
		</g>
		<g>
			<path fill="none" d="M98.5,138.8c9,0,17-4.1,22.5-10.5h0.3c5.5,6.4,13.5,10.5,22.5,10.5s17-4.1,22.5-10.5h57.3v-1.6h-56
				c3.8-5.2,6.1-11.6,6.1-18.6c0-17-13.4-30.8-29.9-30.8c-9,0-17.2,4.1-22.6,10.7c-5.5-6.6-13.6-10.7-22.6-10.7
				C82,77.2,68.6,90.9,68.6,108c0,7,2.3,13.5,6.1,18.6H21.2v1.6H76C81.5,134.7,89.5,138.8,98.5,138.8z"/>
		</g>
		<g>
			<path fill="none" d="M434.2,213.4c0.7-0.7,1.2-1.4,1.6-2.1l-11.2,3.5c1.2,0.5,2.5,0.7,3.9,0.7
				C430.8,215.5,432.7,214.8,434.2,213.4z"/>
		</g>
		<g>
			<path fill="none" d="M298.8,400.8c-0.4-1.2-0.8-2.3-1.2-3.4c0,0,0-0.1,0-0.1c-0.4-1.2-0.8-2.3-1.2-3.4c0,0,0-0.1,0-0.1
				c0-0.1-0.1-0.2-0.1-0.2c-0.4-1.1-0.7-2.2-1.1-3.2c0-0.1,0-0.2-0.1-0.2c-0.5-1.1-1-2.2-1.5-3.3c-12.4-28.7-33.8-52.4-61.8-67.6
				c-31.9-17.4-68.8-21.7-103.8-12.3c-0.9,0.2-1.7,0.5-2.6,0.7c-0.2,0.1-0.5,0.1-0.7,0.2c-0.2,0-0.3,0.1-0.5,0.2
				c-0.2,0.1-0.4,0.1-0.5,0.2c-28.3,8.6-51.9,25.4-69.1,47c-0.8,1-1.6,2.1-2.3,3.1c0,0.1-0.1,0.1-0.1,0.2c-0.7,1-1.5,2-2.2,3
				c0,0.1-0.1,0.1-0.2,0.2c-0.1,0.1-0.1,0.1-0.2,0.2c-0.7,1.1-1.5,2.1-2.2,3.2c-0.1,0.1-0.1,0.2-0.2,0.3c-0.8,1.2-1.5,2.5-2.3,3.8
				c-20.2,32.8-27,73.7-15.3,113.4c1.7,5.7,3.8,11.2,6.2,16.5c0.6,1.3,1.2,2.6,1.8,3.9c0,0.1,0.1,0.2,0.1,0.3
				c0.6,1.2,1.1,2.4,1.7,3.6c0.1,0.1,0.1,0.2,0.2,0.3c0,0.1,0.1,0.1,0.1,0.2c0.6,1.1,1.2,2.2,1.9,3.4c0,0,0,0.1,0.1,0.1
				c0.6,1.1,1.3,2.2,2,3.3c0.2,0.3,0.3,0.6,0.5,0.9c0.6,1,1.2,2.1,1.9,3.1c0,0.1,0.1,0.1,0.1,0.2c0.6,1,1.2,1.9,1.9,2.9
				c0,0.1,0.1,0.1,0.1,0.2c0,0.1,0.1,0.1,0.1,0.2c0.7,1,1.4,1.8,2.1,2.8c0,0.1,0.1,0.1,0.1,0.2c0.7,1,1.4,2,2.2,2.9
				c33.8,44.2,92.3,66.3,148.6,51.1c1.1-0.3,2.1-0.6,3.2-0.9c11.6-3.4,22.5-8.4,32.7-14.5c0.1-0.1,0.3-0.2,0.4-0.3
				c11.7-7.1,22.3-15.8,31.5-26c7.3-8.1,13.8-17.1,19.2-26.9c17.9-33,22-71,11.3-107.1C299.4,402.2,299.1,401.5,298.8,400.8z"/>
		</g>
		<g>
			<path fill="none" d="M523.9,184l-2,0.6l-65.5,20.4l-3.5,1.1l-0.2,0.1l-3.2,1l-0.2,0.1l-0.2,0.1l-3.2,1l-0.2,0.1l-2.9,0.9
				c-0.3,0.9-0.8,1.7-1.3,2.4c-1.4,1.9-3,3.4-5,4.5c-1.9,1.1-4.4,1.6-7.4,1.6c-1.7,0-3.5-0.2-5.3-0.7c-1-0.3-2-0.6-3-1l-4.1,1.3
				c-0.3,0.4-0.5,0.6-0.9,0.6c-0.2,0-0.3-0.1-0.4-0.2l-198.8,61.8c0,1.2,0.1,2,0.2,2.4c0.2,1.2,0.9,2.2,2.1,2.9
				c1.2,0.7,3.3,1.1,6.2,1.1c10.6,0,17.6-3.4,20.9-10.1c0.5-0.9,1-1.4,1.5-1.4c0.8,0,1.2,0.3,1.2,1c0,0.4-0.1,1-0.3,1.7l-2.7,12
				l-15.1,0c-4.3,0-8.2-0.1-11.9-0.3c-3.7-0.2-6.6-0.3-8.7-0.3c-2.3,0-5.9,0.1-10.6,0.4c-0.6,0.1-1,0.1-1.3,0.1c-1.3,0-2-0.4-2-1.3
				c0-0.8,0.5-1.2,1.6-1.2c2.7,0,4.5-0.7,5.4-2.2c0.2-0.2,0.3-0.6,0.4-0.9l-16.8,5.2c18,2.6,35.7,8.3,52.1,17.3
				c30.7,16.7,54.2,42.6,68,74c0.5,1.1,1.1,2.2,1.5,3.3c0,0.1,0.1,0.1,0.1,0.2c0.4,1,0.8,2.1,1.2,3.2c0,0.1,0.1,0.2,0.1,0.2
				c0,0,0,0.1,0,0.1c0.4,1.1,0.8,2.3,1.2,3.4c0,0,0,0.1,0,0.1c0.4,1.1,0.8,2.3,1.2,3.4c0.5,1.6,1.2,3.2,1.7,4.9
				c10.5,35.7,8,73-6.8,106.7l145.1-119.6c0-0.8,0-1.5,0-2.3c0-7.1-0.3-11.3-0.8-12.7c-0.5-1.4-1.8-2-3.8-2l-0.8,0
				c-0.7,0-1.1-0.3-1.1-0.9c0-0.6,0.6-0.8,1.7-0.8h27.5l94.6-77.9c25.7-23,35-46.8,27.6-70.7C591.8,199.6,574.5,170.3,523.9,184z"/>
		</g>
		<g>
			<path fill="#FFFFFF" d="M417,216.6c-0.1,0.3-0.2,0.5-0.3,0.7l4.1-1.3c-0.9-0.4-1.8-0.8-2.7-1.2
				C417.6,215.2,417.3,215.8,417,216.6z"/>
		</g>
		<g>
			<path fill="#FFFFFF" d="M106.6,235.4c-4.4,0-8,2.1-10.8,6.4c-2.9,4.3-4.3,10.6-4.3,19c0,8.1,1.4,14.3,4.1,18.8
				c2.7,4.4,6.4,6.7,11,6.7c4.1,0,7.6-2,10.7-6c3-4,4.5-10.5,4.5-19.4c0-8.4-1.4-14.8-4.3-19C114.6,237.5,111,235.4,106.6,235.4z"/>
		</g>
		<g>
			<path fill="#FFFFFF" d="M574.2,368.6c-1.7,0-2.7,0.1-3,0.3c-0.3,0.2-0.5,0.4-0.6,0.6c-0.1,0.2-0.2,2.5-0.4,6.8l-0.4,10.2
				c-0.1,2.5-0.1,5.6-0.1,9.4c0,2.8,0.1,4.7,0.4,5.8c0.2,1.1,0.8,1.9,1.6,2.4c0.8,0.6,2.2,0.9,4,0.9c4.2,0,7.6-1.5,10-4.4
				c2.5-3,3.7-7.2,3.7-12.7c0-5.6-1.3-10.2-4-13.8C582.8,370.4,579,368.6,574.2,368.6z"/>
		</g>
		<g>
			<path fill="#FFFFFF" d="M0,0v597.5h618.3V0H0z M370.5,182.9c4-4.2,9.5-6.3,16.4-6.3c2.5,0,4.7,0.3,6.6,0.9c2,0.6,4.2,1.4,6.7,2.5
				c0.5,0.2,0.9,0.3,1.3,0.3c0.4,0,0.7-0.3,0.9-0.9c0.3-0.8,0.7-1.1,1.1-1.1c0.5,0,0.9,0.6,1,1.9l0.9,8.7c0,0.4,0.1,0.7,0.1,1
				c0,0.6-0.3,0.9-0.8,0.9c-0.5,0-0.9-0.4-1.3-1.1c-1.6-3.2-3.6-5.9-6.2-7.9c-2.6-2-5.5-3-8.9-3c-4.3,0-7.7,1.8-10.1,5.4
				c-2.4,3.6-3.6,7.9-3.6,12.8c0,5.5,1.3,9.9,4,13.4c2.7,3.5,5.8,5.2,9.5,5.2c1.5,0,3.1-0.4,4.7-1.1c1.6-0.7,2.6-1.5,3.1-2.3
				c0.5-0.8,0.7-2,0.7-3.5c0-3.4-0.1-5.5-0.4-6.3c-0.3-0.8-0.7-1.4-1.3-1.7c-0.6-0.3-1.9-0.6-3.8-0.8c-0.7-0.1-1.1-0.4-1.1-0.9
				c0-0.6,0.4-0.9,1.1-0.9h4.6l13.9-0.3c0.6,0,0.9,0.3,0.9,0.8c0,0.3-0.1,0.5-0.4,0.6c-0.2,0.1-1.1,0.3-2.5,0.6
				c-1.1,0.2-1.8,0.6-2.1,1.1c-0.3,0.5-0.5,3.5-0.7,9.1c0,1.2-0.1,1.9-0.1,2.1c0,0.2-1.2,0.8-3.6,2c-2.3,1.2-4.8,2.1-7.2,2.7
				c-2.5,0.6-5,0.9-7.4,0.9c-4.1,0-7.8-0.8-11.1-2.4c-3.3-1.6-5.9-3.9-7.9-6.9c-2-3-3-6.5-3-10.6
				C364.5,192.1,366.5,187.1,370.5,182.9z M316.7,176.9c0.2,0,0.5,0,0.9,0.1c0.5,0,1.3,0.1,2.5,0.1c2.6,0,5,0,7.3,0.1
				c9.6,11,17.7,19.7,24.1,26.4c0-1.4,0-2.2,0-2.7l0-11.9c0-2.8-0.2-4.8-0.5-6c-0.3-1.2-1-2.2-2.1-2.9c-1-0.7-2.3-1.1-3.6-1.2
				c-0.7-0.1-1.1-0.4-1.1-0.9c0-0.6,0.3-0.9,1-0.9c0.4,0,0.9,0,1.5,0.1c1.1,0.1,2.8,0.2,5,0.2c2.8,0,4.9-0.1,6.3-0.2
				c0.6-0.1,1.1-0.1,1.5-0.1c0.8,0,1.1,0.3,1.1,0.9c0,0.6-0.5,0.9-1.5,1c-1.3,0.1-2.4,0.7-3.5,1.6c-1.1,0.9-1.6,2.8-1.6,5.6
				l0.2,17.1l-0.2,12.8c0,1.1-0.3,1.7-1,1.7c-0.2,0-0.4-0.1-0.6-0.2c-0.2-0.1-1.6-1.5-4.1-4.2c-2.5-2.7-6.3-6.8-11.2-12.4
				c-5-5.6-8.5-9.6-10.5-12c0,0.5-0.1,5.6-0.1,15.2c0,3,0.1,5.3,0.4,7c0.3,1.7,1,2.9,2.4,3.6c1.3,0.8,2.5,1.1,3.6,1.1
				c0.7,0,1,0.3,1,0.8c0,0.6-0.4,0.9-1.1,0.9c-0.5,0-1,0-1.7-0.1c-1.2-0.2-2.7-0.2-4.6-0.2c-3,0-5.2,0.1-6.5,0.3
				c-0.8,0.1-1.4,0.2-1.8,0.2c-0.8,0-1.2-0.3-1.2-1c0-0.5,0.6-0.8,1.9-0.9c2.3-0.2,3.7-1,4.3-2.4c0.6-1.4,0.9-3.3,0.9-5.7
				c0-10.4-0.1-16.7-0.2-19c-0.1-2.3-0.8-4.4-2.2-6.3c-1.3-1.9-3-3-4.8-3.3c-0.8-0.1-1.2-0.5-1.2-0.9
				C315.4,177.3,315.8,176.9,316.7,176.9z M298.3,183.6c-0.2-2.1-0.6-3.4-1.1-3.9c-0.5-0.5-1.5-0.8-2.9-0.9
				c-0.8-0.1-1.1-0.4-1.1-0.9c0-0.5,0.4-0.8,1.1-0.8c0.7,0,2.2,0.1,4.3,0.2c1.7,0.1,3,0.1,4,0.1l9.3-0.2c0.8,0,1.2,0.3,1.2,0.8
				c0,0.5-0.4,0.8-1.1,0.8c-1.6,0.2-2.6,0.5-3.2,0.9c-0.5,0.4-0.9,1.4-1.2,3c-0.3,1.6-0.4,5.1-0.4,10.6c0,6.3,0.1,11.3,0.3,14.7
				c0.2,3.5,0.6,5.6,1.2,6.4s1.6,1.2,3.1,1.2c1,0,1.5,0.3,1.5,0.8c0,0.7-0.5,1.1-1.6,1.1c-0.3,0-0.7,0-1.3,0
				c-3.8-0.3-6.4-0.4-7.8-0.4c-3,0-5.3,0.1-6.7,0.3c-0.8,0.1-1.3,0.1-1.6,0.1c-0.7,0-1.1-0.3-1.1-0.9c0-0.5,0.3-0.7,0.9-0.8
				c1.7-0.2,2.9-0.7,3.5-1.4c0.6-0.7,0.9-2.5,1.1-5.3c0.1-2.8,0.2-7.1,0.2-13C298.7,189.8,298.5,185.7,298.3,183.6z M245.4,215.6
				c1.5-0.2,2.6-0.5,3.2-1c0.6-0.5,1-1.5,1.2-2.8c0.3-1.4,0.4-5.4,0.5-11.9c0-6.6,0.1-10.2,0.1-10.8c0-3-0.1-5.1-0.3-6.5
				c-0.2-1.3-0.6-2.2-1.1-2.7c-0.5-0.5-1.3-0.8-2.3-0.9c-0.8-0.1-1.3-0.2-1.5-0.3c-0.2-0.1-0.3-0.3-0.3-0.7c0-0.6,0.3-0.9,1-0.9
				c0.9,0,2.3,0.1,4.4,0.2c1.1,0.1,2.4,0.1,3.9,0.1l8.5-0.3c1,0,1.5,0.3,1.5,0.9c0,0.6-0.4,0.9-1.2,0.9c-1.3,0-2.2,0.2-2.7,0.5
				c-0.5,0.3-0.9,1-1.1,1.9c-0.2,0.9-0.4,2.8-0.4,5.5l0.1,8.6c2.6,0.3,5.3,0.4,8.3,0.4c2.9,0,5.8-0.1,8.5-0.4l0.3-9.2
				c0-2.6-0.3-4.4-0.8-5.5c-0.5-1.1-1.6-1.7-3.3-1.7c-1.4-0.1-2.1-0.4-2.1-1c0-0.6,0.4-0.9,1.2-0.9c0.9,0,2.3,0,4.2,0.1
				c2.4,0.1,3.8,0.2,4.1,0.2c3.4,0,6.4-0.1,9-0.2c0.5,0,0.8-0.1,1-0.1c0.8,0,1.1,0.3,1.1,0.8c0,0.6-0.4,0.9-1.3,1
				c-1.4,0-2.4,0.2-3,0.6c-0.6,0.4-1,0.9-1.2,1.7c-0.2,0.8-0.4,3.4-0.6,8c-0.1,4.6-0.2,7.7-0.2,9.4c0,7.1,0,11.4,0.1,13
				c0.1,1.6,0.5,2.7,1.1,3.3c0.6,0.6,1.7,0.9,3.2,0.9c0.9,0,1.4,0.3,1.4,0.9c0,0.5-0.4,0.8-1.1,0.8c-0.2,0-0.8,0-1.6-0.1l-8.3-0.3
				c-0.5,0-1.5,0-2.9,0.1c-2.7,0.2-4.5,0.3-5.3,0.3c-0.7,0-1.1-0.3-1.1-0.9c0-0.5,0.3-0.8,0.9-0.8c1.4,0,2.5-0.3,3.2-0.8
				c0.7-0.5,1.1-1.7,1.4-3.5c0.3-1.8,0.4-5.4,0.4-10.8c0-0.6,0-1.4-0.1-2.5c-3.5-0.1-6.6-0.2-9.3-0.2c-3.1,0-5.6,0.1-7.4,0.3
				c-0.2,4-0.3,7.7-0.3,11c0,2.3,0.3,4,0.8,4.9c0.5,0.9,1.6,1.4,3.2,1.5c0.8,0,1.2,0.3,1.2,0.9c0,0.6-0.4,0.8-1.2,0.8
				c-0.3,0-0.7,0-1.3-0.1c-2.4-0.2-4.9-0.3-7.5-0.3c-1.2,0-2.9,0.1-4.9,0.2c-1.4,0.1-2.4,0.1-2.8,0.1c-1,0-1.6-0.3-1.6-0.9
				C244.1,216,244.5,215.7,245.4,215.6z M239.2,176.8c0.4,0,1.1,0,2,0c0.1,0.8,0.3,2.5,0.5,5.1l0.5,4.8c0,0.8-0.3,1.2-1,1.2
				c-0.5,0-1-0.5-1.4-1.4c-0.8-1.6-1.7-3-2.9-4.2c-1.2-1.2-2.6-1.9-4.2-2.3c-1.6-0.4-4.2-0.6-7.8-0.6c-0.3,3.1-0.5,6.9-0.5,11.6
				c0,4.7,0.1,9.3,0.3,13.7c0.2,4.4,0.4,7,0.7,7.9c0.3,0.9,0.7,1.6,1.3,2c0.6,0.4,2.1,0.7,4.4,0.9c0.8,0.1,1.2,0.3,1.2,0.8
				c0,0.6-0.3,0.8-1,0.8l-0.8,0l-6.3-0.2c-4.9,0-7.8,0-8.9,0.1l-3.8,0.2c-0.3,0-0.9,0-1.9-0.1c-0.5-0.1-0.7-0.4-0.7-0.8
				c0-0.6,0.4-0.9,1.1-0.9c1.8,0,3.1-0.4,4-1.1c0.9-0.7,1.5-1.9,1.7-3.5c0.2-1.6,0.3-5.1,0.3-10.5c0-8.5-0.3-15.5-0.8-20.9
				c-3.3,0-5.7,0.1-7.2,0.4c-1.5,0.3-2.9,1-4.3,2.2c-1.4,1.2-2.5,2.8-3.3,4.7c-0.3,0.8-0.7,1.1-1.2,1.1c-0.7,0-1-0.3-1-0.9
				c0-0.2,0.1-1.5,0.4-4c0.3-2.5,0.5-4.5,0.9-6.1c10.4,0.3,18.2,0.4,23.2,0.4c3.8,0,8-0.1,12.6-0.3
				C236.8,176.9,238.2,176.8,239.2,176.8z M21.2,126.6h53.6c-3.8-5.2-6.1-11.6-6.1-18.6c0-17,13.4-30.8,29.9-30.8
				c9,0,17.2,4.1,22.6,10.7c5.5-6.6,13.6-10.7,22.6-10.7c16.5,0,29.9,13.8,29.9,30.8c0,7-2.3,13.5-6.1,18.6h56v1.6h-57.3
				c-5.5,6.4-13.5,10.5-22.5,10.5s-17-4.1-22.5-10.5H121c-5.5,6.4-13.5,10.5-22.5,10.5s-17-4.1-22.5-10.5H21.2V126.6z M135.7,233.9
				c0-0.8,0.5-1.2,1.6-1.2l11.3,0.4c3.9,0,7.8-0.1,11.6-0.4c1.1-0.1,1.7-0.1,1.9-0.1c1.3,0,2,0.5,2,1.4c0,0.6-0.6,1-1.8,1.1
				c-3.2,0.4-4.8,1.8-4.8,4.3c0,4.3,3.7,15.8,11,34.5c2.4-6.1,4.8-12.3,7-18.6l4.1-11.5c0.5-1.4,0.7-2.7,0.7-4
				c0-1.3-0.5-2.4-1.4-3.3c-0.9-0.9-1.9-1.4-3.1-1.4c-1.3-0.1-1.9-0.4-1.9-1.1c0-0.9,0.5-1.3,1.5-1.3c0.8,0,1.8,0,2.9,0.1
				c2.4,0.2,4.5,0.3,6.4,0.3c2,0,3.7-0.1,5.3-0.3c1.1-0.1,2.1-0.2,2.8-0.2c1,0,1.5,0.4,1.5,1.3c0,0.7-0.5,1.2-1.5,1.3
				c-1.5,0.2-2.7,0.7-3.8,1.5c-1.1,0.8-2.1,2.1-3.1,3.8c-1,1.8-2.7,5.7-5.1,11.8l-7.4,19.1c-3.6,9.3-5.9,15.3-7.2,17.9h-3.3l-7.7-20
				c-1.9-5.1-4.4-11.2-7.3-18.5s-4.8-11.5-5.7-12.7c-0.8-1.2-1.6-2-2.3-2.3c-0.7-0.4-1.7-0.6-3.1-0.7
				C136.1,235,135.7,234.7,135.7,233.9z M135.9,259.5c0,7.8-2.9,14.7-8.7,20.7c-5.8,6-13,9-21.6,9c-7.8,0-14.5-2.5-20-7.5
				s-8.3-11.7-8.3-20.2c0-8,2.9-14.9,8.6-20.6c5.7-5.7,12.9-8.6,21.4-8.6c5.6,0,10.5,1.1,14.7,3.4c4.2,2.3,7.6,5.5,10.1,9.8
				C134.6,249.8,135.9,254.5,135.9,259.5z M21.9,288.7c-1.1,0-1.6-0.4-1.6-1.3c0-0.4,0.1-0.7,0.4-0.8c0.3-0.2,1-0.3,2-0.5
				c1.7-0.3,3-0.8,4-1.5c0.9-0.8,1.6-1.9,1.9-3.4c0.4-1.5,0.6-5.4,0.6-11.6c0.1-6.2,0.1-13.6,0.1-22.2c0-3.4-0.3-5.9-0.8-7.5
				c-0.5-1.5-1.2-2.7-2.1-3.4c-0.9-0.7-2.2-1.1-3.9-1.2c-1.2-0.1-1.8-0.5-1.8-1.3c0-0.8,0.7-1.3,2-1.3l13.8,0.4c2.1,0,5.1-0.1,9-0.3
				c1.4-0.1,2.3-0.1,2.8-0.1c1.2,0,1.8,0.4,1.8,1.2c0,0.4-0.2,0.8-0.6,0.9c-0.4,0.2-1.3,0.4-2.8,0.6c-1.9,0.3-3.2,0.7-3.9,1.4
				c-0.8,0.7-1.3,1.9-1.5,3.6c-0.3,1.7-0.4,5.6-0.4,11.6v25.4c0,3.9,0.4,6.2,1,7c0.7,0.7,1.9,1.1,3.8,1.1c4.6,0,8-0.4,10.2-1.1
				c2.2-0.7,4.3-2,6.4-3.9c2-1.9,4.2-5,6.5-9.4c0.5-0.9,1-1.3,1.5-1.3c0.7,0,1.1,0.4,1.1,1.2c0,1.8-1,7.6-2.9,17.5
				c-7-0.4-17.8-0.5-32.4-0.5c-5.1,0-9.3,0.2-12.5,0.5C22.9,288.7,22.3,288.7,21.9,288.7z M288.3,510c-5.4,9.8-11.9,18.8-19.2,26.9
				c-9.2,10.2-19.7,19-31.5,26c-0.1,0.1-0.3,0.2-0.4,0.3c-10.1,6.1-21,11-32.7,14.5c-1.1,0.3-2.1,0.6-3.2,0.9
				c-56.3,15.2-114.9-6.9-148.6-51.1c-0.7-1-1.5-2-2.2-2.9c0-0.1-0.1-0.1-0.1-0.2c-0.7-0.9-1.4-1.8-2.1-2.8c0-0.1-0.1-0.1-0.1-0.2
				c0-0.1-0.1-0.1-0.1-0.2c-0.6-0.9-1.2-1.9-1.9-2.9c0-0.1-0.1-0.1-0.1-0.2c-0.7-1-1.2-2.1-1.9-3.1c-0.2-0.3-0.3-0.6-0.5-0.9
				c-0.7-1.1-1.4-2.2-2-3.3c0,0,0-0.1-0.1-0.1c-0.6-1.1-1.3-2.2-1.9-3.4c0-0.1-0.1-0.1-0.1-0.2c-0.1-0.1-0.1-0.2-0.2-0.3
				c-0.6-1.2-1.1-2.4-1.7-3.6c0-0.1-0.1-0.2-0.1-0.3c-0.6-1.3-1.2-2.6-1.8-3.9c-2.3-5.3-4.5-10.8-6.2-16.5
				C18,442.9,24.9,402.1,45,369.2c0.8-1.3,1.5-2.5,2.3-3.8c0.1-0.1,0.1-0.2,0.2-0.3c0.7-1.1,1.5-2.1,2.2-3.2
				c0.1-0.1,0.1-0.1,0.2-0.2c0-0.1,0.1-0.1,0.2-0.2c0.7-1,1.5-2,2.2-3c0-0.1,0.1-0.1,0.1-0.2c0.8-1,1.5-2.1,2.3-3.1
				c17.2-21.6,40.8-38.4,69.1-47c0.2-0.1,0.4-0.1,0.5-0.2c0.2,0,0.3-0.1,0.5-0.2c0.2-0.1,0.5-0.1,0.7-0.2c0.9-0.2,1.7-0.5,2.6-0.7
				c35-9.5,71.9-5.1,103.8,12.3c27.9,15.2,49.3,38.9,61.8,67.6c0.5,1.1,1,2.2,1.5,3.3c0,0.1,0,0.2,0.1,0.2c0.4,1,0.7,2.2,1.1,3.2
				c0,0.1,0.1,0.2,0.1,0.2c0,0,0,0.1,0,0.1c0.4,1.1,0.8,2.2,1.2,3.4c0,0,0,0,0,0.1c0.4,1.1,0.8,2.3,1.2,3.4c0.2,0.7,0.5,1.4,0.7,2.1
				C310.2,439,306.2,477,288.3,510z M503.8,407c-0.3,0-0.7,0-1.3,0c-3.8-0.3-6.4-0.4-7.7-0.4c-3,0-5.3,0.1-6.7,0.3
				c-0.8,0.1-1.3,0.1-1.6,0.1c-0.7,0-1.1-0.3-1.1-0.9c0-0.5,0.3-0.7,0.9-0.8c1.7-0.2,2.9-0.7,3.5-1.4c0.6-0.7,0.9-2.5,1.1-5.3
				c0.1-2.8,0.2-7.1,0.2-13c0-6.2-0.1-10.4-0.3-12.5c-0.2-2.1-0.6-3.4-1.1-3.9c-0.5-0.5-1.5-0.8-2.9-0.9c-0.8-0.1-1.1-0.4-1.1-0.9
				c0-0.5,0.4-0.8,1.1-0.8c0.7,0,2.2,0.1,4.3,0.2c1.7,0.1,3,0.1,4,0.1l9.3-0.2c0.8,0,1.2,0.3,1.2,0.8c0,0.5-0.4,0.8-1.1,0.8
				c-1.6,0.2-2.6,0.5-3.2,0.9c-0.5,0.4-0.9,1.4-1.2,3s-0.4,5.1-0.4,10.6c0,6.3,0.1,11.3,0.3,14.7c0.2,3.5,0.6,5.6,1.2,6.4
				c0.6,0.8,1.6,1.2,3.1,1.2c1,0,1.5,0.3,1.5,0.8C505.4,406.6,504.9,407,503.8,407z M551.5,368.3c-1.3,0.1-2.4,0.7-3.5,1.6
				c-1.1,0.9-1.6,2.8-1.6,5.6l0.2,17.1l-0.2,12.8c0,1.1-0.3,1.7-1,1.7c-0.2,0-0.4-0.1-0.6-0.2s-1.6-1.5-4.1-4.2
				c-2.5-2.7-6.3-6.8-11.2-12.4c-5-5.6-8.5-9.6-10.5-12c0,0.5-0.1,5.6-0.1,15.2c0,3,0.1,5.3,0.4,7c0.3,1.7,1,2.9,2.4,3.6
				c1.3,0.8,2.5,1.1,3.6,1.1c0.7,0,1,0.3,1,0.8c0,0.6-0.4,0.9-1.1,0.9c-0.5,0-1,0-1.7-0.1c-1.2-0.2-2.7-0.2-4.6-0.2
				c-3,0-5.2,0.1-6.5,0.3c-0.8,0.1-1.4,0.2-1.8,0.2c-0.8,0-1.2-0.3-1.2-1c0-0.5,0.6-0.8,1.9-0.9c2.3-0.2,3.7-1,4.3-2.4
				c0.6-1.4,0.9-3.3,0.9-5.7c0-10.4-0.1-16.7-0.2-19c-0.1-2.3-0.8-4.4-2.2-6.3c-1.3-1.9-3-3-4.8-3.3c-0.8-0.1-1.2-0.5-1.2-0.9
				c0-0.7,0.4-1,1.2-1c0.2,0,0.5,0,0.9,0.1c0.5,0,1.3,0.1,2.5,0.1c2.6,0,5,0,7.3,0.1c9.6,11,17.7,19.7,24.1,26.4c0-1.4,0-2.2,0-2.7
				l0-11.9c0-2.8-0.2-4.8-0.5-6s-1-2.2-2.1-2.9c-1-0.7-2.3-1.1-3.6-1.2c-0.7-0.1-1.1-0.4-1.1-0.9c0-0.6,0.3-0.9,1-0.9
				c0.4,0,0.9,0,1.5,0.1c1.1,0.1,2.8,0.2,5,0.2c2.8,0,4.9-0.1,6.3-0.2c0.6-0.1,1.1-0.1,1.5-0.1c0.8,0,1.1,0.3,1.1,0.9
				C553,367.9,552.5,368.2,551.5,368.3z M597.9,395.9c-1.2,2.7-3,4.9-5.3,6.8c-2.3,1.8-4.6,3-6.9,3.6c-2.3,0.6-4.9,0.9-8,0.9
				c-0.9,0-4.5-0.1-10.9-0.2l-6.6,0l-3.9-0.1c-0.9,0-1.5-0.1-1.7-0.2c-0.2-0.1-0.3-0.4-0.3-0.7c0-0.6,0.4-0.9,1.3-0.9
				c1.6,0,2.9-0.3,3.6-0.8c0.8-0.6,1.2-1.6,1.4-3.1c0.2-1.5,0.4-4.5,0.6-9c0.2-4.5,0.3-8.7,0.3-12.4c0-5.3-0.3-8.6-0.8-9.8
				c-0.5-1.2-1.8-1.9-3.8-2c-0.7-0.1-1.1-0.4-1.1-0.9s0.3-0.8,1-0.8c0.4,0,1.7,0.1,3.9,0.3c2.5,0.2,4.2,0.3,5.1,0.3l11.4-0.2
				c3.8,0,7.5,0.7,11,2.2c3.5,1.5,6.3,3.8,8.4,7.2c2.1,3.3,3.1,7.1,3.1,11.2C599.8,390.3,599.2,393.2,597.9,395.9z M570,288.9
				l-94.6,77.9h5.7l1.5,9.1l0.1,0.4c0,0.6-0.2,0.9-0.6,0.9c-0.3,0-0.5-0.2-0.8-0.7c-1.6-2.4-3.3-4.3-5.3-5.6c-1-0.7-2.2-1.2-3.8-1.5
				l-11.2,9.3c0,1.7,0,3.7,0,6c2.2,0,3.9-0.2,5.1-0.5c1.2-0.3,2.1-0.9,2.8-1.6c0.7-0.8,1.3-2.2,1.8-4.3c0.1-0.6,0.4-0.8,0.7-0.8
				c0.6,0,0.9,0.4,0.9,1.1l-0.2,9.6c-0.1,3.3-0.2,5.1-0.3,5.4c-0.1,0.3-0.3,0.4-0.7,0.4c-0.5,0-0.8-0.4-0.9-1.2
				c-0.2-1.9-0.9-3.4-1.9-4.4c-1.1-1.1-3.5-1.6-7.3-1.6l0,11.2c0,2.2,0.2,3.7,0.5,4.7c0.3,0.9,0.8,1.6,1.4,1.9
				c0.6,0.3,1.6,0.5,2.9,0.6c1,0,1.6,0.1,1.8,0.2c0.3,0.1,0.4,0.4,0.4,0.7c0,0.6-0.5,1-1.4,1c-0.8,0-2.4-0.1-4.7-0.2
				c-2-0.1-3.4-0.2-4.4-0.2l-9.5,0.3c-1,0-1.4-0.3-1.4-0.9c0-0.5,0.6-0.8,1.8-0.9c2.1-0.1,3.3-1,3.7-2.7c0.4-1.6,0.6-7.2,0.6-16.7
				L307.5,505.3c14.8-33.6,17.3-71,6.8-106.7c-0.5-1.7-1.2-3.2-1.7-4.9c-0.4-1.2-0.8-2.3-1.2-3.4c0,0,0-0.1,0-0.1
				c-0.4-1.1-0.7-2.2-1.2-3.4c0,0,0,0,0-0.1c0-0.1-0.1-0.2-0.1-0.2c-0.4-1.1-0.8-2.1-1.2-3.2c0-0.1-0.1-0.1-0.1-0.2
				c-0.5-1.1-1-2.2-1.5-3.3c-13.8-31.4-37.4-57.4-68-74c-16.5-9-34.1-14.6-52.1-17.3l16.8-5.2c0.6-1.6,1-4.3,1-8l0.3-21.5
				c0-7.3-0.1-11.8-0.3-13.5c-0.2-1.7-0.7-2.8-1.4-3.4c-0.8-0.6-2.2-1-4.4-1.4c-0.9-0.1-1.3-0.5-1.3-1.2c0-0.8,0.5-1.3,1.5-1.3
				l10,0.3l33.7,0.1c0.9,4.3,1.8,8.7,2.6,13c0,0.8-0.4,1.2-1.2,1.2c-0.4,0-0.9-0.4-1.5-1.2c-2.9-4.2-5.5-6.9-7.9-8.2
				c-2.4-1.3-5.8-2-10.3-2c-2.5,0-4.9,0.2-7.3,0.6c-0.5,4.9-0.8,10.3-0.8,16.2c0,1,0,2.7,0.1,5l3.2,0c2,0,3.7-0.3,5.1-0.8
				c1.4-0.5,2.6-1.7,3.6-3.5c1-1.8,1.6-2.9,1.7-3.4c0.3-0.9,0.7-1.3,1.3-1.3c0.8,0,1.2,0.3,1.2,1c0,0.2,0,0.4-0.1,0.7
				c-0.3,1.7-0.5,6.9-0.5,15.5c0,1.2,0.1,2.3,0.3,3.3c0.1,0.3,0.1,0.5,0.1,0.7c0,0.8-0.4,1.2-1.3,1.2c-0.6,0-1.1-0.7-1.4-2.2
				c-0.6-2.6-1.8-4.6-3.8-5.9c-2-1.3-5.1-2-9.4-2.1c-0.1,4.7-0.2,7.7-0.2,9.2c0,4,0,6.9,0.1,8.9l198.8-61.8
				c-0.3-0.2-0.4-0.7-0.5-1.4l-0.9-10.9c0-0.5-0.1-0.8-0.1-0.9c0-0.6,0.3-0.9,0.9-0.9c0.4,0,0.9,0.5,1.3,1.5c1.2,3,2.9,5.5,5,7.5
				c1.1,1,2.2,1.8,3.4,2.3l11.2-3.5c0.4-0.8,0.6-1.7,0.6-2.7c0-1.8-0.7-3.3-2-4.5c-1.3-1.2-3.8-2.4-7.3-3.5
				c-3.4-1.1-5.9-2.2-7.6-3.2c-1.7-1-3-2.4-4-4.1c-1-1.8-1.5-3.5-1.5-5.4c0-3.2,1.2-5.8,3.7-8.1c2.4-2.2,5.8-3.3,10-3.3
				c2.3,0,5.3,0.7,9.1,2c0.3-0.3,0.5-0.7,0.8-1.2c0.3-0.6,0.6-1,1-1c0.5,0,0.9,0.4,1,1.3l1.1,8.3l0.1,1c0,0.5-0.3,0.8-0.8,0.8
				c-0.4,0-0.7-0.1-0.9-0.3c-0.2-0.2-0.5-0.8-1-1.9c-0.9-1.8-2.3-3.4-4.3-4.8c-2-1.4-4-2.1-6-2.1c-2,0-3.6,0.6-4.9,1.7
				c-1.3,1.1-1.9,2.5-1.9,4.2c0,1.4,0.6,2.6,1.8,3.7c1.2,1.1,3.5,2.1,7,3.1c5.4,1.5,9,3.4,10.9,5.7c1.9,2.3,2.8,4.8,2.8,7.5
				c0,1.7-0.3,3.3-0.8,4.7l2.9-0.9l0.2-0.1l3.2-1l0.2-0.1l0.2-0.1l3.2-1l0.2-0.1l3.5-1.1l65.5-20.4l2-0.6
				c50.6-13.7,67.9,15.6,73.7,34.3C605,242.1,595.7,265.9,570,288.9z"/>
		</g>
		<g>
			<path fill="#00256A" d="M476,371c2,1.3,3.7,3.2,5.3,5.6c0.3,0.4,0.5,0.7,0.8,0.7c0.4,0,0.6-0.3,0.6-0.9l-0.1-0.4l-1.5-9.1h-5.7
				l-3.2,2.6C473.8,369.8,475.1,370.3,476,371z"/>
		</g>
		<g>
			<path fill="#00256A" d="M452,402.4c-0.4,1.7-1.6,2.7-3.7,2.7c-1.2,0-1.8,0.3-1.8,0.9c0,0.6,0.5,0.9,1.4,0.9l9.5-0.3
				c1,0,2.5,0.1,4.4,0.2c2.3,0.1,3.9,0.2,4.7,0.2c0.9,0,1.4-0.3,1.4-1c0-0.4-0.1-0.6-0.4-0.7c-0.3-0.1-0.9-0.2-1.8-0.2
				c-1.3,0-2.3-0.2-2.9-0.6c-0.6-0.3-1.1-1-1.4-1.9c-0.3-0.9-0.5-2.5-0.5-4.7l0-11.2c3.8,0,6.3,0.5,7.3,1.6c1.1,1.1,1.7,2.6,1.9,4.4
				c0.1,0.8,0.4,1.2,0.9,1.2c0.3,0,0.5-0.1,0.7-0.4c0.1-0.3,0.2-2,0.3-5.4l0.2-9.6c0-0.8-0.3-1.1-0.9-1.1c-0.3,0-0.6,0.3-0.7,0.8
				c-0.5,2.1-1.1,3.5-1.8,4.3c-0.7,0.8-1.6,1.3-2.8,1.6c-1.2,0.3-2.9,0.5-5.1,0.5c0-2.3,0-4.3,0-6l-8.4,6.9
				C452.6,395.2,452.4,400.7,452,402.4z"/>
		</g>
		<g>
			<path fill="#00256A" d="M503.9,405.2c-1.4,0-2.4-0.4-3.1-1.2c-0.6-0.8-1-3-1.2-6.4c-0.2-3.5-0.3-8.4-0.3-14.7
				c0-5.5,0.1-9.1,0.4-10.6s0.7-2.6,1.2-3c0.5-0.4,1.6-0.7,3.2-0.9c0.7-0.1,1.1-0.4,1.1-0.8c0-0.5-0.4-0.8-1.2-0.8l-9.3,0.2
				c-1,0-2.3,0-4-0.1c-2.2-0.1-3.6-0.2-4.3-0.2c-0.7,0-1.1,0.3-1.1,0.8c0,0.6,0.4,0.9,1.1,0.9c1.4,0.1,2.4,0.4,2.9,0.9
				c0.5,0.5,0.9,1.8,1.1,3.9c0.2,2.1,0.3,6.3,0.3,12.5c0,5.9-0.1,10.2-0.2,13c-0.1,2.8-0.5,4.6-1.1,5.3c-0.6,0.7-1.7,1.2-3.5,1.4
				c-0.6,0.1-0.9,0.4-0.9,0.8c0,0.6,0.4,0.9,1.1,0.9c0.3,0,0.9,0,1.6-0.1c1.4-0.2,3.7-0.3,6.7-0.3c1.4,0,4,0.1,7.7,0.4
				c0.6,0,1,0,1.3,0c1.1,0,1.6-0.4,1.6-1.1C505.4,405.4,504.9,405.2,503.9,405.2z"/>
		</g>
		<g>
			<path fill="#00256A" d="M551.8,366.4c-0.4,0-0.9,0-1.5,0.1c-1.4,0.1-3.6,0.2-6.3,0.2c-2.2,0-3.9-0.1-5-0.2
				c-0.6-0.1-1.1-0.1-1.5-0.1c-0.7,0-1,0.3-1,0.9c0,0.5,0.4,0.9,1.1,0.9c1.4,0.1,2.6,0.5,3.6,1.2c1,0.7,1.7,1.7,2.1,2.9
				s0.5,3.2,0.5,6l0,11.9c0,0.4,0,1.3,0,2.7c-6.4-6.6-14.5-15.4-24.1-26.4c-2.3-0.1-4.7-0.1-7.3-0.1c-1.2,0-2,0-2.5-0.1
				c-0.4,0-0.7-0.1-0.9-0.1c-0.8,0-1.2,0.3-1.2,1c0,0.5,0.4,0.8,1.2,0.9c1.9,0.4,3.5,1.5,4.8,3.3c1.3,1.9,2.1,4,2.2,6.3
				c0.1,2.3,0.2,8.7,0.2,19c0,2.4-0.3,4.3-0.9,5.7c-0.6,1.4-2,2.2-4.3,2.4c-1.3,0.1-1.9,0.4-1.9,0.9c0,0.7,0.4,1,1.2,1
				c0.4,0,1-0.1,1.8-0.2c1.3-0.2,3.5-0.3,6.5-0.3c1.9,0,3.4,0.1,4.6,0.2c0.7,0.1,1.3,0.1,1.7,0.1c0.7,0,1.1-0.3,1.1-0.9
				c0-0.5-0.3-0.8-1-0.8c-1.1,0-2.3-0.4-3.6-1.1c-1.3-0.8-2.1-2-2.4-3.6c-0.3-1.7-0.4-4-0.4-7c0-9.6,0-14.6,0.1-15.2
				c2,2.4,5.5,6.4,10.5,12c5,5.6,8.7,9.7,11.2,12.4c2.5,2.7,3.9,4.1,4.1,4.2s0.5,0.2,0.6,0.2c0.7,0,1-0.6,1-1.7l0.2-12.8l-0.2-17.1
				c0-2.8,0.5-4.6,1.6-5.6c1.1-0.9,2.3-1.5,3.5-1.6c1-0.1,1.5-0.4,1.5-1C553,366.7,552.6,366.4,551.8,366.4z"/>
		</g>
		<g>
			<path fill="#00256A" d="M588.2,368.8c-3.5-1.5-7.2-2.2-11-2.2l-11.4,0.2c-1,0-2.7-0.1-5.1-0.3c-2.2-0.2-3.5-0.3-3.9-0.3
				c-0.6,0-1,0.3-1,0.8s0.4,0.8,1.1,0.9c2,0.1,3.3,0.8,3.8,2c0.5,1.2,0.8,4.5,0.8,9.8c0,3.8-0.1,7.9-0.3,12.4
				c-0.2,4.5-0.4,7.5-0.6,9c-0.2,1.5-0.7,2.5-1.4,3.1c-0.8,0.6-2,0.8-3.6,0.8c-0.9,0-1.3,0.3-1.3,0.9c0,0.4,0.1,0.6,0.3,0.7
				c0.2,0.1,0.8,0.2,1.7,0.2l3.9,0.1l6.6,0c6.4,0.1,10,0.2,10.9,0.2c3.1,0,5.8-0.3,8-0.9c2.3-0.6,4.6-1.8,6.9-3.6
				c2.3-1.8,4.1-4.1,5.3-6.8c1.2-2.7,1.8-5.6,1.8-8.7c0-4.2-1-7.9-3.1-11.2C594.6,372.6,591.7,370.3,588.2,368.8z M585.7,400.5
				c-2.5,3-5.8,4.4-10,4.4c-1.9,0-3.2-0.3-4-0.9c-0.8-0.6-1.4-1.4-1.6-2.4c-0.2-1.1-0.4-3-0.4-5.8c0-3.7,0-6.8,0.1-9.4l0.4-10.2
				c0.2-4.3,0.3-6.6,0.4-6.8c0.1-0.2,0.3-0.4,0.6-0.6c0.3-0.2,1.3-0.3,3-0.3c4.9,0,8.6,1.8,11.3,5.4c2.6,3.6,4,8.2,4,13.8
				C589.4,393.3,588.2,397.5,585.7,400.5z"/>
		</g>
		<g>
			<path fill="#00256A" d="M68.5,288.7c1.9-9.9,2.9-15.7,2.9-17.5c0-0.8-0.4-1.2-1.1-1.2c-0.5,0-1,0.4-1.5,1.3
				c-2.3,4.4-4.5,7.5-6.5,9.4c-2,1.9-4.1,3.1-6.4,3.9c-2.2,0.7-5.6,1.1-10.2,1.1c-1.9,0-3.1-0.4-3.8-1.1c-0.7-0.7-1-3.1-1-7v-25.4
				c0-6,0.1-9.9,0.4-11.6c0.3-1.7,0.8-2.9,1.5-3.6c0.8-0.7,2.1-1.2,3.9-1.4c1.5-0.2,2.4-0.4,2.8-0.6c0.4-0.2,0.6-0.5,0.6-0.9
				c0-0.8-0.6-1.2-1.8-1.2c-0.5,0-1.4,0-2.8,0.1c-3.8,0.2-6.8,0.3-9,0.3l-13.8-0.4c-1.4,0-2,0.4-2,1.3c0,0.8,0.6,1.3,1.8,1.3
				c1.7,0.1,3,0.5,3.9,1.2c0.9,0.7,1.6,1.8,2.1,3.4c0.5,1.5,0.8,4,0.8,7.5c0,8.6,0,16-0.1,22.2c-0.1,6.2-0.3,10.1-0.6,11.6
				c-0.4,1.5-1,2.7-1.9,3.4c-0.9,0.8-2.2,1.3-4,1.5c-1.1,0.2-1.8,0.3-2,0.5c-0.3,0.2-0.4,0.4-0.4,0.8c0,0.8,0.5,1.3,1.6,1.3
				c0.4,0,0.9,0,1.7-0.1c3.2-0.3,7.4-0.5,12.5-0.5C50.8,288.2,61.6,288.4,68.5,288.7z"/>
		</g>
		<g>
			<path fill="#00256A" d="M121.9,235.8c-4.2-2.3-9.1-3.4-14.7-3.4c-8.5,0-15.6,2.9-21.4,8.6c-5.7,5.7-8.6,12.6-8.6,20.6
				c0,8.5,2.8,15.2,8.3,20.2s12.2,7.5,20,7.5c8.6,0,15.8-3,21.6-9c5.8-6,8.7-12.9,8.7-20.7c0-5-1.3-9.7-3.8-13.9
				C129.5,241.3,126.2,238,121.9,235.8z M117.2,280.2c-3,4-6.6,6-10.7,6c-4.6,0-8.3-2.2-11-6.7c-2.7-4.4-4.1-10.7-4.1-18.8
				c0-8.4,1.4-14.7,4.3-19c2.9-4.3,6.5-6.4,10.8-6.4c4.4,0,8,2.1,10.9,6.4c2.9,4.3,4.3,10.6,4.3,19
				C121.8,269.7,120.2,276.2,117.2,280.2z"/>
		</g>
		<g>
			<path fill="#00256A" d="M137,235.1c1.4,0.1,2.4,0.4,3.1,0.7c0.7,0.4,1.4,1.2,2.3,2.3c0.8,1.2,2.7,5.4,5.7,12.7s5.4,13.5,7.3,18.5
				l7.7,20h3.3c1.2-2.6,3.6-8.5,7.2-17.9l7.4-19.1c2.4-6.1,4-10.1,5.1-11.8c1-1.8,2-3,3.1-3.8c1.1-0.8,2.3-1.3,3.8-1.5
				c1-0.1,1.5-0.6,1.5-1.3c0-0.9-0.5-1.3-1.5-1.3c-0.8,0-1.7,0.1-2.8,0.2c-1.5,0.2-3.3,0.3-5.3,0.3c-1.9,0-4-0.1-6.4-0.3
				c-1.2-0.1-2.1-0.1-2.9-0.1c-1,0-1.5,0.4-1.5,1.3c0,0.7,0.6,1.1,1.9,1.1c1.1,0,2.2,0.5,3.1,1.4c0.9,0.9,1.4,2,1.4,3.3
				c0,1.3-0.2,2.6-0.7,4l-4.1,11.5c-2.2,6.3-4.6,12.5-7,18.6c-7.3-18.7-11-30.2-11-34.5c0-2.5,1.6-3.9,4.8-4.3
				c1.2-0.1,1.8-0.5,1.8-1.1c0-0.9-0.7-1.4-2-1.4c-0.2,0-0.9,0-1.9,0.1c-3.8,0.3-7.7,0.4-11.6,0.4l-11.3-0.4c-1.1,0-1.6,0.4-1.6,1.2
				C135.7,234.7,136.1,235,137,235.1z"/>
		</g>
		<g>
			<path fill="#00256A" d="M216.5,270.5c0-1.5,0.1-4.5,0.2-9.2c4.3,0.1,7.4,0.8,9.4,2.1c2,1.3,3.2,3.3,3.8,5.9
				c0.3,1.5,0.8,2.2,1.4,2.2c0.9,0,1.3-0.4,1.3-1.2c0-0.2,0-0.4-0.1-0.7c-0.2-1-0.3-2.1-0.3-3.3c0-8.6,0.2-13.7,0.5-15.5
				c0.1-0.3,0.1-0.5,0.1-0.7c0-0.7-0.4-1-1.2-1c-0.6,0-1,0.4-1.3,1.3c-0.1,0.5-0.7,1.6-1.7,3.4c-1,1.8-2.2,2.9-3.6,3.5
				c-1.4,0.5-3.1,0.8-5.1,0.8l-3.2,0c-0.1-2.4-0.1-4-0.1-5c0-5.9,0.3-11.2,0.8-16.2c2.3-0.4,4.8-0.6,7.3-0.6c4.5,0,7.9,0.7,10.3,2
				c2.4,1.3,5,4.1,7.9,8.2c0.6,0.8,1.1,1.2,1.5,1.2c0.8,0,1.2-0.4,1.2-1.2c-0.9-4.3-1.7-8.7-2.6-13l-33.7-0.1l-10-0.3
				c-1,0-1.5,0.4-1.5,1.3c0,0.7,0.4,1.1,1.3,1.2c2.1,0.3,3.6,0.8,4.4,1.4c0.8,0.6,1.3,1.7,1.4,3.4c0.2,1.7,0.3,6.2,0.3,13.5
				l-0.3,21.5c0,3.7-0.3,6.4-1,8l12.8-4C216.5,277.4,216.5,274.5,216.5,270.5z"/>
		</g>
		<g>
			<path fill="#00256A" d="M199.5,176.9c-0.3,1.6-0.6,3.7-0.9,6.1c-0.3,2.5-0.4,3.8-0.4,4c0,0.6,0.3,0.9,1,0.9
				c0.4,0,0.8-0.4,1.2-1.1c0.9-1.9,2-3.5,3.3-4.7c1.4-1.2,2.8-2,4.3-2.2c1.5-0.3,3.9-0.4,7.2-0.4c0.5,5.4,0.8,12.3,0.8,20.9
				c0,5.4-0.1,8.9-0.3,10.5c-0.2,1.6-0.8,2.8-1.7,3.5c-0.9,0.7-2.3,1.1-4,1.1c-0.8,0-1.1,0.3-1.1,0.9c0,0.4,0.2,0.7,0.7,0.8
				c0.9,0,1.6,0.1,1.9,0.1l3.8-0.2c1,0,4-0.1,8.9-0.1l6.3,0.2l0.8,0c0.7,0,1-0.3,1-0.8c0-0.5-0.4-0.8-1.2-0.8
				c-2.3-0.2-3.8-0.5-4.4-0.9c-0.6-0.4-1.1-1.1-1.3-2c-0.3-0.9-0.5-3.6-0.7-7.9c-0.2-4.4-0.3-9-0.3-13.7c0-4.6,0.2-8.5,0.5-11.6
				c3.6,0,6.3,0.2,7.8,0.6c1.6,0.4,3,1.2,4.2,2.3c1.2,1.2,2.2,2.6,2.9,4.2c0.5,1,0.9,1.4,1.4,1.4c0.7,0,1-0.4,1-1.2l-0.5-4.8
				c-0.2-2.6-0.4-4.3-0.5-5.1c-0.9,0-1.6,0-2,0c-1,0-2.4,0-4,0.1c-4.6,0.2-8.8,0.3-12.6,0.3C217.6,177.3,209.9,177.2,199.5,176.9z"
				/>
		</g>
		<g>
			<path fill="#00256A" d="M245.7,217.3c0.4,0,1.4,0,2.8-0.1c2.1-0.1,3.7-0.2,4.9-0.2c2.6,0,5.1,0.1,7.5,0.3c0.6,0.1,1,0.1,1.3,0.1
				c0.8,0,1.2-0.3,1.2-0.8c0-0.5-0.4-0.8-1.2-0.9c-1.6-0.1-2.7-0.6-3.2-1.5c-0.5-0.9-0.8-2.5-0.8-4.9c0-3.3,0.1-6.9,0.3-11
				c1.8-0.2,4.3-0.3,7.4-0.3c2.7,0,5.8,0,9.3,0.2c0,1.1,0.1,2,0.1,2.5c0,5.4-0.2,9-0.4,10.8c-0.3,1.8-0.8,3-1.4,3.5
				c-0.7,0.5-1.7,0.8-3.2,0.8c-0.6,0-0.9,0.3-0.9,0.8c0,0.6,0.4,0.9,1.1,0.9c0.8,0,2.6-0.1,5.3-0.3c1.4-0.1,2.4-0.1,2.9-0.1l8.3,0.3
				c0.8,0.1,1.3,0.1,1.6,0.1c0.7,0,1.1-0.3,1.1-0.8c0-0.6-0.5-0.9-1.4-0.9c-1.5,0-2.6-0.3-3.2-0.9c-0.6-0.6-1-1.7-1.1-3.3
				c-0.1-1.6-0.1-5.9-0.1-13c0-1.7,0.1-4.8,0.2-9.4c0.1-4.6,0.3-7.2,0.6-8c0.2-0.8,0.6-1.3,1.2-1.7c0.6-0.4,1.6-0.6,3-0.6
				c0.9,0,1.3-0.3,1.3-1c0-0.6-0.4-0.8-1.1-0.8c-0.2,0-0.5,0-1,0.1c-2.6,0.2-5.6,0.2-9,0.2c-0.3,0-1.6-0.1-4.1-0.2
				c-1.9-0.1-3.3-0.1-4.2-0.1c-0.8,0-1.2,0.3-1.2,0.9c0,0.6,0.7,0.9,2.1,1c1.7,0.1,2.8,0.6,3.3,1.7c0.5,1.1,0.8,2.9,0.8,5.5
				l-0.3,9.2c-2.7,0.3-5.5,0.4-8.5,0.4c-3,0-5.7-0.1-8.3-0.4l-0.1-8.6c0-2.7,0.1-4.6,0.4-5.5c0.2-0.9,0.6-1.6,1.1-1.9
				c0.5-0.3,1.4-0.5,2.7-0.5c0.8,0,1.2-0.3,1.2-0.9c0-0.6-0.5-0.9-1.5-0.9l-8.5,0.3c-1.4,0-2.7,0-3.9-0.1c-2.1-0.2-3.5-0.2-4.4-0.2
				c-0.7,0-1,0.3-1,0.9c0,0.4,0.1,0.6,0.3,0.7c0.2,0.1,0.7,0.2,1.5,0.3c1,0.1,1.8,0.4,2.3,0.9c0.5,0.5,0.9,1.4,1.1,2.7
				c0.2,1.3,0.3,3.5,0.3,6.5c0,0.6,0,4.2-0.1,10.8c-0.1,6.6-0.2,10.6-0.5,11.9c-0.3,1.4-0.7,2.3-1.2,2.8c-0.6,0.5-1.6,0.8-3.2,1
				c-0.8,0.1-1.2,0.4-1.2,0.9C244.1,217,244.7,217.3,245.7,217.3z"/>
		</g>
		<g>
			<path fill="#00256A" d="M297.4,214.4c-0.6,0.7-1.7,1.2-3.5,1.4c-0.6,0.1-0.9,0.4-0.9,0.8c0,0.6,0.4,0.9,1.1,0.9
				c0.3,0,0.9,0,1.6-0.1c1.4-0.2,3.7-0.3,6.7-0.3c1.4,0,4,0.1,7.8,0.4c0.6,0,1,0,1.3,0c1.1,0,1.6-0.4,1.6-1.1c0-0.5-0.5-0.8-1.5-0.8
				c-1.4,0-2.4-0.4-3.1-1.2s-1-3-1.2-6.4c-0.2-3.5-0.3-8.4-0.3-14.7c0-5.5,0.1-9.1,0.4-10.6c0.3-1.6,0.7-2.6,1.2-3
				c0.5-0.4,1.6-0.7,3.2-0.9c0.7-0.1,1.1-0.4,1.1-0.8c0-0.5-0.4-0.8-1.2-0.8l-9.3,0.2c-1,0-2.3,0-4-0.1c-2.2-0.1-3.6-0.2-4.3-0.2
				c-0.7,0-1.1,0.3-1.1,0.8c0,0.6,0.4,0.9,1.1,0.9c1.4,0.1,2.4,0.4,2.9,0.9c0.5,0.5,0.9,1.8,1.1,3.9c0.2,2.1,0.3,6.3,0.3,12.5
				c0,5.9-0.1,10.2-0.2,13C298.4,211.9,298,213.6,297.4,214.4z"/>
		</g>
		<g>
			<path fill="#00256A" d="M316.6,178.9c1.9,0.4,3.5,1.5,4.8,3.3c1.3,1.9,2.1,4,2.2,6.3c0.1,2.3,0.2,8.7,0.2,19
				c0,2.4-0.3,4.3-0.9,5.7c-0.6,1.4-2,2.2-4.3,2.4c-1.3,0.1-1.9,0.4-1.9,0.9c0,0.7,0.4,1,1.2,1c0.4,0,1-0.1,1.8-0.2
				c1.3-0.2,3.5-0.3,6.5-0.3c1.9,0,3.4,0.1,4.6,0.2c0.7,0.1,1.3,0.1,1.7,0.1c0.7,0,1.1-0.3,1.1-0.9c0-0.5-0.3-0.8-1-0.8
				c-1.1,0-2.3-0.4-3.6-1.1c-1.3-0.8-2.1-2-2.4-3.6c-0.3-1.7-0.4-4-0.4-7c0-9.6,0-14.6,0.1-15.2c2,2.4,5.5,6.4,10.5,12
				c5,5.6,8.7,9.7,11.2,12.4c2.5,2.7,3.9,4.1,4.1,4.2c0.2,0.1,0.5,0.2,0.6,0.2c0.7,0,1-0.6,1-1.7l0.2-12.8L354,186
				c0-2.8,0.5-4.6,1.6-5.6c1.1-0.9,2.3-1.5,3.5-1.6c1-0.1,1.5-0.4,1.5-1c0-0.6-0.4-0.9-1.1-0.9c-0.4,0-0.9,0-1.5,0.1
				c-1.4,0.1-3.6,0.2-6.3,0.2c-2.2,0-3.9-0.1-5-0.2c-0.6-0.1-1.1-0.1-1.5-0.1c-0.7,0-1,0.3-1,0.9c0,0.5,0.4,0.9,1.1,0.9
				c1.4,0.1,2.6,0.5,3.6,1.2c1,0.7,1.7,1.7,2.1,2.9c0.3,1.2,0.5,3.2,0.5,6l0,11.9c0,0.4,0,1.3,0,2.7c-6.4-6.6-14.5-15.4-24.1-26.4
				c-2.3-0.1-4.7-0.1-7.3-0.1c-1.2,0-2,0-2.5-0.1c-0.4,0-0.7-0.1-0.9-0.1c-0.8,0-1.2,0.3-1.2,1C315.4,178.4,315.8,178.7,316.6,178.9
				z"/>
		</g>
		<g>
			<path fill="#00256A" d="M375.3,215.4c3.3,1.6,7,2.4,11.1,2.4c2.5,0,4.9-0.3,7.4-0.9c2.5-0.6,4.9-1.5,7.2-2.7
				c2.3-1.2,3.5-1.9,3.6-2c0-0.2,0.1-0.8,0.1-2.1c0.2-5.6,0.4-8.6,0.7-9.1c0.3-0.5,1-0.8,2.1-1.1c1.4-0.3,2.3-0.5,2.5-0.6
				c0.2-0.1,0.4-0.3,0.4-0.6c0-0.5-0.3-0.8-0.9-0.8l-13.9,0.3H391c-0.7,0-1.1,0.3-1.1,0.9c0,0.5,0.4,0.8,1.1,0.9
				c1.9,0.2,3.2,0.5,3.8,0.8c0.6,0.3,1.1,0.9,1.3,1.7c0.3,0.8,0.4,2.9,0.4,6.3c0,1.5-0.2,2.7-0.7,3.5c-0.5,0.8-1.5,1.6-3.1,2.3
				c-1.6,0.7-3.2,1.1-4.7,1.1c-3.6,0-6.8-1.7-9.5-5.2c-2.7-3.5-4-8-4-13.4c0-4.9,1.2-9.2,3.6-12.8c2.4-3.6,5.8-5.4,10.1-5.4
				c3.3,0,6.3,1,8.9,3c2.6,2,4.6,4.7,6.2,7.9c0.3,0.7,0.8,1.1,1.3,1.1c0.5,0,0.8-0.3,0.8-0.9c0-0.2,0-0.6-0.1-1l-0.9-8.7
				c-0.1-1.3-0.5-1.9-1-1.9c-0.5,0-0.8,0.4-1.1,1.1c-0.2,0.6-0.5,0.9-0.9,0.9c-0.4,0-0.8-0.1-1.3-0.3c-2.5-1.1-4.8-2-6.7-2.5
				c-2-0.6-4.2-0.9-6.6-0.9c-6.9,0-12.4,2.1-16.4,6.3c-4,4.2-6,9.2-6,15c0,4.1,1,7.6,3,10.6C369.5,211.5,372.1,213.8,375.3,215.4z"
				/>
		</g>
		<g>
			<path fill="#00256A" d="M415.8,217.8c0.3,0,0.6-0.2,0.9-0.6l-1.3,0.4C415.5,217.7,415.6,217.8,415.8,217.8z"/>
		</g>
		<g>
			<path fill="#00256A" d="M417,216.6c0.3-0.7,0.6-1.3,1-1.8c0.9,0.5,1.8,0.9,2.7,1.2l3.9-1.2c-1.2-0.5-2.4-1.3-3.4-2.3
				c-2.1-2-3.8-4.5-5-7.5c-0.4-1-0.8-1.5-1.3-1.5c-0.6,0-0.9,0.3-0.9,0.9c0,0.1,0,0.4,0.1,0.9l0.9,10.9c0.1,0.7,0.2,1.2,0.5,1.4
				l1.3-0.4C416.8,217,416.9,216.8,417,216.6z"/>
		</g>
		<g>
			<path fill="#00256A" d="M442.7,209.1c0.5-1.4,0.8-2.9,0.8-4.7c0-2.8-0.9-5.3-2.8-7.5c-1.9-2.3-5.6-4.1-10.9-5.7
				c-3.4-1-5.8-2-7-3.1c-1.2-1.1-1.8-2.3-1.8-3.7c0-1.7,0.6-3.1,1.9-4.2c1.3-1.1,2.9-1.7,4.9-1.7c2,0,4,0.7,6,2.1
				c2,1.4,3.4,3,4.3,4.8c0.5,1,0.8,1.7,1,1.9c0.2,0.2,0.5,0.3,0.9,0.3c0.5,0,0.8-0.3,0.8-0.8l-0.1-1l-1.1-8.3
				c-0.1-0.9-0.5-1.3-1-1.3c-0.4,0-0.7,0.3-1,1c-0.3,0.5-0.5,0.9-0.8,1.2c-3.8-1.3-6.8-2-9.1-2c-4.2,0-7.5,1.1-10,3.3
				c-2.4,2.2-3.7,4.9-3.7,8.1c0,1.8,0.5,3.6,1.5,5.4c1,1.8,2.3,3.1,4,4.1c1.7,1,4.2,2.1,7.6,3.2c3.5,1.1,5.9,2.3,7.3,3.5
				c1.3,1.2,2,2.7,2,4.5c0,0.9-0.2,1.8-0.6,2.7l6.4-2L442.7,209.1z"/>
		</g>
		<g>
			<path fill="#00256A" d="M55.9,177.4l1.5,9.1l0.1,0.4c0,0.6-0.2,0.9-0.6,0.9c-0.3,0-0.5-0.2-0.8-0.7c-1.6-2.4-3.3-4.3-5.3-5.6
				c-2-1.3-5.1-2-9.5-2c-3,0-4.7,0.3-5,0.9c-0.4,0.6-0.5,5.6-0.5,14.8c2.2,0,3.9-0.2,5.1-0.5c1.2-0.3,2.1-0.9,2.8-1.6
				c0.7-0.8,1.3-2.2,1.8-4.3c0.1-0.6,0.4-0.8,0.7-0.8c0.6,0,0.9,0.4,0.9,1.1l-0.2,9.6c-0.1,3.3-0.2,5.1-0.3,5.4
				c-0.1,0.3-0.3,0.4-0.7,0.4c-0.5,0-0.8-0.4-0.9-1.2c-0.2-1.9-0.9-3.4-1.9-4.4s-3.5-1.6-7.3-1.6l0,11.2c0,2.2,0.2,3.8,0.5,4.7
				c0.3,0.9,0.8,1.6,1.4,1.9c0.6,0.3,1.6,0.5,2.9,0.6c1,0,1.6,0.1,1.8,0.2c0.3,0.1,0.4,0.4,0.4,0.7c0,0.6-0.5,1-1.4,1
				c-0.8,0-2.4-0.1-4.7-0.2c-2-0.1-3.4-0.2-4.4-0.2l-9.5,0.3c-1,0-1.4-0.3-1.4-0.9c0-0.5,0.6-0.8,1.8-0.9c2.1-0.1,3.3-1,3.7-2.7
				c0.4-1.7,0.6-8.1,0.6-19c0-7.1-0.3-11.3-0.8-12.7c-0.5-1.4-1.8-2-3.8-2l-0.8,0c-0.7,0-1.1-0.3-1.1-0.9c0-0.6,0.6-0.8,1.7-0.8
				H55.9z"/>
			<path fill="#00256A" d="M61.2,177.1c0.7,0,2.2,0.1,4.3,0.2c1.7,0.1,3,0.1,4,0.1l9.3-0.2c0.8,0,1.2,0.3,1.2,0.8
				c0,0.5-0.4,0.8-1.1,0.8c-1.6,0.2-2.6,0.5-3.2,0.9c-0.5,0.4-0.9,1.4-1.2,3c-0.3,1.6-0.4,5.1-0.4,10.6c0,6.3,0.1,11.3,0.3,14.7
				c0.2,3.5,0.6,5.6,1.2,6.4c0.6,0.8,1.6,1.2,3.1,1.2c1,0,1.5,0.3,1.5,0.8c0,0.7-0.5,1.1-1.6,1.1c-0.3,0-0.7,0-1.3,0
				c-3.8-0.3-6.4-0.4-7.8-0.4c-3,0-5.3,0.1-6.7,0.3c-0.8,0.1-1.3,0.1-1.6,0.1c-0.7,0-1.1-0.3-1.1-0.9c0-0.5,0.3-0.7,0.9-0.8
				c1.7-0.2,2.9-0.7,3.5-1.4c0.6-0.7,0.9-2.5,1.1-5.3c0.1-2.8,0.2-7.1,0.2-13c0-6.2-0.1-10.4-0.3-12.5c-0.2-2.1-0.6-3.4-1.1-3.9
				s-1.5-0.8-2.9-0.9c-0.8-0.1-1.1-0.4-1.1-0.9C60.1,177.4,60.5,177.1,61.2,177.1z"/>
			<path fill="#00256A" d="M94.3,177.2c9.6,11,17.7,19.7,24.1,26.4c0-1.4,0-2.2,0-2.7l0-11.9c0-2.8-0.2-4.8-0.5-6
				c-0.3-1.2-1-2.2-2.1-2.9c-1-0.7-2.3-1.1-3.6-1.2c-0.7-0.1-1.1-0.4-1.1-0.9c0-0.6,0.3-0.9,1-0.9c0.4,0,0.9,0,1.5,0.1
				c1.1,0.1,2.8,0.2,5,0.2c2.8,0,4.9-0.1,6.3-0.2c0.6-0.1,1.1-0.1,1.5-0.1c0.8,0,1.1,0.3,1.1,0.9c0,0.6-0.5,0.9-1.5,1
				c-1.3,0.1-2.4,0.7-3.5,1.6c-1.1,0.9-1.6,2.8-1.6,5.6l0.2,17.1l-0.2,12.8c0,1.1-0.3,1.7-1,1.7c-0.2,0-0.4-0.1-0.6-0.2
				c-0.2-0.1-1.6-1.5-4.1-4.2c-2.5-2.7-6.3-6.8-11.2-12.4c-5-5.6-8.5-9.6-10.5-12c0,0.5-0.1,5.6-0.1,15.2c0,3,0.1,5.3,0.4,7
				c0.3,1.7,1,2.9,2.4,3.6c1.3,0.8,2.5,1.1,3.6,1.1c0.7,0,1,0.3,1,0.8c0,0.6-0.4,0.9-1.1,0.9c-0.5,0-1,0-1.7-0.1
				c-1.2-0.2-2.7-0.2-4.6-0.2c-3,0-5.2,0.1-6.5,0.3c-0.8,0.1-1.4,0.2-1.8,0.2c-0.8,0-1.2-0.3-1.2-1c0-0.5,0.6-0.8,1.9-0.9
				c2.3-0.2,3.7-1,4.3-2.4c0.6-1.4,0.9-3.3,0.9-5.7c0-10.4-0.1-16.7-0.2-19c-0.1-2.3-0.8-4.4-2.2-6.3c-1.3-1.9-3-3-4.8-3.3
				c-0.8-0.1-1.2-0.5-1.2-0.9c0-0.7,0.4-1,1.2-1c0.2,0,0.5,0,0.9,0.1c0.5,0,1.3,0.1,2.5,0.1C89.6,177.1,92.1,177.1,94.3,177.2z"/>
			<path fill="#00256A" d="M152.5,217.7c-0.9,0-4.5-0.1-10.9-0.2l-6.6,0l-3.9-0.1c-0.9,0-1.5-0.1-1.7-0.2c-0.2-0.1-0.3-0.4-0.3-0.7
				c0-0.6,0.4-0.9,1.3-0.9c1.6,0,2.9-0.3,3.6-0.8c0.8-0.6,1.2-1.6,1.4-3.1c0.2-1.5,0.4-4.5,0.6-9c0.2-4.5,0.3-8.7,0.3-12.4
				c0-5.3-0.3-8.6-0.8-9.8s-1.8-1.9-3.8-2c-0.7-0.1-1.1-0.4-1.1-0.9s0.3-0.8,1-0.8c0.4,0,1.7,0.1,3.9,0.3c2.5,0.2,4.2,0.3,5.1,0.3
				l11.4-0.2c3.8,0,7.5,0.7,11,2.2c3.5,1.5,6.3,3.8,8.4,7.2s3.1,7.1,3.1,11.2c0,3.1-0.6,6-1.8,8.7c-1.2,2.7-3,4.9-5.3,6.8
				c-2.3,1.8-4.6,3-6.9,3.6C158.3,217.4,155.6,217.7,152.5,217.7z M150.4,215.4c4.2,0,7.6-1.5,10-4.4c2.5-3,3.7-7.2,3.7-12.7
				c0-5.6-1.3-10.2-4-13.8c-2.6-3.6-6.4-5.4-11.3-5.4c-1.7,0-2.7,0.1-3,0.3c-0.3,0.2-0.5,0.4-0.6,0.6c-0.1,0.2-0.2,2.5-0.4,6.8
				l-0.4,10.2c-0.1,2.5-0.1,5.6-0.1,9.4c0,2.8,0.1,4.7,0.4,5.8s0.8,1.9,1.6,2.4C147.3,215.2,148.6,215.4,150.4,215.4z"/>
		</g>
		<g>
			<path fill="#00256A" d="M445.4,487.5c5.6-7.3,8.4-11.8,8.4-13.4c0-0.5-0.2-0.9-0.5-1.4s-1.2-0.9-2.7-1.4
				c-0.6-0.2-0.9-0.4-0.9-0.8c0-0.6,0.4-0.9,1.1-0.9c0.2,0,0.5,0,0.8,0.1c2.6,0.2,4.5,0.3,5.9,0.3c1.5,0,3.2-0.1,5.2-0.3
				c0.4,0,0.7-0.1,1-0.1c0.6,0,0.9,0.3,0.9,0.8c0,0.5-0.3,0.8-0.9,0.8c-1.3,0.1-2.6,0.6-3.7,1.3s-2.5,2.2-4.1,4.3
				c-1.6,2.1-3.4,4.6-5.4,7.5c-2,2.9-3.1,4.7-3.3,5.3c-0.2,0.6-0.3,2.8-0.3,6.6c0,5.7,0.3,9.1,0.8,10.2s1.8,1.7,3.8,1.7
				c0.7,0,1.1,0.3,1.1,0.9c0,0.6-0.4,0.9-1.2,0.9c-0.6,0-2.3-0.1-5-0.3c-1.5-0.1-2.7-0.2-3.3-0.2c-2.2,0-4.7,0.1-7.4,0.4
				c-0.5,0-0.9,0.1-1.2,0.1c-0.8,0-1.1-0.3-1.1-0.9c0-0.5,0.3-0.8,0.9-0.8c2-0.2,3.2-0.9,3.7-2s0.8-3.4,0.8-7.1
				c0-3.3-0.2-5.5-0.6-6.6c-0.4-1.1-1.5-3.1-3.3-6.1c-1.8-3-3.7-5.8-5.5-8.5c-1.8-2.7-3.2-4.5-4.2-5.2c-1-0.8-2-1.2-3.2-1.4
				c-0.6-0.1-0.8-0.4-0.8-0.8c0-0.6,0.4-0.9,1.1-0.9c0.3,0,0.8,0,1.5,0.1c3.1,0.2,5.4,0.3,6.8,0.3c2.3,0,4.9-0.1,7.7-0.3
				c0.6,0,1.1-0.1,1.5-0.1c0.7,0,1,0.3,1,0.8c0,0.5-0.4,0.8-1.1,0.9c-2.1,0.2-3.1,0.9-3.1,2.2C436.5,474.8,439.5,479.5,445.4,487.5z
				"/>
			<path fill="#00256A" d="M487.7,469.3c4.1,0,7.6,0.8,10.7,2.4c3,1.6,5.5,4,7.3,7.1c1.8,3.1,2.8,6.4,2.8,10.1
				c0,5.6-2.1,10.6-6.3,15c-4.2,4.4-9.4,6.5-15.6,6.5c-5.6,0-10.5-1.8-14.5-5.4c-4-3.6-6-8.5-6-14.6c0-5.8,2.1-10.8,6.2-14.9
				C476.4,471.4,481.6,469.3,487.7,469.3z M498.2,489.8c0-6.1-1-10.7-3.1-13.8c-2.1-3.1-4.7-4.6-7.9-4.6c-3.2,0-5.8,1.5-7.8,4.6
				c-2.1,3.1-3.1,7.7-3.1,13.7c0,5.8,1,10.4,3,13.6c2,3.2,4.6,4.8,8,4.8c3,0,5.5-1.5,7.7-4.4C497.1,500.9,498.2,496.2,498.2,489.8z"
				/>
			<path fill="#00256A" d="M513.6,469.5l9.7,0.3c0.9,0,2,0,3.2-0.2c1.9-0.1,3.4-0.2,4.5-0.2c1,0,1.5,0.3,1.5,0.8
				c0,0.5-0.4,0.8-1.2,0.9c-1.4,0.1-2.5,0.6-3.2,1.6c-0.7,1-1.2,2.9-1.4,5.9c-0.2,3-0.3,6.2-0.3,9.8c0,5.7,0.3,9.5,0.8,11.5
				c0.5,2,1.7,3.5,3.5,4.7c1.8,1.2,4.2,1.7,7.1,1.7c3,0,5.3-0.6,6.8-1.9s2.6-3.3,3.2-6c0.6-2.7,0.9-7.8,0.9-15.2
				c0-4.4-0.3-7.4-1-9.1c-0.7-1.7-1.8-2.6-3.5-2.7c-1.2-0.1-1.8-0.5-1.8-1.1c0-0.6,0.5-0.9,1.4-0.9c0.5,0,1.2,0.1,2.3,0.2
				c1.1,0.1,2.3,0.1,3.5,0.1c1.1,0,2.4-0.1,3.8-0.2c1-0.1,1.8-0.1,2.2-0.1c1,0,1.5,0.3,1.5,0.9c0,0.5-0.4,0.7-1.1,0.8
				c-1,0.1-1.9,0.6-2.7,1.4c-0.8,0.8-1.3,2.2-1.6,4.1c-0.2,1.9-0.3,6.9-0.3,14.8c0,5.2-0.5,9-1.6,11.4c-1,2.3-2.9,4.2-5.5,5.5
				c-2.6,1.3-5.8,1.9-9.7,1.9c-3,0-5.6-0.3-7.8-0.8s-4-1.4-5.3-2.5c-1.3-1.1-2.2-2.4-2.8-3.8c-0.6-1.4-0.9-3.6-0.9-6.4l0.1-16.1
				c0-2.3-0.1-4.1-0.4-5.5c-0.3-1.4-0.6-2.4-1.2-2.9c-0.5-0.5-1.4-0.8-2.5-0.9c-0.7-0.1-1.1-0.2-1.3-0.3c-0.2-0.1-0.3-0.3-0.3-0.6
				C512.3,469.8,512.7,469.5,513.6,469.5z"/>
			<path fill="#00256A" d="M581.7,489.4c2.7,0.4,4.9,1.2,6.7,2.5c1.8,1.3,3.1,3.8,4,7.5c0.8,3.5,1.7,5.8,2.7,6.9
				c0.9,1.1,2.3,1.7,4,1.8c0.9,0.1,1.4,0.4,1.4,0.9c0,0.6-0.8,0.9-2.3,0.9l-11.6-0.3c-1.2-1.2-2-3.4-2.5-6.5c-0.6-4-1.1-6.8-1.7-8.4
				c-0.6-1.6-1.5-2.8-2.7-3.5c-1.2-0.7-2.6-1.1-4.2-1.1c-0.5,0-1.1,0-1.9,0.1c0,7.1,0,11.4,0.1,13.1c0.1,1.6,0.4,2.8,1,3.5
				c0.6,0.7,1.7,1.1,3.4,1.2c0.9,0.1,1.4,0.4,1.4,0.9c0,0.5-0.4,0.8-1.2,0.8l-9.3-0.2c-1.2,0-2.8,0.1-4.8,0.2
				c-1.8,0.1-2.9,0.2-3.4,0.2c-0.8,0-1.2-0.3-1.2-0.9c0-0.6,0.4-0.8,1.1-0.8c1.1,0,2.2-0.3,3.1-0.8c1-0.6,1.4-2.9,1.4-7.1l0-5.6
				l0-10.8c0-5.6-0.2-9-0.7-10.2c-0.5-1.2-1.8-1.9-4-1.9c-0.8,0-1.3-0.3-1.3-0.9c0-0.6,0.6-0.9,1.7-0.9c5.7,0,10.5-0.1,14.4-0.4
				c1.7-0.1,3.3-0.2,4.7-0.2c4.6,0,8.1,0.9,10.7,2.7c2.6,1.8,3.9,4.2,3.9,7.1c0,2-0.6,3.7-1.8,5.3c-1.2,1.6-2.8,2.7-4.6,3.5
				C586.3,488.7,584.1,489.2,581.7,489.4z M573.5,488.1c0.5,0,0.9,0,1.2,0c1.7,0,3.5-0.3,5.3-1c1.8-0.7,3-1.7,3.8-3.1
				c0.7-1.4,1.1-3,1.1-4.6c0-2.5-0.7-4.5-2.2-5.9s-3.4-2.1-5.8-2.1c-1,0-2.1,0.2-3.3,0.5V488.1z"/>
		</g>
		<g>
			<path fill="#00256A" d="M484.5,418.5c4.1,0,7.6,0.8,10.7,2.4c3,1.6,5.5,4,7.3,7.1c1.8,3.1,2.8,6.4,2.8,10.1
				c0,5.6-2.1,10.6-6.3,15c-4.2,4.4-9.4,6.5-15.6,6.5c-5.6,0-10.5-1.8-14.5-5.4c-4-3.6-6-8.5-6-14.6c0-5.8,2.1-10.8,6.2-14.9
				C473.2,420.6,478.3,418.5,484.5,418.5z M495,439c0-6.1-1-10.7-3.1-13.8c-2.1-3.1-4.7-4.6-7.9-4.6c-3.2,0-5.8,1.5-7.8,4.6
				c-2.1,3.1-3.1,7.7-3.1,13.7c0,5.8,1,10.4,3,13.6c2,3.2,4.6,4.8,8,4.8c3,0,5.5-1.5,7.7-4.4C493.9,450.1,495,445.5,495,439z"/>
			<path fill="#00256A" d="M510.3,418.7l9.7,0.3c0.9,0,2,0,3.2-0.2c1.9-0.1,3.4-0.2,4.5-0.2c1,0,1.5,0.3,1.5,0.8
				c0,0.5-0.4,0.8-1.2,0.9c-1.4,0.1-2.5,0.6-3.2,1.6c-0.7,1-1.2,2.9-1.4,5.9c-0.2,3-0.3,6.2-0.3,9.8c0,5.7,0.3,9.5,0.8,11.5
				s1.7,3.5,3.5,4.7c1.8,1.2,4.2,1.7,7.1,1.7c3,0,5.3-0.6,6.8-1.9c1.5-1.3,2.6-3.3,3.2-6c0.6-2.7,0.9-7.8,0.9-15.2
				c0-4.4-0.3-7.4-1-9.1c-0.7-1.7-1.8-2.6-3.5-2.7c-1.2-0.1-1.8-0.5-1.8-1.1c0-0.6,0.5-0.9,1.4-0.9c0.5,0,1.2,0.1,2.3,0.2
				c1.1,0.1,2.3,0.1,3.5,0.1c1.1,0,2.4-0.1,3.8-0.2c1-0.1,1.8-0.1,2.2-0.1c1,0,1.5,0.3,1.5,0.9c0,0.5-0.4,0.7-1.1,0.8
				c-1,0.1-1.9,0.6-2.7,1.4c-0.8,0.8-1.3,2.2-1.6,4.1c-0.2,1.9-0.3,6.9-0.3,14.8c0,5.2-0.5,9-1.6,11.4c-1,2.3-2.9,4.2-5.5,5.5
				c-2.6,1.3-5.8,1.9-9.7,1.9c-3,0-5.6-0.3-7.8-0.8c-2.2-0.5-4-1.4-5.3-2.5c-1.3-1.1-2.2-2.4-2.8-3.8c-0.6-1.4-0.9-3.6-0.9-6.4
				l0.1-16.1c0-2.3-0.1-4.1-0.4-5.5c-0.3-1.4-0.6-2.4-1.2-2.9c-0.5-0.5-1.4-0.8-2.5-0.9c-0.7-0.1-1.1-0.2-1.3-0.3
				c-0.2-0.1-0.3-0.3-0.3-0.6C509,419,509.5,418.7,510.3,418.7z"/>
			<path fill="#00256A" d="M557.2,418.7c10.4,0.3,18.2,0.4,23.2,0.4c3.8,0,8-0.1,12.6-0.3c1.6-0.1,3-0.1,4-0.1c0.4,0,1.1,0,2,0
				c0.1,0.8,0.3,2.5,0.5,5.1l0.5,4.8c0,0.8-0.3,1.2-1,1.2c-0.5,0-1-0.5-1.4-1.4c-0.8-1.6-1.7-3-2.9-4.2c-1.2-1.2-2.6-1.9-4.2-2.3
				c-1.6-0.4-4.2-0.6-7.8-0.6c-0.3,3.1-0.5,6.9-0.5,11.5c0,4.7,0.1,9.3,0.3,13.7s0.4,7,0.7,7.9c0.3,0.9,0.7,1.6,1.3,2
				c0.6,0.4,2.1,0.7,4.4,0.9c0.8,0.1,1.2,0.3,1.2,0.8c0,0.6-0.3,0.8-1,0.8l-0.8,0l-6.3-0.2c-4.9,0-7.8,0-8.9,0.1l-3.8,0.2
				c-0.3,0-0.9,0-1.9-0.1c-0.5-0.1-0.7-0.4-0.7-0.8c0-0.6,0.4-0.9,1.1-0.9c1.8,0,3.1-0.4,4-1.1c0.9-0.7,1.5-1.9,1.7-3.5
				c0.2-1.6,0.3-5.1,0.3-10.5c0-8.5-0.3-15.5-0.8-20.9c-3.3,0-5.7,0.1-7.2,0.4c-1.5,0.3-2.9,1-4.3,2.2s-2.5,2.8-3.3,4.7
				c-0.3,0.8-0.7,1.1-1.2,1.1c-0.7,0-1-0.3-1-0.9c0-0.2,0.1-1.5,0.4-4S556.9,420.4,557.2,418.7z"/>
		</g>
		<g>
			<g>
				<g>
					<path fill="#00256A" d="M581.8,93.2v-0.4l-0.1-0.1c-1.2-1-2.4-1.6-3.6-2h-0.5l-0.2,0.1c-0.6,0.6-1,1.1-1,1.6h-6.5l-0.2-0.2
						l-3.2-1.2h-0.5l-0.2,0.2v0.2c-0.1,0.8,0,1.1,0.1,0.8v5.1l-0.1,9.9c0.1,0.3,0.4,0.6,0.9,0.7h1.2c0.8-0.2,1.5-0.5,2.1-1.2
						c0-0.7,0.1-1.4,0.6-1.3h5.8l0.5,0.4c-0.1,1.4,0.2,1.5,0.9,1.3h1.3c1.2-0.5,1.9-1,2.1-1.5v-0.4c0-0.9-0.1-10.9-0.1-10.9
						L581.8,93.2z M577,104c0.1,0.1-0.1,0.3-0.5,0.7h-5.8c-0.5-0.3-0.7-0.6-0.5-0.7V93.6c0.1-0.2,0.3-0.4,0.5-0.5h5.8
						c0.2,0.1,0.4,0.3,0.5,0.5V104z"/>
				</g>
			</g>
			<g>
				<g>
					<path fill="#00256A" d="M600,93.2v-0.4l-0.1-0.1c-1.2-1-2.4-1.6-3.6-2h-0.5l-0.2,0.1c-0.6,0.6-1,1.1-1,1.6h-6.5l-0.2-0.2
						l-3.2-1.2h-0.5l-0.2,0.2v0.2c-0.1,0.8,0.1,6,0.1,6l-0.1,9.9c0.1,0.3,0.4,0.6,0.9,0.7h1.2c0.8-0.2,1.5-0.5,2.1-1.2
						c0-0.7,0.1-1.4,0.6-1.3h5.8l0.5,0.4c-0.1,1.4,0.2,1.5,0.9,1.3h1.3c1.2-0.5,1.9-1,2.1-1.5v-0.4c0-0.9-0.1-10.9-0.1-10.9
						L600,93.2z M595.2,104c0.1,0.1-0.1,0.3-0.5,0.7h-5.8c-0.5-0.3-0.7-0.6-0.5-0.7V93.6c0.1-0.2,0.3-0.4,0.5-0.5h5.8
						c0.2,0.1,0.4,0.3,0.5,0.5V104z"/>
				</g>
			</g>
			<g>
				<g>
					<path fill="#00256A" d="M574.6,90.4h1.3c1-0.3,1.6-0.6,1.9-1c-0.1-1.4,0.1-1.3,0.6-1.3h7.8l0.3,0.3c0.2,1.4,0.3,1.2,0.9,1.1
						h1.2c1.5-0.5,2.2-1,2.2-1.5v-0.2l0-1.3v-8.7c0.7-0.6,1.1-1,1.2-1.2V76l-0.5-0.7c-1.4-0.9-2.5-1.4-3.5-1.7h-0.6l-1.6,2.5h-7.2
						l-0.3-0.2l-3.7-1.4H574l-0.2,0.2l0.1,7.4l-0.1,7.7C573.9,90,574.2,90.3,574.6,90.4z M578,77.4c0.1-0.3,0.3-0.5,0.5-0.6h7.8
						c0.2,0.1,0.4,0.3,0.5,0.6v9.4c0.1,0.1-0.1,0.3-0.5,0.6h-7.8c-0.5-0.3-0.7-0.5-0.5-0.6V77.4z"/>
				</g>
			</g>
		</g>
		<g>
			<g>
				<g>
					<path fill="#00256A" d="M523.4,30.7h0.5c0.5,0.1,1.5,0.4,3,1c0.8,0.3,1.3,0.6,1.3,0.9l0.1,0.1V33c0,0.2-0.5,0.7-1.5,1.3
						c-0.1,1.2-0.4,3.2-1,6h2.8l1.5-2.1h0.7c1.3,0.3,2.6,1.2,3.7,2.5l0.3,0.3v0.4c0.1,0.1-0.3,0.5-1.3,1c-0.1,0-0.3,0.6-0.4,1.8
						c-0.1,0.6-0.2,1.5-0.5,2.6V47c0,0.2,1.5,0.2,4.4,0.2h1.9c0.4-0.3,0.6-0.5,0.5-0.6v-5.6l-0.4-2.3v-0.1l0.3-0.2
						c0.5-0.1,1.6,0.1,3.1,0.6h0.3c0.1,0.1,0.5-0.5,1-1.7l1.4-2.6l0.1-0.2v-0.2l-0.3-0.3h-9.4c-0.2,0.1-1,0.2-2.2,0.3l-0.5-0.9V33
						l0.1-0.2c0,0.1,3.5,0.2,10.2,0.2h2.4l1.4-1.9h0.8c1.8,0.7,3.2,1.9,4.4,3.7v0.6c-0.1,0.4-1,0.7-2.7,0.8c-1.9,0.5-3.7,1.6-5.3,3
						v0.3l0.4,0.4v0.7c-0.1,0.3-0.4,0.6-0.7,0.7v5.1c-0.1,0.1,0.1,0.3,0.5,0.6h1.7c0.1,0.1,0.5-0.3,1-1.3c0-0.2,0.4-0.7,1.3-1.7
						l0.1-0.2h0.7c0.8,0.2,2,1.3,3.3,3.1v0.4c0.1,0.1-0.1,0.3-0.4,0.5h-7.7c-0.2,0.1-0.4,0.3-0.5,0.6l0.1,10l0.1,0.1v2.5
						c-0.7,2.2-2.1,3.5-4.1,4.1l-0.2,0.1h-0.9c-0.4,0.2-0.8-0.6-1.2-2.2c-0.3-0.8-1.3-1.6-3-2.4v-0.4l0.2-0.1
						c1.2,0.2,2.7,0.3,4.3,0.2c0.4-0.3,0.6-0.5,0.5-0.6V48.6c-0.1-0.3-0.3-0.5-0.5-0.6H533c-0.6-0.3-1.1,0.5-1.3,2.4l-1.4,4.2
						l-0.1,0.1v0.6c1.1,0.9,2.1,2.1,2.7,3.4c0.2,0.5,0.3,1.3,0.2,2.4c-0.3,0.8-0.8,1.3-1.6,1.6l-0.2,0.1h-1c-0.8-0.1-1.3-1.1-1.5-3
						l-0.7-1.3H528c-2.5,2.8-5.5,4.9-9,6.4l-0.6,0.1l-0.2-0.2v-0.3c3.8-2,6.4-5,7.9-9V55l-1.5-1.4l-0.4-0.3h-0.3
						c-0.2,1.2-0.8,1.9-1.7,1.9l-1.7,0.1c-0.3-0.1-0.6-0.2-0.9-0.4c-0.1-0.1,0-0.7,0.3-2c0.6-2.6,1.3-6.5,2.1-11.8
						c-1.1-0.1-2.3,0-3.5,0.1c-0.2-0.1-0.3-0.3-0.4-0.6v-0.2l0.1-0.2l3.8,0.1c0.6-2.3,1.1-4.9,1.3-8v-0.5l-0.1-0.5v-0.4L523.4,30.7z
						 M525.7,41.1c-0.1,0-0.4,1.5-0.7,4.4l-1,6.1v0.5c-0.1,0.2,0.3,0.3,1.1,0.4l1.4,0.6h0.2c1.3-2.3,2.2-6.2,2.5-11.6
						c-0.1-0.3-0.3-0.4-0.5-0.5H525.7z"/>
				</g>
			</g>
		</g>
		<g>
			<g>
				<path fill="#00256A" d="M566.5,34.5h11.9c0.4-0.2,0.5-0.4,0.5-0.5v-0.3l-0.1-0.2c-0.9-1.3-2-2.2-3.5-2.8h-0.8l-0.1,0.2l-2,2.8
					h-1.7c-3.7,0.1-5.5,0-5.6-0.2l-0.2,0.2V34l0.4,0.6C565.7,34.7,566,34.6,566.5,34.5z"/>
			</g>
			<g>
				<path fill="#00256A" d="M572.7,53.5c-1.1,0-2.2-0.2-3.3-0.7v11.8c0.3,0.5,0.7,0.7,1.1,0.8h1.7c0.6-0.2,1-0.4,1.3-0.8l-0.1-4.4
					c0-0.8,0-1-0.1-0.8v-6c-0.2,0-0.3,0.1-0.5,0.1C572.8,53.5,572.8,53.5,572.7,53.5z"/>
			</g>
			<g>
				<path fill="#00256A" d="M565,48.3c0.1,4.5-0.4,8.8-1.3,12.9l0.3,0.2h0.4l0.5-0.6c1.9-2.9,3-5.7,3.5-8.5c-0.5-0.3-1-0.7-1.4-1.1
					C566.1,50.4,565.4,49.4,565,48.3z"/>
			</g>
			<g>
				<path fill="#00256A" d="M585.3,34c0.1-0.3,0.3-0.5,0.5-0.6h6.7c0.2,0.1,0.4,0.3,0.5,0.6v2l0.5,0c1.7,0,2.8,0.6,3.5,1.4v-2.1
					c0.5-0.5,0.9-0.9,1.1-1.3v-0.7c-1.4-1.3-2.6-2.1-3.9-2.5h-0.7l-1.4,1.9h-6.4c-1.6-0.7-2.9-1.1-4-1.3h-0.5l-0.3,0.2
					c0.3,1.3,0.4,2.3,0.3,3.2c0,0.6,0,1.1,0,1.7l4-0.1V34z"/>
			</g>
			<g>
				<path fill="#00256A" d="M597.9,58.7l-0.2-0.2h-0.5l-0.2,0.4c-0.5,1.1-1.4,1.8-2.2,1.8h-0.5c-0.4-0.2-0.6-0.4-0.6-0.7v-8.1
					l0.6,0.3h1.4c0.8-0.2,1.3-0.5,1.5-0.9l-0.1-4.6c0-0.8,0-1-0.1-0.8v-3.3c-0.5,0.6-1.1,1.1-2.1,1.6L593,45v4.9
					c0,0.1-0.1,0.3-0.5,0.6h-6.7c-0.5-0.3-0.6-0.5-0.5-0.6v-1.4l-4,1.8c0,1-0.1,1.6-0.1,1.6c0.2,0.3,0.4,0.4,0.8,0.5h1.2l1.1-0.4
					c-0.2,2.3-0.4,3.9-0.8,4.9c-1.3,3.8-4.1,6.4-8.5,7.8v0.5l0.2,0.2h1c2.4-0.4,4.2-0.9,5.6-1.7c3.8-1.7,5.9-5.1,6.4-10.1
					c-0.1-1.7,0.1-2.5,0.6-2.4h0.6c0.2,0.1,0.4,0.3,0.5,0.6v11c0.5,1.4,1.4,2.1,2.6,2.1h3.3c2.2-0.2,3.4-1.1,3.6-2.6V62
					C599.1,61.1,597.9,58.7,597.9,58.7z"/>
			</g>
			<g>
				<path fill="#00256A" d="M575.3,53l-0.2,0.1c0,0-0.1,0-0.1,0v5.2c0.3,0.5,0.6,0.7,1,0.8h1.2l0.2-0.1c0.1,0.1,0.6-0.2,1.4-0.9
					c0-1.4,0-2.9-0.2-4.3v-2.3l-1.6,0.7C576.4,52.6,575.9,52.9,575.3,53z"/>
			</g>
			<g>
				<path fill="#00256A" d="M593,43.1l1.2-0.5c1.4-0.7,2-1.6,2-2.6c0-0.8-0.4-2.2-2.7-2.2h-0.2l-0.4,0l-7.7,0.3l-4,0.1l-3.1,0.1
					l-0.8,0c0.3,0.2,0.7,0.5,1,0.8c0.5,0.5,0.9,1,1.3,1.6c0.8,1.3,1.3,2.7,1.3,4.2c0,1.4-0.3,2.8-1,4l1.2-0.6l4-1.8L593,43.1z"/>
			</g>
			<g>
				<path fill="#00256A" d="M577.3,40.4c-0.8-0.7-1.7-1.2-2.7-1.5c-0.6-0.2-1.2-0.3-1.8-0.3h-0.2h0c-1.6,0-3,0.6-4.2,1.7
					c-0.1,0.1-0.3,0.2-0.4,0.4c0,0,0,0,0,0.1c-1,1.1-1.6,2.4-1.7,3.8c0,0.3-0.1,0.5-0.1,0.8c0,1.8,0.8,3.4,2,4.6
					c0.1,0.1,0.3,0.2,0.4,0.3c0.3,0.2,0.6,0.4,0.9,0.6c1,0.6,2.2,0.9,3.4,0.9c0.2,0,0.3,0,0.5-0.1c0.4,0,0.8-0.1,1.2-0.2
					c0,0,0,0,0,0l0.3-0.2l1.3-0.6c0.4-0.3,0.9-0.6,1.3-1c0.5-0.5,0.8-1,1.1-1.6c0.3-0.6,0.5-1.2,0.6-1.8c0.1-0.3,0.1-0.6,0.1-1
					c0-0.1,0-0.2,0-0.3c0-1.4-0.5-2.8-1.4-3.9C577.7,40.8,577.5,40.6,577.3,40.4z"/>
			</g>
			<g>
				<path fill="#00256A" d="M574.6,51.4c0.1,0,0.2-0.1,0.3-0.1v0L574.6,51.4z"/>
			</g>
			<g>
				<path fill="#00256A" d="M575,51.3c0.4-0.2,0.9-0.4,1.3-0.6L575,51.3L575,51.3z"/>
			</g>
		</g>
		<g>
			<path fill="#00256A" d="M540.4,98.8L540.4,98.8c3.1-1,5.6-2.1,7.5-3.3l1.6,0.1c0.3-0.1,0.5-0.3,0.6-0.6v-0.2l-0.1-0.3
				c-1.3-1.8-2.5-3-3.4-3.5h-0.6l-0.1,0.1l-1.1,1.5c-2.5,3-4.3,4.7-5.3,5.2h-0.1c-1.9-1.8-3.2-3.8-4-6.2v-0.3h4.4
				c0.3,0.6,0.7,0.9,1,0.9h2.2l0.1-0.1c0.2,0.1,0.7-0.1,1.5-0.7v-1.4c0-0.8-0.1-8.6-0.1-8.6c0.4-0.2,0.7-0.5,0.9-0.9v-0.8
				c-1.2-1.3-2.5-2-3.9-2.1h-0.8l-0.2,0.1c-0.6,0.6-1,1.2-1.2,1.9h-2.9c-0.4-0.3-0.6-0.5-0.5-0.6v-2.8c0.5-0.3,0.9-0.7,1-1v-0.4
				c0-0.1-0.2-0.3-0.4-0.4c-1.4-0.4-2.8-0.7-4.2-0.8h-1c-0.1,0-0.3,0.2-0.4,0.5l0.3,1.3v3.8c0,0.1-0.1,0.3-0.5,0.6h-2.6l-0.1-0.1
				c-2.1-0.9-3.6-1.4-4.4-1.5H523l-0.3,0.3v0.3l0.5,2.3v20.6l-0.1,0.1c-1.3,0.2-2.4,0.2-3.5,0.1c-1-0.1-1.4,0-1.3,0.3v0.5
				c0.8,2.2,1.7,3.9,2.6,5h0.4l1.3-0.7c5.9-2.2,11-4,15.1-5.4h0.5l1.5,1.6c2.3,1.9,4.5,3.4,6.5,4.3h0.8c1.2-1.7,2.5-2.9,4.1-3.7
				v-0.5C546.5,102.5,542.9,101,540.4,98.8z M539.6,90.5h-11.6c-0.1,0-0.1-0.1-0.1-0.1l12.3-6.3v5.8C540.1,90,539.9,90.2,539.6,90.5
				z M527.9,80.6h11.6c0.1,0,0.1,0.1,0.2,0.2l-12.3,6.3v-6C527.5,80.8,527.7,80.7,527.9,80.6z M537.1,100.6l-0.1,0.1l-2.1,0.3
				c-4.7,0.5-7.1,0.7-7.2,0.6l-0.2-0.2v-9.5c0.1-0.2,0.3-0.4,0.5-0.5h6.2l0.3,2.5c0.8,3,1.7,5.1,2.6,6.3V100.6z"/>
		</g>
		<g>
			<g>
				<path fill="#00256A" d="M121,128.2h0.3c-0.1-0.1-0.1-0.1-0.2-0.2C121.1,128.1,121,128.2,121,128.2z"/>
			</g>
			<g>
				<path fill="#00256A" d="M21.2,126.6v1.6H76c-0.4-0.5-0.9-1.1-1.3-1.6H21.2z"/>
			</g>
			<g>
				<path fill="#00256A" d="M166.2,128.2h57.3v-1.6h-56C167.1,127.2,166.7,127.7,166.2,128.2z"/>
			</g>
			<g>
				<path fill="#606060" d="M121.1,128.1c0.4-0.5,0.8-1,1.1-1.5H120C120.4,127.1,120.7,127.6,121.1,128.1z"/>
			</g>
			<g>
				<path fill="none" d="M98.5,138.8c9,0,17-4.1,22.5-10.5h0.3c5.5,6.4,13.5,10.5,22.5,10.5s17-4.1,22.5-10.5h57.3v-1.6h-56
					c3.8-5.2,6.1-11.6,6.1-18.6c0-17-13.4-30.8-29.9-30.8c-9,0-17.2,4.1-22.6,10.7c-5.5-6.6-13.6-10.7-22.6-10.7
					C82,77.2,68.6,90.9,68.6,108c0,7,2.3,13.5,6.1,18.6H21.2v1.6H76C81.5,134.7,89.5,138.8,98.5,138.8z"/>
			</g>
			<g>
				<g>
					<path fill="#00256A" d="M64.2,109.7H48.5c-0.4,0-0.7,0.3-0.7,0.7v0.5c0,0.4,0.3,0.7,0.7,0.7c1.1,0,2.5,0.3,2.8,0.9
						c0,0.1,0.1,0.4,0.1,1.7v3.7c0,2.5-0.8,4.4-2.4,5.6c-1.6,1.3-4,2-7,2c-3.2,0-5.6-1.5-7.4-4.5c-1.9-3.1-2.8-7.7-2.8-13.6
						c0-5.9,1-10.5,3-13.7c2-3.1,4.6-4.7,8-4.7c3.6,0,6.8,1.3,9.5,3.8c2.9,2.7,4.8,6.7,5.8,11.7c0.1,0.3,0.3,0.6,0.7,0.6h0.6
						c0.4,0,0.7-0.3,0.7-0.7V87.8c0-0.3-0.3-0.6-0.6-0.7c-0.3,0-0.7,0.2-0.8,0.5c0,0-0.7,2.3-2.3,2.9c-0.9,0.3-1.9,0.1-3-0.6
						c-4.6-2.8-8.9-2.8-11.8-2.8c-3.8,0-8.8,0.5-13.3,4.3c-4.6,3.9-7.2,9.8-7.2,16.7c0,6.8,2.4,12.4,6.9,15.7
						c4.1,3.2,9,3.6,13.7,3.6c2.1,0,3.8-0.2,5-0.6c1.2-0.4,2.7-1.2,4.6-2.4c0.5-0.4,0.9-0.8,1.4-1.2c1-0.7,2.2-1,3.6-1
						c0.7,0,1.3,0.3,1.8,0.9c0.5,0.6,0.8,1.7,0.8,3c0,0.4,0.3,0.7,0.7,0.7h0.6c0.4,0,0.7-0.3,0.7-0.7v-12c0-1.1,0.1-1.6,0.2-1.8
						c0.4-0.2,2.2-0.8,2.9-0.8c0.4,0,0.7-0.3,0.7-0.7v-0.5C64.9,110,64.6,109.7,64.2,109.7z"/>
				</g>
			</g>
			<g>
				<path fill="#00256A" d="M217.2,92.6c-4.4-3.3-9.4-5-14.8-5h-22.4c-0.4,0-0.7,0.3-0.7,0.7v0.5c0,0.4,0.3,0.7,0.7,0.7
					c4,0,4,0.1,4,2.6v30.2c0,1.5-0.6,2-1.1,2.3c-0.8,0.3-1.9,0.3-2.8,0.3c-0.4,0-0.7,0.3-0.7,0.7v0.6c0,0.4,0.3,0.7,0.7,0.7h22.3
					c6.2,0,11.5-1.7,15.7-5.1c4.5-3.6,6.8-8.4,6.8-14.4C224.9,101.4,222.3,96.4,217.2,92.6z M194.2,124.2c0-0.1-0.2-0.5-0.2-1.9
					V92.1c0-1.5,0.1-1.8,0.2-1.9c0.1-0.1,0.3-0.3,0.6-0.4c0.3-0.1,1-0.2,2.4-0.3c1.2-0.1,3-0.1,5.2-0.1c4.1,0,7.1,1.6,9.2,4.9
					c2,3.1,3,7.5,3,13.1c0,5.9-1,10.3-3,13.2c-1.9,2.9-5,4.2-9.2,4.2c-1.6,0-3.2,0-4.7,0c-1.9,0-2.6-0.2-2.8-0.2
					C194.4,124.5,194.3,124.3,194.2,124.2z"/>
			</g>
			<g>
				<g>
					<g>
						<path fill="#00256A" d="M59.2,36.1c-4.4-3.4-9.5-5.1-15-5.1H20.7c-0.4,0-0.7,0.3-0.7,0.7v0.5c0,0.4,0.3,0.7,0.7,0.7
							c2.7,0,2.9,0.1,3,0.2c0.2,0.2,0.5,0.3,1,0.5c0.4,0.1,0.5,0.2,0.5,0.2c0,0.1,0.2,0.5,0.2,1.8v30.6c0,1.4-0.1,1.8-0.1,1.8h0
							c0,0-0.1,0.1-0.7,0.3c-0.4,0.1-1.2,0.3-3,0.4c-0.3,0-0.6,0-0.8,0.2c-0.4,0-0.8,0.3-0.8,0.7v0.6c0,0.4,0.3,0.7,0.7,0.7h23.3
							c6.3,0,11.7-1.7,16-5.2c4.6-3.7,6.9-8.6,6.9-14.6C66.9,45.1,64.3,40,59.2,36.1z M35.8,68.3c0-0.1-0.2-0.5-0.2-2V35.6
							c0-1.5,0.1-1.9,0.2-1.9c0-0.1,0.2-0.2,0.6-0.4c0.3-0.1,1-0.2,2.4-0.3c1.2-0.1,3-0.1,5.2-0.1c4.1,0,7.2,1.6,9.3,4.9
							c2,3.1,3,7.6,3,13.3c0,6-1,10.5-3,13.4h0c-2,2.9-5,4.3-9.4,4.3c-1.6,0-3.2,0-4.8,0c-2,0-2.6-0.2-2.9-0.2
							C36,68.5,35.9,68.3,35.8,68.3z"/>
					</g>
				</g>
				<g>
					<g>
						<path fill="#00256A" d="M111.4,35.7L111.4,35.7c-4.3-3.4-9.3-5.1-15-5.1c-5.5,0-10.6,1.8-15,5.3c-4.9,3.9-7.3,9-7.3,15
							c0,6.3,2.5,11.4,7.4,15.3c4.3,3.4,9.3,5.2,15,5.2c5.5,0,10.6-1.8,15-5.4c4.9-4,7.3-9.1,7.3-15.1
							C118.7,44.7,116.3,39.5,111.4,35.7z M88,64.9C86,61.7,85,57,85,51c0-6.1,1-10.8,2.9-13.9c1.9-3.1,4.7-4.6,8.4-4.6
							c3.8,0,6.6,1.5,8.5,4.6c1.9,3.1,2.9,7.8,2.9,13.9c0,6-1,10.7-3,13.9c-2,3.1-4.7,4.6-8.4,4.6C92.6,69.5,89.9,68,88,64.9z"/>
					</g>
				</g>
				<g>
					<g>
						<path fill="#00256A" d="M170.1,31.1h-13.1c-0.4,0-0.7,0.3-0.7,0.7v0.5c0,0.4,0.3,0.7,0.7,0.7c2.8,0,6.1,6.1,6.1,10.2v15.6
							c0,3.6-1.5,6.3-4.6,8.2c-2.2,1.4-4.5,2.1-6.9,2.1c-4.2,0-7.2-1-8.8-2.9c-1.3-1.6-2-4.3-2-8.1V35.6c0-1.3,0.2-1.7,0.2-1.7
							c0,0,0.2-0.1,0.7-0.3c0.6-0.2,1.5-0.3,2.8-0.4c0.2,0,0.5,0,0.7-0.2c0.1,0,0.1,0,0.2,0c0.4,0,0.7-0.3,0.7-0.7v-0.5
							c0-0.4-0.3-0.7-0.7-0.7h-19c-0.4,0-0.7,0.3-0.7,0.7v0.5c0,0.4,0.3,0.7,0.7,0.7c1.4,0,2.2,0,2.4,0.2c0.2,0.2,0.4,0.3,1,0.5
							c0.3,0.1,0.5,0.2,0.5,0.2c0,0.1,0.2,0.5,0.2,1.8v23.7c0,3.9,2.2,7,6.4,9.2c3.7,1.9,8.4,2.9,13.9,2.9c3,0,5.9-0.8,8.6-2.4
							c4-2.3,6-5.8,6-10.3V40.8c0-2.8,1.8-7.8,4.7-7.8c0.4,0,0.7-0.3,0.7-0.7v-0.5C170.8,31.4,170.5,31.1,170.1,31.1z"/>
					</g>
				</g>
				<g>
					<g>
						<path fill="#00256A" d="M217,53.3c-2-1.6-4.9-2.8-8.5-3.6c3.2-0.7,5.6-1.7,7-2.9c1.6-1.3,2.5-3.3,2.5-5.9
							c0-2.2-1.3-4.3-3.9-6.2c-3.2-2.4-7.4-3.6-12.7-3.6h-25.5c-0.4,0-0.7,0.3-0.7,0.7v0.5c0,0.4,0.3,0.7,0.7,0.7
							c4.4,0,5.6,0.8,5.6,0.8c0,0.1,0.2,0.4,0.2,1.8v30.7c0,1.5-0.2,1.8-0.2,1.8c-0.1,0.2-0.3,0.3-0.6,0.4c-0.2,0.1-0.4,0.1-0.5,0.2
							c-0.4,0.2-0.6,0.3-4.5,0.3c-0.4,0-0.7,0.3-0.7,0.7v0.6c0,0.4,0.3,0.7,0.7,0.7h29.5c4.4,0,8.2-1.2,11.2-3.6
							c2.6-2.1,4-4.4,4-6.8C220.6,57.6,219.4,55.2,217,53.3z M205.1,47.3c-1.5,1-4,1.5-7.3,1.5h-5.9V35.6c0-1.4,0.1-2,0.1-2.1
							c0-0.1,0.1-0.2,0.4-0.3c0.3-0.1,0.9-0.2,2-0.2h3.4c3.7,0,6.3,0.6,7.7,1.9c1.4,1.2,2.2,3.4,2.2,6.6
							C207.8,44.2,206.9,46.1,205.1,47.3z M192.7,68.6c-0.5-0.2-0.6-0.3-0.7-0.4c0,0-0.2-0.4-0.2-2V50.7h7.8c3.5,0,6.2,0.9,8,2.7
							c1.6,1.7,2.5,4.1,2.5,7.2c0,2.6-0.7,4.6-2.1,6l0,0c-1.5,1.6-3.9,2.4-7.1,2.4c-3.3,0-5.3,0-6.2-0.1
							C193.9,68.9,193.2,68.8,192.7,68.6z"/>
					</g>
				</g>
				<g>
					<g>
						<path fill="#00256A" d="M262.4,53.4h-0.9c-0.4,0-0.7,0.3-0.7,0.7c0,10.9-5.8,14.7-11.3,14.7c-3.9,0-6.7-0.2-8.2-0.6
							c-0.4-0.1-0.5-0.2-0.5-0.2c0-0.1-0.2-0.5-0.2-1.8V35.6c0-1.3,0.2-1.7,0.2-1.7c0,0,0.2-0.1,0.8-0.3c0.6-0.2,1.6-0.3,3-0.4
							c0.6,0,0.8-0.1,1-0.1c0.2,0,0.3-0.1,2-0.1c0.4,0,0.7-0.3,0.7-0.7v-0.5c0-0.4-0.3-0.7-0.7-0.7h-21.9c-0.4,0-0.7,0.3-0.7,0.7
							v0.5c0,0.4,0.3,0.7,0.7,0.7c1.7,0,3.3,0.5,4,0.7c0.4,0.1,0.6,0.2,0.6,0.2h0c0,0.1,0.2,0.5,0.2,1.8v30.6c0,1.4-0.1,1.7-0.1,1.7
							c0,0-0.1,0.2-0.7,0.4c-1.2,0.4-2.6,0.6-3.9,0.6c-0.4,0-0.7,0.3-0.7,0.7v0.6c0,0.4,0.3,0.7,0.7,0.7h36.8c0.4,0,0.7-0.3,0.7-0.7
							V54.1C263.1,53.7,262.8,53.4,262.4,53.4z"/>
					</g>
				</g>
				<g>
					<g>
						<path fill="#00256A" d="M308.1,57.6h-0.9c-0.4,0-0.7,0.3-0.7,0.6c-0.7,5.6-7.7,10.6-12.8,10.6c-2.6,0-4.3,0-5.3-0.1
							c-0.9,0-1.8-0.2-2.5-0.4c-0.8-0.2-0.9-0.4-0.9-0.4c0,0-0.1-0.3-0.1-1.8V53.7c8.1,0,10.9,1,11.6,5.7c0,0.3,0.3,0.6,0.7,0.6h0.9
							c0.4,0,0.7-0.3,0.7-0.7V42.7c0-0.4-0.3-0.7-0.7-0.7h-0.9c-0.4,0-0.7,0.3-0.7,0.6c-0.6,4.9-1.7,7.9-11.6,8.1v-15
							c0-1.4,0.1-1.7,0.1-1.8c0-0.1,0.2-0.2,0.5-0.3c1.4-0.3,3-0.5,4.7-0.5c1.8,0,3.6,0,5.5,0c4.2,0,8.5,3.6,8.5,6.2
							c0,0.4,0.3,0.7,0.7,0.7h0.9c0.4,0,0.7-0.3,0.7-0.7v-7.4c0-0.4-0.3-0.7-0.7-0.7H269c-0.4,0-0.7,0.3-0.7,0.7v0.5
							c0,0.4,0.3,0.7,0.7,0.7c0.4,0,0.6,0,0.7,0c0.2,0.1,0.5,0.2,1.1,0.2c2,0.2,2.8,0.4,3.1,0.5c0.4,0.1,0.6,0.2,0.6,0.2
							c0,0.1,0.2,0.4,0.2,1.8v30.6c0,1.4-0.1,1.7-0.1,1.7c0,0-0.2,0.2-0.6,0.3c-0.3,0.1-0.5,0.2-0.7,0.3c-0.6,0.2-0.9,0.4-4.2,0.4
							c-0.4,0-0.7,0.3-0.7,0.7v0.6c0,0.4,0.3,0.7,0.7,0.7h39.1c0.4,0,0.7-0.3,0.7-0.7V58.3C308.8,57.9,308.5,57.6,308.1,57.6z"/>
					</g>
				</g>
			</g>
			<g>
				<g>
					<rect x="20" y="70.1" fill="#00256A" width="301.2" height="1.6"/>
				</g>
			</g>
		</g>
		<g>
			<path fill="#00256A" d="M354.4,525.2c0.4-0.4,0.7-0.9,1.1-1.6c0.4-0.9,0.9-1.3,1.4-1.3c0.8,0,1.2,0.6,1.4,1.8l1.5,11.4l0.2,1.4
				c0,0.8-0.4,1.1-1.1,1.1c-0.6,0-1-0.1-1.2-0.4c-0.3-0.3-0.7-1.1-1.4-2.6c-1.2-2.5-3.2-4.7-5.9-6.7c-2.8-2-5.5-3-8.3-3
				c-2.7,0-4.9,0.8-6.7,2.3c-1.8,1.5-2.7,3.5-2.7,5.8c0,1.9,0.8,3.6,2.5,5.1s4.9,2.9,9.6,4.3c7.5,2.1,12.5,4.7,15.1,7.8
				c2.6,3.1,3.9,6.6,3.9,10.4c0,3.9-1,7.2-2.9,9.8c-1.9,2.6-4.2,4.7-6.9,6.2c-2.7,1.5-6.1,2.3-10.3,2.3c-2.4,0-4.8-0.3-7.3-1
				c-2.5-0.7-5.1-1.7-7.8-3.1c-0.6,0.6-1,1.5-1.4,2.5c-0.4,1.1-1,1.7-1.7,1.7c-0.7,0-1.1-0.8-1.3-2.3l-1.2-15.1
				c-0.1-0.7-0.1-1.1-0.1-1.3c0-0.8,0.4-1.2,1.3-1.2c0.6,0,1.2,0.7,1.8,2.1c1.7,4.2,4,7.6,6.9,10.4c2.9,2.8,6.3,4.2,10.1,4.2
				c3.3,0,5.9-1,7.9-2.9c2-1.9,3-4.2,3-6.6s-0.9-4.6-2.8-6.3c-1.9-1.7-5.2-3.3-10.1-4.9c-4.7-1.5-8.2-3-10.5-4.4
				c-2.3-1.4-4.1-3.3-5.5-5.7c-1.4-2.4-2.1-4.9-2.1-7.4c0-4.4,1.7-8.1,5.1-11.1c3.4-3.1,8-4.6,13.8-4.6
				C345,522.4,349.2,523.4,354.4,525.2z"/>
			<path fill="#00256A" d="M369.7,522.9c14.4,0.4,25.1,0.6,32,0.6c5.3,0,11-0.2,17.4-0.5c2.3-0.1,4.1-0.2,5.6-0.2c0.6,0,1.5,0,2.8,0
				c0.2,1.1,0.4,3.5,0.8,7l0.6,6.6c0,1.1-0.5,1.6-1.4,1.6c-0.7,0-1.4-0.7-2-2c-1.1-2.3-2.4-4.2-4.1-5.8s-3.6-2.7-5.8-3.2
				c-2.2-0.5-5.8-0.8-10.8-0.8c-0.4,4.3-0.7,9.6-0.7,16c0,6.5,0.1,12.8,0.4,18.9c0.3,6.1,0.6,9.7,0.9,11c0.4,1.3,1,2.2,1.8,2.8
				c0.9,0.6,2.9,1,6.1,1.2c1.1,0.1,1.6,0.5,1.6,1.2c0,0.8-0.5,1.2-1.4,1.2l-1.2,0l-8.6-0.2c-6.7,0-10.8,0-12.3,0.1l-5.3,0.2
				c-0.4,0-1.3,0-2.6-0.1c-0.6-0.1-1-0.5-1-1c0-0.8,0.5-1.2,1.6-1.2c2.5,0,4.3-0.5,5.6-1.5c1.3-1,2-2.7,2.3-4.9s0.4-7.1,0.4-14.6
				c0-11.8-0.4-21.4-1.1-28.9c-4.6,0-7.9,0.2-9.9,0.6c-2,0.4-4,1.4-5.9,3.1c-1.9,1.7-3.4,3.9-4.6,6.5c-0.5,1.1-1,1.6-1.6,1.6
				c-0.9,0-1.4-0.4-1.4-1.3c0-0.3,0.2-2.1,0.5-5.5C368.9,528,369.3,525.2,369.7,522.9z"/>
			<path fill="#00256A" d="M464.7,547.8c7.8-10.1,11.7-16.3,11.7-18.6c0-0.6-0.2-1.3-0.6-2c-0.4-0.7-1.7-1.3-3.7-1.9
				c-0.8-0.2-1.3-0.6-1.3-1.2c0-0.9,0.5-1.3,1.5-1.3c0.3,0,0.7,0,1.1,0.1c3.6,0.3,6.3,0.5,8.1,0.5c2,0,4.4-0.1,7.2-0.4
				c0.5-0.1,1-0.1,1.3-0.1c0.8,0,1.2,0.4,1.2,1.1c0,0.7-0.4,1.1-1.2,1.2c-1.9,0.2-3.6,0.8-5.1,1.9c-1.6,1-3.5,3-5.7,6
				c-2.2,2.9-4.7,6.4-7.5,10.4c-2.7,4-4.2,6.4-4.5,7.3c-0.3,0.9-0.4,3.9-0.4,9.1c0,7.8,0.4,12.5,1.1,14.1s2.5,2.4,5.3,2.4
				c1,0,1.5,0.4,1.5,1.2c0,0.8-0.6,1.3-1.7,1.3c-0.8,0-3.1-0.1-6.9-0.4c-2.1-0.1-3.7-0.2-4.6-0.2c-3,0-6.5,0.2-10.3,0.5
				c-0.7,0.1-1.3,0.1-1.7,0.1c-1.1,0-1.6-0.4-1.6-1.2c0-0.7,0.4-1.1,1.2-1.2c2.7-0.3,4.4-1.2,5.1-2.7c0.7-1.5,1.1-4.8,1.1-9.8
				c0-4.6-0.3-7.6-0.8-9.1c-0.5-1.5-2.1-4.3-4.6-8.4c-2.5-4.1-5.1-8-7.6-11.8c-2.5-3.8-4.4-6.2-5.8-7.2c-1.3-1.1-2.8-1.7-4.4-2
				c-0.8-0.1-1.2-0.5-1.2-1.1c0-0.9,0.5-1.3,1.5-1.3c0.4,0,1.1,0,2.1,0.1c4.3,0.3,7.5,0.5,9.5,0.5c3.2,0,6.7-0.2,10.7-0.5
				c0.8-0.1,1.5-0.1,2-0.1c0.9,0,1.4,0.4,1.4,1.1c0,0.7-0.5,1.1-1.5,1.2c-2.9,0.3-4.3,1.3-4.3,3
				C452.3,530.2,456.5,536.7,464.7,547.8z"/>
			<path fill="#00256A" d="M541.1,578.9c-7-0.4-17.8-0.5-32.4-0.5c-5.1,0-9.3,0.2-12.5,0.5c-0.8,0.1-1.3,0.1-1.7,0.1
				c-1.1,0-1.6-0.4-1.6-1.3c0-0.4,0.1-0.7,0.4-0.8c0.3-0.2,1-0.3,2-0.5c1.7-0.3,3-0.8,4-1.5c0.9-0.8,1.6-1.9,1.9-3.4
				c0.4-1.5,0.6-5.4,0.6-11.6c0.1-6.2,0.1-13.6,0.1-22.2c0-3.4-0.3-5.9-0.8-7.5c-0.5-1.5-1.2-2.7-2.1-3.4c-0.9-0.7-2.2-1.1-3.9-1.2
				c-1.2-0.1-1.8-0.5-1.8-1.3s0.7-1.3,2-1.3l13.8,0.4c2.1,0,5.1-0.1,9-0.3c1.4-0.1,2.3-0.1,2.8-0.1c1.2,0,1.8,0.4,1.8,1.2
				c0,0.4-0.2,0.8-0.6,0.9s-1.3,0.4-2.8,0.6c-1.9,0.3-3.2,0.7-3.9,1.4c-0.8,0.7-1.3,1.9-1.5,3.6c-0.3,1.7-0.4,5.6-0.4,11.6v25.4
				c0,3.9,0.4,6.2,1,7c0.7,0.7,1.9,1.1,3.8,1.1c4.6,0,8-0.4,10.2-1.1c2.2-0.7,4.3-2,6.4-3.9c2-1.9,4.2-5,6.5-9.4
				c0.5-0.9,1-1.3,1.5-1.3c0.7,0,1.1,0.4,1.1,1.2C544,563.2,543.1,569.1,541.1,578.9z"/>
			<path fill="#00256A" d="M593.2,523.8c0.9,4.3,1.8,8.7,2.6,13c0,0.8-0.4,1.2-1.2,1.2c-0.4,0-0.9-0.4-1.5-1.2
				c-2.9-4.2-5.5-6.9-7.9-8.2c-2.4-1.3-5.8-2-10.3-2c-2.5,0-4.9,0.2-7.3,0.6c-0.5,4.9-0.8,10.3-0.8,16.1c0,1,0,2.7,0.1,5l3.2,0
				c2,0,3.7-0.3,5.1-0.8c1.4-0.5,2.6-1.7,3.6-3.5c1-1.8,1.6-2.9,1.7-3.4c0.3-0.9,0.7-1.3,1.3-1.3c0.8,0,1.2,0.3,1.2,1
				c0,0.2,0,0.4-0.1,0.7c-0.3,1.7-0.5,6.9-0.5,15.5c0,1.2,0.1,2.3,0.3,3.3c0.1,0.3,0.1,0.5,0.1,0.7c0,0.8-0.4,1.2-1.3,1.2
				c-0.6,0-1.1-0.7-1.4-2.2c-0.6-2.6-1.8-4.6-3.8-5.9c-2-1.3-5.1-2-9.4-2.1c-0.1,4.7-0.2,7.7-0.2,9.2c0,6.3,0.1,10.1,0.3,11.3
				c0.2,1.2,0.9,2.2,2.1,2.9c1.2,0.7,3.3,1.1,6.2,1.1c10.6,0,17.6-3.4,20.9-10.1c0.5-0.9,1-1.4,1.5-1.4c0.8,0,1.2,0.3,1.2,1
				c0,0.4-0.1,1-0.3,1.7l-2.7,12l-15.1,0c-4.3,0-8.2-0.1-11.9-0.3c-3.7-0.2-6.6-0.3-8.7-0.3c-2.3,0-5.9,0.1-10.6,0.4
				c-0.6,0.1-1,0.1-1.3,0.1c-1.3,0-2-0.4-2-1.3c0-0.8,0.5-1.2,1.6-1.2c2.7,0,4.5-0.7,5.4-2.2c0.9-1.5,1.4-4.4,1.4-8.9l0.3-21.5
				c0-7.3-0.1-11.8-0.3-13.5c-0.2-1.7-0.7-2.8-1.4-3.4c-0.8-0.6-2.2-1-4.4-1.4c-0.9-0.1-1.3-0.5-1.3-1.2c0-0.8,0.5-1.3,1.5-1.3
				l10.1,0.3L593.2,523.8z"/>
		</g>
	</g>
</g>
</svg>
