<?xml version="1.0" encoding="utf-8"?>
<!-- Generator: Adobe Illustrator 21.1.0, SVG Export Plug-In . SVG Version: 6.00 Build 0)  -->
<svg version="1.0" xmlns="http://www.w3.org/2000/svg" xmlns:xlink="http://www.w3.org/1999/xlink" x="0px" y="0px"
	 viewBox="0 0 259.6 110.2" enable-background="new 0 0 259.6 110.2" xml:space="preserve">
<g id="ref">
</g>
<g id="font">
	<g id="非洲菊">
	</g>
	<g>
		<path fill="#00256A" d="M85.2,27c7.2-5,15.9-8,25.3-8.4c0,0,0,0,0,0l0.4,0c0.1,0,0.2,0,0.3,0c0,0,0,0,0,0L213,14.8
			C210.4,4.8,203.2,0,190.9,0l-1.6,0L61.5,0.6C72.5,5.8,81.1,15.3,85.2,27z"/>
		<path fill="#00256A" d="M81.4,29.9C76.1,13,60.4,0.7,41.8,0.7c-0.1,0-0.1,0-0.2,0h-0.2c-0.1,0-0.1,0-0.2,0c0,0-0.1,0-0.1,0
			C30.1,0.8,19.8,5.2,12.1,13C4.2,20.9-0.1,31.4,0,42.5c0.1,11.1,4.4,21.6,12.3,29.4c7.8,7.8,18.3,12,29.3,12h0.2
			c3.7,0,7.2-0.6,10.6-1.5c4.6-1.2,8.9-3.2,12.8-5.9c-0.6-2.8-1-5.7-1-8.7C63.9,52.7,70.6,39,81.4,29.9z"/>
		<path fill="#00256A" d="M240.3,18.5l-0.6,0l-21.2,0.8l-1.1,0l-0.1,0l-1,0l-0.1,0l-0.1,0l-1,0l-0.1,0l-1.1,0l-82.4,3.1
			c5.2,2.2,10,5.3,14.2,9.3c7.8,7.4,12.7,17.1,14.3,27.6c0.1,0.4,0.1,0.7,0.2,1.1c0,0,0,0,0,0.1c0,0.3,0.1,0.7,0.1,1
			c0,0,0,0.1,0,0.1c0,0,0,0,0,0c0,0.4,0.1,0.7,0.1,1.1l0,0c0,0.4,0.1,0.7,0.1,1.1c0,0.5,0.1,1.1,0.1,1.6
			c0.3,11.5-3.5,22.4-10.6,31.3l95.7-43.4c9.5-4.8,14.2-11.1,13.9-18.8C259.3,28.6,256.5,18.5,240.3,18.5z"/>
		<path fill="#00256A" d="M155.8,65c0-0.4-0.1-0.7-0.1-1.1c0,0,0,0,0,0c0-0.4,0-0.7-0.1-1.1c0,0,0,0,0,0c0,0,0-0.1,0-0.1
			c0-0.3,0-0.7-0.1-1c0,0,0,0,0-0.1c0-0.4-0.1-0.7-0.2-1.1c-1.4-9.6-5.9-18.4-13-25.1c-8.1-7.7-18.8-12-30-12c-0.3,0-0.6,0-0.8,0
			c-0.1,0-0.1,0-0.2,0c-0.1,0-0.1,0-0.1,0c-0.1,0-0.1,0-0.2,0c-9.1,0.3-17.5,3.4-24.4,8.5c-0.3,0.2-0.6,0.5-1,0.7c0,0,0,0-0.1,0
			c-0.3,0.2-0.6,0.5-0.9,0.7c0,0,0,0-0.1,0c0,0,0,0-0.1,0.1c-0.3,0.3-0.6,0.5-0.9,0.8c0,0-0.1,0-0.1,0.1c-0.3,0.3-0.7,0.6-1,0.9
			C74,43.3,68.6,55,68.9,67.8c0,1.8,0.2,3.6,0.5,5.4c0.1,0.4,0.2,0.9,0.2,1.3c0,0,0,0.1,0,0.1c0.1,0.4,0.1,0.8,0.2,1.2
			c0,0,0,0.1,0,0.1c0,0,0,0,0,0.1c0.1,0.4,0.2,0.8,0.3,1.2c0,0,0,0,0,0c0.1,0.4,0.2,0.8,0.3,1.2c0,0.1,0.1,0.2,0.1,0.3
			c0.1,0.4,0.2,0.7,0.3,1.1c0,0,0,0,0,0.1c0.1,0.3,0.2,0.7,0.3,1c0,0,0,0,0,0.1c0,0,0,0,0,0.1c0.1,0.3,0.3,0.7,0.4,1c0,0,0,0,0,0.1
			c0.1,0.4,0.3,0.7,0.4,1.1c6.5,15.9,22.2,27.2,40.2,27.2c0.3,0,0.7,0,1,0c3.7-0.1,7.4-0.7,10.9-1.7c0.1,0,0.1,0,0.2,0
			c4.1-1.2,7.9-2.9,11.5-5.2c2.8-1.8,5.5-4,7.9-6.5c8-8.4,12.3-19.4,12-31C155.8,65.5,155.8,65.3,155.8,65z"/>
	</g>
</g>
</svg>
