<?xml version="1.0" encoding="utf-8"?>
<!-- Generator: Adobe Illustrator 21.1.0, SVG Export Plug-In . SVG Version: 6.00 Build 0)  -->
<svg version="1.0" xmlns="http://www.w3.org/2000/svg" xmlns:xlink="http://www.w3.org/1999/xlink" x="0px" y="0px"
	 viewBox="0 0 570 117.5" enable-background="new 0 0 570 117.5" xml:space="preserve">
<g id="ref">
</g>
<g id="font">
	<g id="非洲菊">
	</g>
	<g>
		<path fill="#0B2659" d="M0,79.3l34-2.1c0.7,5.5,2.2,9.7,4.5,12.6c3.7,4.7,8.9,7,15.8,7c5.1,0,9-1.2,11.8-3.6
			c2.8-2.4,4.1-5.2,4.1-8.3c0-3-1.3-5.7-3.9-8c-2.6-2.4-8.7-4.6-18.3-6.7c-15.7-3.5-26.8-8.2-33.5-14C7.7,50.3,4.3,42.9,4.3,33.8
			c0-5.9,1.7-11.5,5.2-16.8c3.4-5.3,8.6-9.4,15.5-12.5C31.9,1.5,41.4,0,53.4,0c14.8,0,26,2.7,33.8,8.2c7.8,5.5,12.4,14.2,13.8,26.2
			l-33.7,2c-0.9-5.2-2.8-9-5.6-11.4c-2.9-2.4-6.8-3.5-11.9-3.5c-4.2,0-7.3,0.9-9.4,2.6c-2.1,1.8-3.2,3.9-3.2,6.4
			c0,1.8,0.9,3.5,2.6,5c1.7,1.5,5.7,2.9,12,4.3c15.6,3.4,26.8,6.8,33.5,10.2c6.8,3.4,11.7,7.7,14.7,12.8c3.1,5.1,4.6,10.8,4.6,17.1
			c0,7.4-2,14.2-6.1,20.5c-4.1,6.3-9.8,11-17.2,14.2c-7.4,3.2-16.6,2.9-27.8,2.9c-19.7,0-33.3-1.8-40.8-9.4C5.3,100.6,1,91,0,79.3z"
			/>
		<path fill="#0B2659" d="M114.7,0h108.5v30.5h-36.4v87h-35.7v-87h-36.4V0z"/>
		<path fill="#0B2659" d="M227.7,0h39.7l23.3,41L314,0h39.5l-44.9,69.1v48.4h-35.8V69.1L227.7,0z"/>
		<path fill="#0B2659" d="M365,0h35.7v89.1h55.7v28.5H365V0z"/>
		<path fill="#0B2659" d="M472.6,0H570v24.7h-61.6V45h55.6v23.6h-55.6v22.8H570v26.2h-97.4V0z"/>
	</g>
</g>
</svg>
